<svg xmlns="http://www.w3.org/2000/svg" width="256" height="256">
  <!-- https://github.com/idleberg/applescript-svg-icon -->
  <path fill="#009DDC" d="M217.005 153.89l-1.38-2.392-2.142-3.707-111.19 64.2 2.14 3.71c7.09 12.28 2.883 27.99-9.4 35.08l22.238-12.84 22.24-12.84 66.85-38.59c11.47-6.62 15.9-20.76 10.65-32.61z"/>
  <path fill="#963D97" d="M198.507 121.844l14.98 25.944L102.3 211.984 87.32 186.04l111.187-64.196z"/>
  <path fill="#E03A3E" d="M183.528 95.9l14.98 25.943-111.19 64.197-14.978-25.944L183.528 95.9z"/>
  <path fill="#F5821F" d="M168.548 69.955L183.526 95.9 72.34 160.095 57.36 134.15l111.188-64.195z"/>
  <path fill="#61BB46" d="M49.636 69.425c-12.283 7.09-16.49 22.796-9.4 35.078l2.14 3.707L86.54 82.712c-.5-1.345-1.11-2.645-1.827-3.887-7.093-12.283-22.798-16.49-35.077-9.4z"/>
  <path fill="#FDB827" d="M86.538 82.71l-44.162 25.5 14.98 25.943 111.19-64.197-4.28-7.413-88.95 51.357c11.016-6.36 15.53-19.653 11.223-31.19z"/>
  <path fill="#FFFFFF" d="M195.905 14.627c-7.092-12.28-22.797-16.49-35.078-9.398L138.59 18.06 49.635 69.42c12.283-7.09 27.986-2.884 35.078 9.4.715 1.24 1.326 2.54 1.826 3.885 4.3 11.537-.21 24.83-11.23 31.192l88.95-51.36.13-.073 22.11-12.76c12.28-7.09 16.49-22.797 9.4-35.08zm-91.472 201.067l-12.838-22.24-22.238 12.84c-12.283 7.092-16.49 22.796-9.4 35.08 7.092 12.28 22.797 16.488 35.078 9.397 12.28-7.08 16.487-22.79 9.398-35.07z"/>
  <path fill="#231F20" stroke="#000000" stroke-width="3" stroke-miterlimit="10" d="M218.636 153.168l-2.72-4.723.005-.002-14.97-25.943-14.98-25.945-1.18-2.05-.6-1.04L169.2 67.52l-2.496-4.32 20.693-11.95c6.352-3.667 10.896-9.59 12.795-16.674 1.9-7.086.926-14.486-2.742-20.838C192.558 5.264 183.435 0 173.642 0c-4.793 0-9.533 1.273-13.707 3.684l-22.238 12.84v-.002L48.745 67.88h-.004c-6.35 3.668-10.89 9.59-12.79 16.675-1.9 7.085-.92 14.486 2.75 20.838l1.25 2.163 16.76 29.034 13.19 22.855 14.98 25.943 4.28 7.413-20.69 11.95c-13.11 7.57-17.62 24.4-10.05 37.52C63.31 250.74 72.43 256 82.23 256c4.794 0 9.534-1.27 13.708-3.682l.01-.003 111.31-64.27c12.186-7.032 17.08-22.025 11.39-34.874zm-7.588-6.03l-6.436 3.716-101.668 58.698-10.7-18.532-2.497-4.323L191.415 128l6.436-3.716 13.2 22.855zM161.718 6.772c3.633-2.096 7.756-3.204 11.924-3.204 8.52 0 16.46 4.58 20.72 11.95 3.19 5.528 4.038 11.968 2.386 18.134-1.65 6.165-5.605 11.317-11.133 14.51l-99.425 57.4c3.083-5.246 4.33-11.373 3.534-17.408-.207-1.57-.55-3.12-1.023-4.632l.04-.02-.52-1.4v-.022l-.73-1.96-.07.04c-.35-.753-.73-1.5-1.14-2.22-4.9-8.47-14.02-13.74-23.81-13.74h-.19l99.45-57.43zm-119.94 96.842c-3.19-5.528-4.04-11.97-2.387-18.134S45 74.16 50.53 70.968c3.63-2.097 7.756-3.205 11.924-3.205 1.866 0 3.7.22 5.478.64 6.344 1.5 11.916 5.554 15.24 11.312.19.33.37.667.545 1.006l.154.32c.15.3.3.61.43.92L66.05 92.49l-23.02 13.29-1.25-2.16zm3.034 5.25l15.906-9.185 24.807-14.32.004.01c.03.13.06.27.1.4l.15.6.09.45c.04.18.08.37.11.56.03.15.05.31.07.46.03.18.06.36.08.55l.06.47.06.54c.01.15.02.31.04.47l.03.54c.01.15.01.31.02.47.01.332.02.67.01 1.01-.01.18-.01.36-.02.535-.01.333-.03.67-.06 1.004-.023.33-.06.67-.096 1-.035.33-.08.66-.14.99l-.073.455c-.03.18-.067.352-.104.532l-.09.44c-.04.18-.087.36-.13.542-.04.14-.07.28-.11.42-.05.19-.106.377-.16.56-.04.136-.074.27-.115.4-.07.21-.14.42-.214.63l-.106.313c-.11.31-.23.62-.353.92-.036.087-.075.17-.11.256-.09.22-.19.44-.29.66-.054.12-.114.24-.17.36-.085.18-.17.36-.26.536-.065.13-.136.26-.204.385-.09.17-.18.33-.27.498-.076.13-.15.26-.23.39l-.28.47c-.08.13-.17.26-.25.39l-.3.45c-.09.13-.19.26-.277.39-.105.15-.21.29-.315.432l-.286.38c-.11.14-.22.28-.338.42-.32.39-.64.76-.98 1.13-.12.13-.247.26-.37.39-.11.117-.23.23-.34.34-.13.13-.26.26-.39.38-.12.11-.23.227-.35.33-.14.128-.277.25-.42.37-.12.103-.24.21-.36.31-.145.123-.293.24-.44.357-.12.1-.24.195-.366.29-.15.12-.314.235-.475.35l-.36.27c-.18.122-.36.24-.54.36-.11.073-.225.15-.34.223-.26.17-.52.327-.79.48-.036.02-.073.05-.11.07l1.784 3.09.004-.005 54.52-31.48 32.88-18.96 2.5 4.33-4.39 2.532L58 131.72l-13.19-22.85zM59.79 134.81l103.717-59.88 4.387-2.535L181.09 95.25 72.984 157.66 59.79 134.807zm28.176 48.8L74.77 160.75l108.103-62.412 13.197 22.856-6.436 3.715L87.966 183.6zm6.176 65.62c-3.633 2.1-7.756 3.205-11.922 3.205-8.523 0-16.46-4.58-20.72-11.95-6.587-11.412-2.663-26.056 8.747-32.644L90.94 195.9l3.902 6.756 8.045 13.938c6.59 11.41 2.665 26.055-8.745 32.643zm111.322-64.274l-99.61 57.51c.11-.186.214-.377.32-.565l.105-.18c.18-.33.35-.66.52-1 .05-.1.1-.2.14-.31.13-.28.27-.57.39-.86l.09-.21c.19-.44.37-.9.53-1.35.1-.29.21-.58.3-.88.03-.08.05-.16.08-.24.11-.36.22-.72.32-1.09.02-.1.05-.2.08-.3.08-.3.15-.6.22-.91l.06-.26c.08-.37.15-.74.22-1.11.01-.1.03-.19.05-.29.05-.31.09-.613.13-.922l.03-.282c.04-.376.08-.753.1-1.132l.02-.28c.02-.315.03-.63.04-.94l.01-.3c.005-.38.005-.765 0-1.146-.005-.09-.01-.177-.01-.265-.01-.32-.028-.64-.05-.956-.01-.1-.015-.203-.02-.31-.03-.38-.066-.763-.11-1.145l-.03-.23c-.04-.326-.09-.65-.145-.97l-.05-.315c-.068-.387-.146-.77-.23-1.15-.014-.066-.03-.135-.047-.2-.08-.33-.16-.656-.25-.98-.027-.105-.055-.21-.086-.315-.1-.38-.22-.76-.34-1.135l-.06-.156c-.115-.33-.236-.66-.36-.996-.185-.48-.38-.96-.59-1.43l-.05-.1c-.156-.347-.32-.68-.49-1.02-.05-.11-.103-.21-.155-.31-.188-.354-.377-.71-.58-1.06l-.018-.034-1.25-2.16 108.1-62.41 2.58 4.47c4.88 11.15.62 24.15-9.96 30.25z"/>
</svg>