<svg xmlns="http://www.w3.org/2000/svg" viewBox="2794 2839 57.55 64.68"><defs><style>.a,.b,.c{fill:#00042c;}.b{opacity:0.9;}.c{opacity:0.8;}</style></defs><g transform="translate(2794 2839)"><path class="a" d="M134.443,26.426l-8.086,4.726-8.3,4.831a9.1,9.1,0,0,1-1.26-4.726,9.592,9.592,0,0,1,9.557-9.557A9.359,9.359,0,0,1,134.443,26.426Z" transform="translate(-97.477 1.17)"/><path class="a" d="M155.215,16.177l-11.552,6.616A19.077,19.077,0,0,0,110.582,41.8L99.03,48.417a6.253,6.253,0,0,1-.63-2.835V18.907a5.4,5.4,0,0,1,2.835-4.936c4.516-2.625,19.848-11.342,22.894-13.127a5.788,5.788,0,0,1,6.091-.105l23,13.232A6.6,6.6,0,0,1,155.215,16.177Z" transform="translate(-98.4 0.077)"/><path class="b" d="M155.185,46.421a5.055,5.055,0,0,1-2.1,2.1l-23,13.232a5.571,5.571,0,0,1-6.091-.105c-3.046-1.785-18.273-10.5-22.894-13.127a5.056,5.056,0,0,1-2.1-2.1l11.552-6.616a19.131,19.131,0,0,0,33.186-.105Z" transform="translate(-98.37 2.073)"/><path class="b" d="M134.493,35.431a9.54,9.54,0,0,1-16.593,0l8.3-4.831Z" transform="translate(-97.421 1.616)"/><path class="c" d="M154.57,18.235a5.2,5.2,0,0,0-.735-2.835l-11.552,6.616-8.3,4.831L125.9,31.573l8.191,4.726,8.3,4.831,11.447,6.616a6.253,6.253,0,0,0,.63-2.835C154.57,44.805,154.57,27.057,154.57,18.235Z" transform="translate(-97.02 0.853)"/></g></svg>