<?xml version="1.0" encoding="utf-8"?>
<!-- Generator: Adobe Illustrator 16.0.3, SVG Export Plug-In . SVG Version: 6.00 Build 0)  -->
<!DOCTYPE svg PUBLIC "-//W3C//DTD SVG 1.1//EN" "http://www.w3.org/Graphics/SVG/1.1/DTD/svg11.dtd">
<svg version="1.1" id="Ebene_1" xmlns="http://www.w3.org/2000/svg" xmlns:xlink="http://www.w3.org/1999/xlink" x="0px" y="0px"
	 width="174.729px" height="176.053px" viewBox="42.199 0 174.729 176.053" enable-background="new 42.199 0 174.729 176.053"
	 xml:space="preserve">
<g>
	<g transform="translate(40.960000, 0.000000)">
		<path fill="#435363" d="M88.628,127.669c-21.86,0-39.646-17.784-39.646-39.643c0-21.862,17.787-39.649,39.646-39.649
			c18.045,0,33.3,12.121,38.082,28.645h15.34c-5.107-24.818-27.116-43.537-53.422-43.537c-30.072,0-54.539,24.467-54.539,54.542
			c0,30.072,24.467,54.538,54.539,54.538c26.306,0,48.314-18.715,53.422-43.533h-15.34
			C121.928,115.552,106.673,127.669,88.628,127.669"/>
		<path fill="#435363" d="M61.901,114.75c6.847,6.847,16.302,11.09,26.727,11.09v-15.807c-6.077,0-11.579-2.468-15.562-6.448
			L61.901,114.75L61.901,114.75z"/>
		<path fill="#F38B00" d="M50.814,88.023c0,5.41,1.154,10.558,3.208,15.217l14.459-6.359c-1.195-2.71-1.864-5.704-1.864-8.858
			c0-12.155,9.854-22.006,22.006-22.006V50.21C67.775,50.21,50.814,67.174,50.814,88.023"/>
		<path fill="#435363" d="M102.335,52.787l-5.734,14.735c4.684,1.826,8.592,5.195,11.076,9.496h17.121
			C121.419,65.922,113.063,56.976,102.335,52.787"/>
		<path fill="#F38B00" d="M96.607,108.523l5.731,14.735c10.729-4.188,19.084-13.138,22.467-24.234h-17.121
			C105.192,103.329,101.287,106.701,96.607,108.523"/>
		<path fill="#435363" d="M18.671,109.175c-0.249-0.826-0.488-1.659-0.71-2.499c-0.014-0.051-0.027-0.102-0.041-0.153
			c-0.205-0.778-0.393-1.557-0.573-2.342c-0.038-0.16-0.072-0.321-0.106-0.481c-0.15-0.673-0.287-1.352-0.42-2.031
			c-0.058-0.304-0.109-0.607-0.16-0.911c-0.096-0.543-0.191-1.082-0.277-1.632c-0.071-0.467-0.133-0.932-0.194-1.399
			c-0.43-3.188-0.662-6.427-0.659-9.708H0.597c-0.003,3.577,0.222,7.11,0.642,10.599l0,0c0.007,0.075,0.021,0.15,0.031,0.225
			c0.116,0.949,0.246,1.898,0.392,2.836c0.041,0.259,0.085,0.519,0.13,0.782c0.13,0.771,0.263,1.543,0.413,2.311
			c0.075,0.409,0.164,0.812,0.249,1.218c0.126,0.611,0.256,1.222,0.396,1.83c0.123,0.533,0.256,1.065,0.393,1.598
			c0.12,0.474,0.235,0.949,0.362,1.423c0.171,0.628,0.352,1.249,0.533,1.874c0.075,0.259,0.143,0.525,0.222,0.781h0.007
			c1.031,3.41,2.253,6.738,3.673,9.96l13.684-6.018C20.545,114.77,19.528,112.005,18.671,109.175L18.671,109.175z"/>
		<path fill="#F38B00" d="M88.628,161.123c-20.153,0-38.421-8.205-51.655-21.443l-10.578,10.578
			c15.93,15.931,37.925,25.795,62.232,25.795c44.889,0,81.923-33.601,87.34-77.021h-15.07
			C155.573,134.13,125.194,161.123,88.628,161.123"/>
		<path fill="#F38B00" d="M88.628,14.93c16.373,0,31.498,5.41,43.697,14.541l8.945-11.991C126.587,6.502,108.366,0,88.628,0
			C51.275,0,19.36,23.265,6.581,56.098l13.93,5.42C31.143,34.277,57.668,14.93,88.628,14.93"/>
		<path fill="#435363" d="M160.897,77.022h15.07c-1.615-12.954-6.045-25.034-12.66-35.608l-12.691,7.919
			C155.798,57.604,159.372,66.98,160.897,77.022"/>
		<path fill="#F38B00" d="M143.92,77.022h15.121c-3.946-25.354-21.31-46.319-44.578-55.402l-5.399,13.885
			C126.758,42.414,140.142,58.003,143.92,77.022"/>
		<path fill="#435363" d="M88.628,31.652L88.628,31.652l0.003-14.889h-0.003c-30.185,0-56.041,18.862-66.411,45.421l13.875,5.4
			C44.298,46.575,64.751,31.652,88.628,31.652"/>
		<path fill="#F38B00" d="M32.256,88.023L32.256,88.023H17.367c0,29.945,18.572,55.624,44.8,66.151l5.53-13.82
			C46.947,132.024,32.256,111.711,32.256,88.023"/>
		<path fill="#435363" d="M88.628,144.395v14.893c35.553,0,65.105-26.174,70.413-60.263h-15.124
			C138.786,124.863,115.948,144.395,88.628,144.395"/>
	</g>
</g>
</svg>
