<?xml version="1.0" encoding="utf-8"?>
<!-- Generator: Adobe Illustrator 16.0.3, SVG Export Plug-In . SVG Version: 6.00 Build 0)  -->
<!DOCTYPE svg PUBLIC "-//W3C//DTD SVG 1.1//EN" "http://www.w3.org/Graphics/SVG/1.1/DTD/svg11.dtd">
<svg version="1.1" id="Ebene_1" xmlns="http://www.w3.org/2000/svg" xmlns:xlink="http://www.w3.org/1999/xlink" x="0px" y="0px"
	 width="328.382px" height="369.432px" viewBox="91.809 117.07 328.382 369.432"
	 enable-background="new 91.809 117.07 328.382 369.432" xml:space="preserve">
<g id="形状_1_19_" enable-background="new    ">
	<g id="形状_1">
		<g>
			<polygon fill="#1758A7" points="91.809,117.07 122.593,450.578 255.999,486.501 389.402,450.578 420.191,117.07 			"/>
		</g>
	</g>
</g>
<g id="形状_1_18_" enable-background="new    ">
	<g id="形状_1_1_">
		<g>
			<polygon fill="#379AD6" points="255.997,144.084 255.997,457.852 256.298,457.933 364.257,428.863 389.175,144.084 			"/>
		</g>
	</g>
</g>
<g id="形状_1_17_" enable-background="new    ">
	<g id="形状_1_2_">
		<g>
			<polygon fill="#E8E8E7" points="255.623,372.536 255.551,372.558 210.981,361.197 208.28,328.479 166.861,328.479 
				172.263,391.644 256.001,416.637 256.001,372.43 			"/>
		</g>
	</g>
</g>
<g id="形状_1_16_" enable-background="new    ">
	<g id="形状_1_3_">
		<g>
			<polygon fill="#FBFBFA" points="256.001,266.782 256.001,306.91 256.12,306.91 305.622,306.965 302.445,359.419 256.12,372.47 
				256.001,372.504 256.001,416.591 256.12,416.627 256.153,416.637 340.114,392.114 351.007,266.782 			"/>
		</g>
	</g>
</g>
<g id="形状_1_15_" enable-background="new    ">
	<g id="形状_1_4_">
		<g>
			<polygon fill="#E5E4E2" points="161.002,266.782 164.154,306.868 164.159,306.931 256.001,306.937 256.001,266.782 			"/>
		</g>
	</g>
</g>
<g id="形状_1_14_" enable-background="new    ">
	<g id="形状_1_5_">
		<g>
			<polygon fill="#EEEEEE" points="161.008,266.782 255.768,266.782 256.001,266.681 256.001,226.617 			"/>
		</g>
	</g>
</g>
<g id="形状_1_13_" enable-background="new    ">
	<g id="形状_1_6_">
		<g>
			<polygon fill="#FFFFFF" points="261.553,224.667 256.001,226.992 256.001,266.773 353.955,224.667 			"/>
		</g>
	</g>
</g>
<g id="形状_1_12_" enable-background="new    ">
	<g id="形状_1_7_">
		<g>
			<polygon fill="#E7E7E6" points="152.196,184.515 157.16,224.667 256.001,224.667 256.001,184.515 			"/>
		</g>
	</g>
</g>
<g id="形状_1_11_" enable-background="new    ">
	<g id="形状_1_8_">
		<g>
			<path fill="#F8F8F7" d="M256.001,224.667l101.842-40.152H256.001V224.667z M256.028,224.667h97.76l4.056-40.152L256.028,224.667z
				"/>
		</g>
	</g>
</g>
</svg>
