<?xml version="1.0" encoding="utf-8"?>
<!-- Generator: Adobe Illustrator 16.0.0, SVG Export Plug-In . SVG Version: 6.00 Build 0)  -->
<!DOCTYPE svg PUBLIC "-//W3C//DTD SVG 1.1//EN" "http://www.w3.org/Graphics/SVG/1.1/DTD/svg11.dtd">
<svg version="1.1" id="Ebene_1" xmlns="http://www.w3.org/2000/svg" xmlns:xlink="http://www.w3.org/1999/xlink" x="0px" y="0px"
	 width="256px" height="317.253px" viewBox="0 0 256 317.253" enable-background="new 0 0 256 317.253" xml:space="preserve">
<g>
	<g>
		<path fill="#6762A6" d="M225.627,317.253H30.257C13.546,317.253,0,303.708,0,286.998V30.256C0,13.546,13.546,0,30.257,0h195.37
			c16.709,0,30.26,13.546,30.26,30.256v256.742C255.887,303.708,242.336,317.253,225.627,317.253L225.627,317.253L225.627,317.253z"
			/>
		<path fill="#FFFFFF" d="M160.361,273.601V147.61c0,0,8.193-30.15-100.945,12.334c-0.2,0.539-0.2-116.504-0.2-116.504l35.66-0.219
			v74.991c0,0,99.846-39.326,99.846,29.823v125.567L160.361,273.601L160.361,273.601L160.361,273.601z M180.681,88.606h-37.825
			c13.615-16.646,25.94-45.167,25.94-45.167h39.109C207.905,43.439,201.211,62.025,180.681,88.606L180.681,88.606L180.681,88.606z
			 M59.864,273.382v-71.748l35.877,35.878L59.864,273.382L59.864,273.382z"/>
	</g>
</g>
</svg>
