<?xml version="1.0" encoding="utf-8"?>
<!-- Generator: Adobe Illustrator 16.0.3, SVG Export Plug-In . SVG Version: 6.00 Build 0)  -->
<!DOCTYPE svg PUBLIC "-//W3C//DTD SVG 1.1//EN" "http://www.w3.org/Graphics/SVG/1.1/DTD/svg11.dtd">
<svg version="1.1" id="Ebene_1" xmlns="http://www.w3.org/2000/svg" xmlns:xlink="http://www.w3.org/1999/xlink" x="0px" y="0px"
	 width="325.875px" height="369.576px" viewBox="93.063 116.909 325.875 369.576"
	 enable-background="new 93.063 116.909 325.875 369.576" xml:space="preserve">
<g id="形状_1_9_" enable-background="new    ">
	<g id="形状_1">
		<g>
			<polygon fill="#E44D26" points="93.063,116.909 122.719,449.541 255.8,486.486 389.249,449.489 418.938,116.909 			"/>
		</g>
	</g>
</g>
<g id="形状_1_8_" enable-background="new    ">
	<g id="形状_1_1_">
		<g>
			<path fill="#EBEBEB" d="M256,184.903H153.702l0.977,10.945l10.027,112.422H256v-40.795h-53.984l-3.729-41.774H256V184.903z
				 M210.386,361.205l-2.905-32.535h-40.953l5.716,64.056l83.568,23.198l0.188-0.053v-42.444l-0.179,0.048L210.386,361.205z"/>
		</g>
	</g>
</g>
<g id="形状_1_7_" enable-background="new    ">
	<g id="形状_1_2_">
		<g>
			<polygon fill="#F16529" points="256,144.106 256,458.207 363.832,428.313 389.203,144.106 			"/>
		</g>
	</g>
</g>
<g id="形状_1_6_" enable-background="new    ">
	<g id="形状_1_3_">
		<g>
			<path fill="#FFFFFF" d="M255.858,308.271h50.236l-4.736,52.91l-45.5,12.281v42.441l83.634-23.179l0.613-6.893l9.588-107.402
				l0.994-10.955h-94.83V308.271L255.858,308.271z M255.858,184.903V225.7H354.4l0.817-9.171l1.859-20.682l0.975-10.945H255.858
				L255.858,184.903z"/>
		</g>
	</g>
</g>
</svg>
