<?xml version="1.0" encoding="utf-8"?>
<!DOCTYPE svg PUBLIC "-//W3C//DTD SVG 1.1//EN" "http://www.w3.org/Graphics/SVG/1.1/DTD/svg11.dtd">
<svg version="1.1" id="Logo" xmlns="http://www.w3.org/2000/svg" xmlns:xlink="http://www.w3.org/1999/xlink" x="0px" y="0px"
	 width="1024px" height="1024px" viewBox="-251.479 -251.484 1024 1024" enable-background="new -251.479 -251.484 1024 1024"
	 xml:space="preserve">
<polygon fill="#00577B" points="678.604,262.045 480.371,460.282 678.604,658.53 "/>
<polygon fill="#0079AA" points="658.52,241.963 262.038,241.963 460.29,440.204 "/>
<polygon fill="#0096D3" points="658.515,213.561 460.292,15.317 262.038,213.561 "/>
<polygon fill="#01B0F0" points="426.012,9.436 29.532,9.436 227.761,207.682 "/>
<polygon fill="#01B0F0" points="678.604,-203.002 480.371,-4.766 678.604,193.484 "/>
<polygon fill="#27BCF3" points="426.014,-18.965 227.759,-217.202 29.522,-18.965 "/>
<polygon fill="#4FC9F5" points="193.473,-223.076 -202.996,-223.076 -4.757,-24.848 "/>
<polygon fill="#79201B" points="-157.571,259.006 40.661,60.757 -157.571,-137.484 "/>
<polygon fill="#A42D26" points="60.745,80.841 -137.493,279.092 258.989,279.092 "/>
<polygon fill="#CC382F" points="-137.494,307.488 60.74,505.738 258.988,307.489 "/>
<polygon fill="#F0453F" points="-157.571,327.571 -157.571,724.038 40.658,525.818 -17.405,467.754 "/>
<polygon fill="#F0453F" points="491.511,511.621 293.274,313.37 95.026,511.621 "/>
<polygon fill="#F2625D" points="95.021,540.021 293.268,738.237 491.503,540.02 "/>
<polygon fill="#F47F7D" points="327.556,744.119 724.032,744.117 525.792,545.899 "/>
<path fill="#464049" d="M768.356,748.277l-61.354-61.35v-924.212c0-5.765-3.442-10.915-8.757-13.114
	c-1.736-0.721-3.567-1.086-5.444-1.086c-3.794,0-7.36,1.477-10.041,4.16L460.292-24.85L237.8-247.323l-2.938-2.873h-1.251
	c-1.822-0.838-3.807-1.28-5.848-1.28h-464.552c-3.947-0.132-7.714,1.343-10.525,4.145c-2.687,2.681-4.166,6.249-4.166,10.049
	c0,3.797,1.478,7.363,4.158,10.041l61.353,61.353v924.202c0,5.756,3.436,10.904,8.792,13.132c1.728,0.71,3.547,1.069,5.408,1.069
	c3.747,0,7.412-1.52,10.041-4.157L60.74,545.899l222.487,222.458l2.939,2.873h1.246c1.826,0.841,3.815,1.285,5.861,1.285h465.038
	c5.755,0,10.901-3.435,13.106-8.735C773.643,758.453,772.443,752.37,768.356,748.277z M678.604-203.002v396.485L480.371-4.766
	L678.604-203.002z M40.661,60.757l-198.231,198.248v-396.49L40.661,60.757z M29.532,9.436h396.48l-198.25,198.246L29.532,9.436z
	 M60.745,80.841l198.244,198.251h-396.482L60.745,80.841z M293.274,313.37l198.238,198.252H95.026L293.274,313.37z M262.038,241.963
	h396.483L460.29,440.204L262.038,241.963z M480.371,460.282l198.233-198.237V658.53L480.371,460.282z M658.515,213.561H262.038
	L460.292,15.317L658.515,213.561z M426.014-18.965H29.522l198.236-198.237L426.014-18.965z M-202.996-223.076h396.47L-4.757-24.848
	L-202.996-223.076z M-157.571,724.038V327.571l140.165,140.183l58.063,58.064L-157.571,724.038z M-137.494,307.488l396.483,0.001
	L60.74,505.738L-137.494,307.488z M293.268,738.237L95.021,540.021l396.482-0.003L293.268,738.237z M327.556,744.119
	l198.236-198.221l198.24,198.219L327.556,744.119z"/>
</svg>
