<svg id="Layer_1" data-name="Layer 1" xmlns="http://www.w3.org/2000/svg" viewBox="0 0 256 301.03"><defs><style>.cls-1{fill:#fff;}.cls-2{fill:#0a0b09;}.cls-3{fill:#d7252c;}</style></defs><title>rubocop</title><rect class="cls-1" x="52.46" y="214.42" width="153.54" height="62.58"/><path class="cls-2" d="M248.5,128.68V119a19.32,19.32,0,0,0-19.27-19.27H26.77A19.33,19.33,0,0,0,7.5,119v9.68A15.63,15.63,0,0,0,0,142v25.9A15.63,15.63,0,0,0,7.5,181.2v10.05a19.33,19.33,0,0,0,19.27,19.27H229.23a19.32,19.32,0,0,0,19.27-19.27V181.2a15.63,15.63,0,0,0,7.5-13.31V142A15.62,15.62,0,0,0,248.5,128.68ZM128.76,0A107.22,107.22,0,0,0,22.44,93.5H235.08A107.22,107.22,0,0,0,128.76,0ZM96,237.24h63.3l6.46,7.48,9.72-8.39-10.3-11.93H90.09l-10.3,11.93,9.72,8.39Zm109.6-22.82v41a20.54,20.54,0,0,1-20.48,20.48H173.94v0a7.78,7.78,0,0,1-6-2.89h0l-13.33-17h0a7.8,7.8,0,0,0-6.13-3.07H109.62a7.79,7.79,0,0,0-5.8,2.68h0L90.15,272.95h0a7.78,7.78,0,0,1-6,2.89v0H72.94A20.54,20.54,0,0,1,52.46,255.4v-41h-25v41.1A45.65,45.65,0,0,0,72.94,301H185.1a45.65,45.65,0,0,0,45.51-45.51v-41.1Z"/><path class="cls-3" d="M210.79,167.62H45.22a14.22,14.22,0,0,1,0-28.43H210.79a14.22,14.22,0,0,1,0,28.43"/></svg>