<?xml version="1.0" encoding="utf-8"?>
<!-- Generator: Adobe Illustrator 16.0.3, SVG Export Plug-In . SVG Version: 6.00 Build 0)  -->
<!DOCTYPE svg PUBLIC "-//W3C//DTD SVG 1.1//EN" "http://www.w3.org/Graphics/SVG/1.1/DTD/svg11.dtd">
<svg version="1.1" id="Ebene_1" xmlns="http://www.w3.org/2000/svg" xmlns:xlink="http://www.w3.org/1999/xlink" x="0px" y="0px"
	 width="323.812px" height="260.521px" viewBox="57.152 37.051 323.812 260.521"
	 enable-background="new 57.152 37.051 323.812 260.521" xml:space="preserve">
<g>
	<g>
		<path fill="none" d="M1173,0c0,130.667,0,261.333,0,392c-391,0-782,0-1173,0C0,261.333,0,130.667,0,0 M57.119,197.199
			c0,2.463-0.169,4.308,0.033,6.109c0.535,4.795,1.061,9.603,1.889,14.352c5.109,29.303,18.571,53.872,41.745,72.802
			c1.663,1.357,4.023,2.285,6.17,2.563c25.138,3.274,50.43,4.68,75.746,4.774c28.815,0.106,57.642-0.346,86.449-1.088
			c17.473-0.451,34.922-1.869,52.374-2.976c1.914-0.121,3.98-0.698,5.631-1.656c12.353-7.176,23.274-16.064,32.077-27.416
			c14.857-19.159,21.107-41.19,21.728-65.097c0.03-1.198-0.18-2.403-0.31-3.995c-1.07,0.623-1.644,0.913-2.172,1.271
			c-44.86,30.358-94.49,46.646-148.388,50.476c-32.649,2.32-64.914-0.025-96.552-8.463
			C104.973,231.241,78.075,220.202,57.119,197.199z M324.661,214.278c-1.467-2.737-2.735-5.235-4.119-7.67
			c-8.878-15.611-17.649-31.287-26.704-46.797c-19.542-33.472-39.04-66.98-61.326-98.743c-4.576-6.521-9.775-12.622-14.916-18.724
			c-1.574-1.868-3.91-3.095-6.783-5.293c0.168,2.063,0.099,2.727,0.287,3.307c5.368,16.456,7.17,33.559,7.594,50.646
			c0.661,26.613,0.394,53.26-0.005,79.885c-0.198,13.296-1.53,26.576-2.404,39.86c-0.588,8.916-1.272,17.826-1.913,26.729
			C237.008,240.035,290.523,228.93,324.661,214.278z M105.71,215.451c2.268,1.638,4.08,3.418,6.251,4.417
			c4.821,2.22,9.705,4.434,14.77,5.971c21.413,6.498,43.372,10.168,65.663,11.849c4.045,0.307,8.136-0.007,12.352-0.035
			c0.467-5.554,0.964-10.181,1.224-14.82c0.813-14.467,1.572-28.938,2.283-43.41c1.358-27.632,2.168-55.276,0.52-82.918
			c-0.374-6.277-1.382-12.577-2.755-18.719c-1.344-6.014-4.197-6.855-8.664-2.504c-4.752,4.631-9.49,9.478-13.211,14.929
			c-12.761,18.69-25.482,37.435-37.449,56.637C132.709,169.284,119.534,192.227,105.71,215.451z"/>
		<path fill="#464563" d="M57.119,197.199c20.957,23.003,47.854,34.042,76.42,41.657c31.639,8.438,63.903,10.783,96.552,8.463
			c53.897-3.829,103.527-20.116,148.388-50.476c0.528-0.357,1.102-0.647,2.172-1.271c0.13,1.591,0.34,2.796,0.31,3.994
			c-0.62,23.905-6.87,45.938-21.728,65.097c-8.803,11.352-19.725,20.24-32.077,27.416c-1.65,0.958-3.717,1.536-5.631,1.656
			c-17.452,1.105-34.901,2.523-52.374,2.976c-28.808,0.742-57.634,1.194-86.449,1.088c-25.316-0.096-50.608-1.5-75.746-4.774
			c-2.146-0.278-4.507-1.206-6.17-2.563c-23.173-18.93-36.635-43.499-41.745-72.802c-0.828-4.749-1.354-9.557-1.889-14.352
			C56.95,201.507,57.119,199.662,57.119,197.199z"/>
		<path fill="#E88826" d="M324.661,214.278c-34.138,14.651-87.653,25.758-110.29,23.2c0.641-8.902,1.325-17.813,1.913-26.729
			c0.874-13.284,2.206-26.564,2.404-39.86c0.398-26.625,0.666-53.271,0.005-79.885c-0.424-17.088-2.226-34.189-7.594-50.646
			c-0.188-0.58-0.119-1.243-0.287-3.307c2.873,2.198,5.209,3.425,6.783,5.293c5.141,6.102,10.34,12.202,14.916,18.724
			c22.286,31.763,41.784,65.271,61.326,98.743c9.055,15.51,17.826,31.186,26.704,46.797
			C321.926,209.042,323.194,211.54,324.661,214.278z M241.265,95.03c-0.328,0.111-0.657,0.223-0.986,0.333
			c0,1.047-0.221,2.15,0.038,3.129c1.142,4.304,2.297,8.61,3.673,12.845c5.881,18.087,12.098,36.069,17.688,54.247
			c3.924,12.761,7.158,25.74,10.444,38.688c1.197,4.722,1.652,9.631,2.516,14.874c11.19-0.352,21.727-2.827,32.099-6.204
			c2.585-0.842,2.639-2.713,1.793-4.796c-1.059-2.605-2.061-5.261-3.396-7.727c-7.415-13.697-14.523-27.583-22.496-40.951
			c-11.524-19.323-23.661-38.282-35.639-57.333C245.39,99.576,243.19,97.389,241.265,95.03z"/>
		<path fill="#E88826" d="M105.71,215.451c13.824-23.226,27-46.167,40.982-68.605c11.967-19.202,24.688-37.945,37.449-56.637
			c3.721-5.451,8.459-10.298,13.211-14.929c4.467-4.353,7.32-3.51,8.664,2.504c1.373,6.142,2.381,12.44,2.755,18.719
			c1.648,27.642,0.839,55.286-0.52,82.918c-0.711,14.473-1.471,28.942-2.283,43.41c-0.26,4.641-0.757,9.268-1.224,14.82
			c-4.216,0.028-8.307,0.342-12.352,0.035c-22.291-1.681-44.25-5.351-65.663-11.849c-5.064-1.537-9.949-3.751-14.77-5.971
			C109.79,218.869,107.978,217.089,105.71,215.451z M169.927,133.485c-1.102,1.496-1.607,2.099-2.021,2.757
			c-8.989,14.293-18.157,28.479-26.876,42.936c-5.049,8.37-9.472,17.127-13.98,25.812c-2.26,4.354-1.229,7.157,3.057,9.216
			c8.168,3.922,16.881,5.679,25.552,7.698c2.393,0.559,3.989-0.32,4.442-3.253c1.108-7.154,2.7-14.232,3.867-21.381
			c1.565-9.589,3.158-19.185,4.289-28.83c1.19-10.153,1.886-20.368,2.691-30.563C171.037,136.746,170.433,135.563,169.927,133.485z"
			/>
		<path fill="#F7A81F" d="M241.265,95.03c1.926,2.358,4.125,4.547,5.733,7.104c11.978,19.051,24.114,38.01,35.639,57.333
			c7.973,13.368,15.081,27.254,22.496,40.951c1.335,2.466,2.337,5.12,3.396,7.727c0.846,2.083,0.792,3.954-1.793,4.796
			c-10.372,3.377-20.908,5.854-32.099,6.204c-0.863-5.243-1.318-10.152-2.516-14.874c-3.286-12.946-6.521-25.927-10.444-38.688
			c-5.59-18.177-11.807-36.16-17.688-54.247c-1.376-4.233-2.531-8.541-3.673-12.845c-0.259-0.979-0.038-2.082-0.038-3.129
			C240.607,95.252,240.937,95.142,241.265,95.03z"/>
		<path fill="#F7A81F" d="M169.927,133.485c0.506,2.077,1.11,3.262,1.021,4.39c-0.806,10.195-1.501,20.41-2.691,30.563
			c-1.131,9.646-2.724,19.241-4.289,28.83c-1.167,7.147-2.759,14.227-3.867,21.381c-0.454,2.933-2.049,3.812-4.442,3.253
			c-8.67-2.021-17.383-3.776-25.552-7.698c-4.286-2.059-5.317-4.862-3.057-9.216c4.509-8.685,8.932-17.44,13.98-25.812
			c8.719-14.456,17.887-28.643,26.876-42.937C168.32,135.583,168.825,134.981,169.927,133.485z"/>
	</g>
</g>
</svg>
