<?xml version="1.0" encoding="utf-8"?>
<!-- Generator: Adobe Illustrator 16.0.0, SVG Export Plug-In . SVG Version: 6.00 Build 0)  -->
<!DOCTYPE svg PUBLIC "-//W3C//DTD SVG 1.1//EN" "http://www.w3.org/Graphics/SVG/1.1/DTD/svg11.dtd">
<svg version="1.1" id="Ebene_1" xmlns="http://www.w3.org/2000/svg" xmlns:xlink="http://www.w3.org/1999/xlink" x="0px" y="0px"
	 width="62.754px" height="61.819px" viewBox="0 0 62.754 61.819" enable-background="new 0 0 62.754 61.819" xml:space="preserve">
<path fill="#418A4A" d="M18.697,46.273c-0.075-1.002-0.354-2.1-1.461-3.109c0-0.002-0.002-0.002-0.005-0.004
	c-0.043-0.039-0.091-0.082-0.137-0.121c-0.007-0.004-0.011-0.011-0.016-0.014c-1.532-1.398-2.756-4.088-2.756-6.943
	c0-3.979,1.763-15.292,2.144-15.292c0.302,0,0.308,5.456,0.108,10.585c-0.139,3.562,0.388,4.964,1.238,4.964
	c1.132,0,1.313-3.584,1.43-7.614c0.096-3.318,0.386-7.91,0.618-7.935h0.001c0.362,0,0.661,4.563,0.758,7.889
	c0.12,4.13,0.406,7.559,1.352,7.559c0.993,0,1.295-1.586,1.225-5.107c-0.086-4.298-0.087-10.341,0.215-10.341
	c0.381,0,1.674,3.971,1.986,15.292c0.079,2.854-1.224,5.543-2.757,6.943c-0.005,0.004-0.009,0.01-0.016,0.014
	c-0.046,0.039-0.094,0.082-0.137,0.121c-0.002,0.002-0.005,0.002-0.005,0.004c-1.108,1.01-1.386,2.107-1.462,3.109
	c-0.12,1.6-0.174,3.65-0.168,5.957l8.726,8.727c0.122-3.804,0.11-7.391-0.058-10.099c-0.063-1.012-0.218-2.187-0.395-3.124
	c-0.055-0.299-0.247-0.574-0.247-0.813c0-3.281,0-30.934,0-32.964c0-2.812,2.633-4.141,5.055,2.031
	c2.422,6.172,1.746,28.122,1.746,29.684c0,0.33-0.287,0.722-0.758,1.106c-0.188,0.122-0.352,0.245-0.51,0.371
	c-1.451,1.164-1.658,2.506-1.734,3.709c-0.181,2.912-0.326,6.84-0.365,10.961l12.026-12.026c-0.017-1.412-0.056-2.684-0.122-3.742
	c-0.025-0.406-0.126-0.819-0.203-1.254c-0.218-1.232-1.742-2.241-2.625-3.127c-1.714-1.722-2.816-4.614-2.816-7.877
	c0-5.296,2.937-12.001,6.559-12.001s6.559,6.704,6.559,12.001c0,3.263-1.102,6.156-2.815,7.877
	c-0.884,0.886-2.408,1.895-2.626,3.127c-0.077,0.436-0.178,0.848-0.203,1.254c-0.04,0.637-0.068,1.354-0.091,2.129l16.801-16.802
	L31.377,0L0,31.377L18.853,50.23C18.832,48.737,18.781,47.393,18.697,46.273z"/>
</svg>
