<?xml version="1.0" encoding="utf-8"?>
<!-- Generator: Adobe Illustrator 16.0.3, SVG Export Plug-In . SVG Version: 6.00 Build 0)  -->
<!DOCTYPE svg PUBLIC "-//W3C//DTD SVG 1.1//EN" "http://www.w3.org/Graphics/SVG/1.1/DTD/svg11.dtd">
<svg version="1.1" id="Ebene_1" xmlns="http://www.w3.org/2000/svg" xmlns:xlink="http://www.w3.org/1999/xlink" x="0px" y="0px"
	 width="256px" height="144.82px" viewBox="0 0 256 144.82" enable-background="new 0 0 256 144.82" xml:space="preserve">
<g>
	<path fill="#364548" d="M147.488,45.732h22.865v23.375h11.563c5.338,0,10.83-0.951,15.887-2.664
		c2.484-0.843,5.273-2.015,7.724-3.489c-3.228-4.214-4.876-9.536-5.361-14.781c-0.659-7.134,0.78-16.42,5.609-22.004l2.403-2.78
		l2.864,2.302c7.212,5.794,13.276,13.889,14.345,23.118c8.684-2.554,18.878-1.95,26.531,2.467l3.141,1.812l-1.652,3.226
		c-6.473,12.633-20.006,16.546-33.235,15.854c-19.798,49.308-62.897,72.653-115.157,72.653c-26.999,0-51.77-10.094-65.875-34.047
		l-0.231-0.392l-2.055-4.181c-4.768-10.544-6.352-22.095-5.277-33.637l0.322-3.457H51.45V45.732h22.865V22.866h45.733V0h27.44
		V45.732"/>
	<path fill="#22A0C8" d="M221.57,54.379c1.533-11.915-7.384-21.274-12.914-25.718c-6.373,7.368-7.363,26.678,2.635,34.808
		c-5.58,4.956-17.338,9.448-29.375,9.448H35.37c-1.17,12.567,1.036,24.14,6.075,34.045l1.667,3.049
		c1.056,1.791,2.209,3.52,3.455,5.185h0c6.024,0.387,11.58,0.521,16.662,0.408h0.002c9.987-0.222,18.136-1.399,24.312-3.54
		c0.919-0.319,1.921,0.168,2.24,1.087c0.317,0.919-0.169,1.921-1.087,2.239c-0.821,0.285-1.677,0.551-2.562,0.804
		c-0.001,0.001-0.002,0.001-0.003,0.001c-4.863,1.389-10.078,2.323-16.806,2.738c0.399,0.006-0.416,0.061-0.418,0.061
		c-0.229,0.014-0.517,0.047-0.747,0.059c-2.648,0.148-5.506,0.18-8.428,0.18c-3.196,0-6.343-0.061-9.862-0.238l-0.09,0.059
		c12.21,13.725,31.302,21.955,55.233,21.955c50.648,0,93.608-22.451,112.632-72.857c13.497,1.385,26.468-2.057,32.368-13.575
		C240.615,49.152,228.529,50.882,221.57,54.379"/>
	<path fill="#37B1D9" d="M221.57,54.379c1.533-11.915-7.384-21.274-12.914-25.718c-6.373,7.368-7.363,26.678,2.635,34.808
		c-5.58,4.956-17.338,9.448-29.375,9.448H44.048c-0.598,19.246,6.544,33.855,19.181,42.688h0.002
		c9.987-0.222,18.136-1.399,24.312-3.54c0.919-0.319,1.921,0.168,2.24,1.087c0.317,0.919-0.169,1.921-1.087,2.239
		c-0.821,0.285-1.677,0.551-2.562,0.804c-0.001,0.001-0.002,0.001-0.003,0.001c-4.863,1.389-10.526,2.443-17.254,2.857
		c-0.002,0-0.163-0.155-0.165-0.154c17.237,8.842,42.23,8.81,70.886-2.197c32.131-12.344,62.027-35.86,82.891-62.757
		C222.173,54.085,221.866,54.231,221.57,54.379"/>
	<path fill="#1B81A5" d="M35.645,88.186c0.911,6.731,2.88,13.035,5.8,18.776l1.667,3.049c1.056,1.791,2.209,3.52,3.456,5.185
		c6.025,0.387,11.581,0.521,16.664,0.408c9.987-0.222,18.136-1.399,24.312-3.54c0.919-0.319,1.921,0.168,2.24,1.087
		c0.317,0.919-0.169,1.921-1.087,2.239c-0.821,0.285-1.677,0.551-2.562,0.804c-0.001,0.001-0.002,0.001-0.003,0.001
		c-4.863,1.389-10.496,2.383-17.224,2.799c-0.231,0.014-0.633,0.017-0.866,0.029c-2.647,0.148-5.476,0.239-8.398,0.239
		c-3.195,0-6.462-0.062-9.981-0.239c12.21,13.724,31.421,21.984,55.353,21.984c43.359,0,81.084-16.457,102.979-52.822H35.645"/>
	<path fill="#1D91B4" d="M45.367,88.186c2.592,11.819,8.821,21.099,17.864,27.418c9.987-0.222,18.136-1.399,24.312-3.54
		c0.919-0.319,1.921,0.168,2.24,1.087c0.317,0.919-0.169,1.921-1.087,2.239c-0.821,0.285-1.677,0.551-2.562,0.804
		c-0.001,0.001-0.002,0.001-0.003,0.001c-4.863,1.389-10.615,2.383-17.343,2.799c17.235,8.84,42.157,8.713,70.81-2.293
		c17.334-6.66,34.017-16.575,48.984-28.515H45.367"/>
	<path fill="#23A3C2" d="M55.261,49.543h19.817v19.818H55.261V49.543z M56.911,51.195h1.564V67.71h-1.564V51.195z M59.852,51.195
		h1.626V67.71h-1.626V51.195z M62.854,51.195h1.626V67.71h-1.626V51.195z M65.857,51.195h1.626V67.71h-1.626V51.195z M68.86,51.195
		h1.626V67.71H68.86V51.195z M71.862,51.195h1.564V67.71h-1.564V51.195z"/>
	<path fill="#23A3C2" d="M78.125,26.677h19.819v19.817H78.125V26.677z M79.778,28.329h1.563v16.514h-1.563V28.329z M82.719,28.329
		h1.625v16.514h-1.625V28.329z M85.72,28.329h1.626v16.514H85.72V28.329z M88.723,28.329h1.626v16.514h-1.626V28.329z
		 M91.726,28.329h1.626v16.514h-1.626V28.329z M94.728,28.329h1.566v16.514h-1.566V28.329z"/>
	<path fill="#34BBDE" d="M78.125,49.543h19.819v19.818H78.125V49.543z M79.778,51.195h1.563V67.71h-1.563V51.195z M82.719,51.195
		h1.625V67.71h-1.625V51.195z M85.72,51.195h1.626V67.71H85.72V51.195z M88.723,51.195h1.626V67.71h-1.626V51.195z M91.726,51.195
		h1.626V67.71h-1.626V51.195z M94.728,51.195h1.566V67.71h-1.566V51.195z"/>
	<path fill="#23A3C2" d="M100.993,49.543h19.818v19.818h-19.818V49.543z M102.644,51.195h1.563V67.71h-1.563V51.195z
		 M105.584,51.195h1.626V67.71h-1.626V51.195z M108.587,51.195h1.626V67.71h-1.626V51.195z M111.59,51.195h1.626V67.71h-1.626
		V51.195z M114.592,51.195h1.627V67.71h-1.627V51.195z M117.595,51.195h1.563V67.71h-1.563V51.195z"/>
	<path fill="#34BBDE" d="M100.993,26.677h19.818v19.817h-19.818V26.677z M102.644,28.329h1.563v16.514h-1.563V28.329z
		 M105.584,28.329h1.626v16.514h-1.626V28.329z M108.587,28.329h1.626v16.514h-1.626V28.329z M111.59,28.329h1.626v16.514h-1.626
		V28.329z M114.592,28.329h1.627v16.514h-1.627V28.329z M117.595,28.329h1.563v16.514h-1.563V28.329z"/>
	<path fill="#34BBDE" d="M123.859,49.543h19.818v19.818h-19.818V49.543z M125.511,51.195h1.563V67.71h-1.563V51.195z
		 M128.451,51.195h1.627V67.71h-1.627V51.195z M131.453,51.195h1.626V67.71h-1.626V51.195z M134.456,51.195h1.626V67.71h-1.626
		V51.195z M137.459,51.195h1.627V67.71h-1.627V51.195z M140.461,51.195h1.564V67.71h-1.564V51.195z"/>
	<path fill="#23A3C2" d="M123.859,26.677h19.818v19.817h-19.818V26.677z M125.511,28.329h1.563v16.514h-1.563V28.329z
		 M128.451,28.329h1.627v16.514h-1.627V28.329z M131.453,28.329h1.626v16.514h-1.626V28.329z M134.456,28.329h1.626v16.514h-1.626
		V28.329z M137.459,28.329h1.627v16.514h-1.627V28.329z M140.461,28.329h1.564v16.514h-1.564V28.329z"/>
	<path fill="#34BBDE" d="M123.859,3.811h19.818v19.818h-19.818V3.811z M125.511,5.461h1.563v16.516h-1.563V5.461z M128.451,5.461
		h1.627v16.516h-1.627V5.461z M131.453,5.461h1.626v16.516h-1.626V5.461z M134.456,5.461h1.626v16.516h-1.626V5.461z M137.459,5.461
		h1.627v16.516h-1.627V5.461z M140.461,5.461h1.564v16.516h-1.564V5.461z"/>
	<path fill="#23A3C2" d="M146.725,49.543h19.818v19.818h-19.818V49.543z M148.375,51.195h1.565V67.71h-1.565V51.195z
		 M151.316,51.195h1.626V67.71h-1.626V51.195z M154.319,51.195h1.626V67.71h-1.626V51.195z M157.321,51.195h1.626V67.71h-1.626
		V51.195z M160.325,51.195h1.626V67.71h-1.626V51.195z M163.328,51.195h1.563V67.71h-1.563V51.195z"/>
	<path fill="#D3ECEC" d="M96.704,101.492c3.019,0,5.467,2.449,5.467,5.468s-2.448,5.466-5.467,5.466
		c-3.02,0-5.467-2.447-5.467-5.466S93.684,101.492,96.704,101.492"/>
	<path fill="#364548" d="M96.704,103.042c0.5,0,0.978,0.094,1.418,0.265c-0.478,0.276-0.8,0.793-0.8,1.384
		c0,0.882,0.715,1.597,1.598,1.597c0.604,0,1.13-0.335,1.401-0.832c0.192,0.462,0.298,0.97,0.298,1.502
		c0,2.162-1.753,3.915-3.916,3.915c-2.162,0-3.916-1.753-3.916-3.915C92.788,104.796,94.542,103.042,96.704,103.042"/>
	<path fill="#364548" d="M0,90.163h254.328c-5.539-1.405-17.521-3.303-15.545-10.56c-10.07,11.652-34.354,8.174-40.482,2.429
		c-6.824,9.898-46.554,6.136-49.324-1.575c-8.557,10.041-35.068,10.041-43.624,0c-2.772,7.711-42.501,11.473-49.327,1.575
		c-6.128,5.746-30.41,9.223-40.48-2.429C17.522,86.86,5.539,88.757,0,90.163"/>
	<path fill="#BDD9D7" d="M111.237,140.891c-13.54-6.426-20.972-15.16-25.106-24.695c-5.029,1.436-11.075,2.354-18.1,2.748
		c-2.646,0.148-5.43,0.225-8.351,0.225c-3.368,0-6.917-0.1-10.642-0.298c12.417,12.409,27.692,21.964,55.975,22.138
		C107.102,141.008,109.175,140.968,111.237,140.891"/>
	<path fill="#D3ECEC" d="M91.16,124.994c-1.874-2.543-3.69-5.738-5.026-8.8c-5.03,1.437-11.077,2.354-18.103,2.749
		C72.856,121.563,79.758,123.99,91.16,124.994"/>
</g>
</svg>
