<?xml version="1.0" encoding="utf-8"?>
<!-- Generator: Adobe Illustrator 16.0.3, SVG Export Plug-In . SVG Version: 6.00 Build 0)  -->
<!DOCTYPE svg PUBLIC "-//W3C//DTD SVG 1.1//EN" "http://www.w3.org/Graphics/SVG/1.1/DTD/svg11.dtd">
<svg version="1.1" id="Ebene_1" xmlns="http://www.w3.org/2000/svg" xmlns:xlink="http://www.w3.org/1999/xlink" x="0px" y="0px"
	 width="96.966px" height="93.057px" viewBox="0.02 0 96.966 93.057" enable-background="new 0.02 0 96.966 93.057"
	 xml:space="preserve">
<g>
	<g>
		<path fill="none" d="M10.987,93.056c-6.667,0-13.332,0-19.999,0c0-30,0-59.999,0-89.999c16.667,0,33.332,0,49.998,0
			c0.059,0.308,0.037,0.609-0.062,0.907c-0.431,0.297-0.86,0.594-1.29,0.892c-0.298-0.132-0.512-0.049-0.645,0.249
			c-0.674,0.314-1.348,0.63-2.021,0.945c-0.456,0.282-0.912,0.563-1.367,0.846c-0.274-0.107-0.468-0.026-0.583,0.244
			c-1.611,1.654-3.221,3.311-4.832,4.964c-0.238,0.295-0.477,0.592-0.715,0.887c-0.203,0.29-0.407,0.581-0.61,0.871
			c-0.61,1.072-1.222,2.146-1.834,3.218c-0.25,0.241-0.363,0.535-0.341,0.882c-0.173,0.376-0.347,0.753-0.52,1.128
			c-0.207,0.279-0.275,0.59-0.205,0.931c-0.279,0.697-0.56,1.395-0.838,2.092c-1.162,6.556-6.02,11.148-8.848,16.804
			c-1.429,2.856-3.228,4.238-6.255,4.324c-3.089,2.582-3.323,4.598-1.019,8.809c-0.702,3.927-1.404,7.854-2.106,11.78
			c-0.467,1.19-1.191,2.35-1.355,3.582c-0.829,6.176-1.708,12.354-2.168,18.563c-0.243,3.3,1.272,5.747,5.194,5.679
			c0.797-0.017,1.604,0.332,2.405,0.514C10.975,92.463,10.98,92.759,10.987,93.056z"/>
		<path fill="none" d="M95.986,46.056c0,15.602,0,31.201,0,47c-23.666,0-47.333,0-71,0c0.004-0.3,0.009-0.6,0.016-0.898
			c3.993-1.069,7.987-2.142,11.981-3.213c0.467-0.238,0.935-0.478,1.401-0.717l0.349,0.016l0.251-0.242
			c0.681-0.305,1.36-0.61,2.041-0.918l-0.021,0.011c0.645-0.354,1.29-0.709,1.935-1.063l0.028-0.015
			c0.439-0.276,0.881-0.553,1.32-0.829l0.385,0.004l0.311-0.226c0.33-0.093,0.658-0.185,0.988-0.275
			c0.352-0.204,0.701-0.409,1.053-0.614c0.318-0.09,0.636-0.181,0.953-0.271c0.363-0.229,0.729-0.46,1.092-0.69l-0.045,0.008
			c0.316-0.104,0.634-0.211,0.951-0.314c0.342-0.247,0.684-0.493,1.025-0.738l-0.008,0.004c0.436-0.289,0.866-0.58,1.301-0.871
			c0.315,0.047,0.547-0.074,0.69-0.358c0.335-0.261,0.669-0.521,1.003-0.782v0.003c0.479-0.278,0.955-0.56,1.436-0.838h0.354
			l0.22-0.278c0.408-0.268,0.816-0.535,1.227-0.804c0.371,0.056,0.638-0.088,0.799-0.428c0.271-0.234,0.539-0.47,0.809-0.703
			l0.111-0.099c0.32-0.295,0.644-0.59,0.963-0.885l0.056-0.045c0.346-0.31,0.688-0.615,1.032-0.925l-0.002,0.002
			c0.324-0.338,0.65-0.676,0.978-1.013l0.012-0.018c0.265-0.315,0.529-0.636,0.796-0.953c0.299-0.137,0.414-0.364,0.346-0.688
			c0.303-0.441,0.604-0.883,0.906-1.324c1.022-1.574,2.049-3.146,3.071-4.722c0.22-0.421,0.438-0.843,0.658-1.263
			c0.732-0.959-0.556-3.334,2.076-2.967c1.049,0.295,2.1,0.592,3.147,0.89l0.35,0.225l0.406-0.079
			c0.758,0.241,1.517,0.483,2.271,0.727c0.319,0.08,0.643,0.16,0.963,0.242c0.336,0.315,0.675,0.631,1.013,0.947
			c0.032,0.33,0.036,0.661,0.011,0.992c-0.276,0.525-0.556,1.053-0.834,1.58c0.289-0.139,0.578-0.275,0.867-0.415
			c0.414-0.301,0.828-0.603,1.242-0.901l-0.205-0.197l0.166,0.231c0.197-0.424,0.396-0.848,0.597-1.271
			c-0.314-0.328-0.63-0.655-0.943-0.983c-0.635-0.325-1.271-0.651-1.901-0.978c-0.195-0.26-0.455-0.379-0.779-0.36l0.021-0.054
			l-0.051-0.229c0.604-0.477,1.211-0.952,1.814-1.431l0.479,0.037l0.438-0.19c0.37-0.222,0.74-0.442,1.109-0.665
			c0.322-0.08,0.643-0.16,0.963-0.238c0.703-0.297,1.404-0.592,2.107-0.889c0.28-0.137,0.563-0.273,0.846-0.41
			c0.34-0.246,0.682-0.494,1.021-0.74c0.377-0.285,0.754-0.569,1.131-0.854c0.635-0.396,1.27-0.795,1.9-1.192
			c0.348-0.275,0.694-0.554,1.043-0.828l-0.019,0.014c0.363-0.32,0.729-0.643,1.094-0.963l-0.043,0.037
			c0.354-0.342,0.705-0.687,1.058-1.027l-0.023,0.053c0.316-0.367,0.635-0.734,0.953-1.102l-0.02,0.023
			c0.291-0.365,0.581-0.729,0.871-1.097l0.036-0.062c0.328-0.635,0.658-1.27,0.988-1.902c0.258-0.189,0.325-0.436,0.207-0.729
			c0.344-0.748,0.688-1.498,1.03-2.246l0.414,0.016L95.986,46.056z"/>
		<path fill="none" d="M46.986,3.057c16.334,0,32.666,0,49,0c0,13,0,26,0,38.999c-0.283-0.036-0.565-0.043-0.852-0.02
			c-0.146-0.285-0.287-0.574-0.424-0.864c-0.201-0.41-0.404-0.82-0.605-1.231c-0.022-0.31-0.126-0.592-0.307-0.845
			c-0.291-0.649-0.582-1.298-0.873-1.946L92.9,37.101c-0.303-0.352-0.604-0.701-0.91-1.052l0.004,0.002
			c-0.347-0.271-0.692-0.542-1.039-0.813c-0.178-0.254-0.422-0.365-0.729-0.332c-1.758-0.588-3.516-1.177-5.273-1.765
			c-0.586-0.065-1.172-0.133-1.758-0.198c-1.772,0.018-3.549,0.034-5.321,0.053c-1.949,0.767-3.898,1.533-5.848,2.301
			c-2.084,0.812-4.168,1.623-6.472,2.521c-3.211-7.416-10.305-9.242-16.731-12.117c0.485-1.207,0.903-2.245,1.322-3.284
			c0.229-0.449,0.46-0.9,0.69-1.352c0.246-0.21,0.346-0.476,0.295-0.796c0.252-0.749,0.504-1.496,0.756-2.244
			c0.065-0.608,0.135-1.217,0.201-1.824c-0.011-2.765-0.02-5.528-0.027-8.292c-1.657-1.341-3.314-2.683-4.973-4.024
			C47.013,3.612,46.98,3.336,46.986,3.057z"/>
		<path fill="#9E9E9E" d="M46.986,3.057c-0.006,0.279,0.027,0.555,0.103,0.825c-2.056,0.026-4.108,0.055-6.164,0.082
			c0.099-0.298,0.12-0.601,0.062-0.907C42.986,3.057,44.986,3.057,46.986,3.057z"/>
		<path fill="#050505" d="M50.145,22.415c-0.419,1.039-0.837,2.077-1.322,3.285c6.428,2.875,13.521,4.701,16.731,12.115
			c2.304-0.896,4.388-1.708,6.472-2.519c0.421,0.299,0.843,0.598,1.264,0.896c-0.103,0.287-0.22,0.568-0.351,0.846
			c-0.305,0.105-0.607,0.213-0.912,0.318c-0.309,0.252-0.616,0.504-0.924,0.758l-0.059,0.047c-0.406,0.272-0.813,0.547-1.223,0.818
			c-0.892,0.65-1.779,1.301-2.672,1.952c0.146,0.291,0.291,0.582,0.438,0.873c0.803-0.159,1.605-0.319,2.409-0.479
			c0.039,0.367,0.078,0.733,0.117,1.102c0.033,0.236,0.056,0.475,0.063,0.713l-0.101,0.109c-2.52,1.554-2.616,3.574-1.141,5.9
			c-0.038,2.629-0.076,5.26-0.113,7.889c-0.598-0.662-1.194-1.326-1.793-1.986c-1.293-5.128-2.508-10.275-3.905-15.375
			c-0.978-3.553-3.341-5.937-6.662-7.601c-6.377-3.193-13.168-4.709-20.188-4.595c-4.495,0.074-9.512-0.31-12.574,4.331
			c-1.914,2.902-3.756,5.851-5.656,8.763c-1.004,1.537-0.657,2.652,0.95,3.445c-0.002,0.293-0.005,0.587-0.007,0.881
			c-1.54-0.326-3.131-0.439-3.52,1.519c-0.583,2.939-4.528,5.299-1.583,8.855c0.035,0.35,0.07,0.699,0.105,1.049
			c-1.003,0.478-2.556,0.698-2.91,1.471c-1.22,2.662-2.021,5.519-2.982,8.3c-0.401-0.756-0.803-1.513-1.205-2.267
			C7.596,59.899,8.298,55.974,9,52.047l-0.058,0.067c0.568-0.381,1.137-0.763,1.705-1.144c0.533-1.619,1.066-3.237,1.599-4.858
			c1.379-1.699,0.695-2.199-1.171-2.014c-0.353-0.287-0.706-0.573-1.058-0.862c3.027-0.086,4.826-1.467,6.255-4.324
			c2.829-5.654,7.686-10.246,8.847-16.803c0.32,0.373,0.641,0.746,0.96,1.119c0.001,0.547,0.004,1.094,0.006,1.641
			c0.738,0.316,1.478,0.634,2.217,0.95c0.23-0.234,0.463-0.468,0.693-0.702c0.324-0.041,0.649-0.082,0.974-0.123
			c4.338-0.021,8.676-0.045,13.014-0.067c0.664-0.032,1.328-0.063,1.991-0.097c0.936-0.93,1.869-1.857,2.806-2.787
			c0.172-0.302,0.346-0.604,0.518-0.903c0.346-0.386,0.688-0.77,1.034-1.152c0.205-0.329,0.41-0.658,0.615-0.987
			c0.002-0.311,0.066-0.606,0.197-0.89l0.423-0.06l0.428,0.016l-0.021-0.019c0.052,0.739,0.102,1.479,0.152,2.22
			c0.049,0.319-0.051,0.586-0.298,0.796C50.605,21.514,50.376,21.965,50.145,22.415z"/>
		<path fill="#0B0B0B" d="M6.898,63.827c0.401,0.756,0.803,1.511,1.205,2.267c-0.92,4.762-1.841,9.522-2.642,13.665
			c2.744,0.932,5.145,1.746,7.546,2.561c0.416,0.213,0.832,0.424,1.248,0.635l0.434-0.032l0.308,0.308
			c0.263,0.271,0.524,0.543,0.786,0.813c0.075,0.339,0.15,0.677,0.226,1.014c-0.304,0.008-0.606,0.018-0.909,0.023
			c-0.288-0.035-0.577-0.049-0.867-0.041c-1.75-0.744-3.501-1.487-5.252-2.231c-0.543-0.099-1.087-0.194-1.631-0.292
			c0.058,0.512,0.116,1.021,0.173,1.527c0.172,0.287,0.344,0.574,0.516,0.861c-0.003,0.286,0.026,0.569,0.09,0.85l-0.229,0.41
			C7.594,86.139,7.292,86.1,6.99,86.048c-0.335-0.34-0.67-0.678-1.005-1.018c-0.292-0.111-0.583-0.223-0.875-0.334
			c0.267,0.781,0.532,1.563,0.797,2.346c0.32,0.354,0.641,0.709,0.959,1.063c2.451,0.634,4.933,1.896,7.347,1.779
			c6.884-0.332,13.744-1.228,20.61-1.899c0.386-0.209,0.771-0.418,1.155-0.629c0.301-0.113,0.603-0.229,0.902-0.344
			c0.368-0.236,0.734-0.475,1.103-0.71c0.191-0.272,0.452-0.388,0.781-0.347c0.415-0.283,0.829-0.566,1.243-0.852l0.039-0.017
			c0.646-0.316,1.292-0.634,1.938-0.949l0.303-0.252l0.395,0.026c0.434-0.211,0.867-0.422,1.302-0.633l0.381-0.297l0.483,0.004
			c0.381-0.199,0.761-0.396,1.141-0.596c0.32-0.117,0.642-0.236,0.961-0.355c0.349-0.231,0.697-0.467,1.045-0.697
			c0.211-0.289,0.492-0.407,0.847-0.354c0.386-0.238,0.771-0.479,1.153-0.717c0.206-0.275,0.478-0.374,0.812-0.295
			c0.396-0.238,0.787-0.479,1.183-0.718c0.188-0.275,0.444-0.382,0.772-0.313c0.408,0.036,0.815,0.074,1.226,0.112h-0.005
			c0.003,0.333,0.007,0.667,0.009,1v-0.003c-0.334,0.261-0.668,0.521-1.003,0.781c-0.145,0.285-0.375,0.406-0.69,0.359
			c-0.435,0.291-0.865,0.582-1.3,0.87l0.007-0.004c-0.342-0.009-0.684-0.019-1.023-0.024c-0.316,0.359-0.637,0.722-0.953,1.082
			l0.045-0.008c-0.362,0.229-0.729,0.459-1.092,0.688c-0.316,0.09-0.635,0.18-0.953,0.271c-0.354-0.019-0.711-0.033-1.065-0.053
			c-0.324,0.313-0.649,0.629-0.976,0.941l-0.311,0.227l-0.383-0.004c-0.44,0.275-0.883,0.555-1.322,0.829l-0.028,0.014
			c-0.645,0.354-1.29,0.709-1.935,1.063l0.021-0.01c-0.68,0.307-1.359,0.611-2.041,0.918l-0.251,0.242l-0.349-0.017
			c-0.467,0.239-0.935,0.479-1.401,0.717c-3.994,1.071-7.987,2.142-11.981,3.214c-1.323,0.033-2.646,0.068-3.97,0.104
			c-2.03-0.011-4.061-0.021-6.092-0.027c-1.321-0.021-2.645-0.045-3.967-0.065c-0.802-0.184-1.607-0.529-2.405-0.517
			c-3.922,0.07-5.438-2.378-5.193-5.677c0.458-6.209,1.338-12.391,2.167-18.563C5.706,66.177,6.431,65.02,6.898,63.827z"/>
		<path fill="#191818" d="M40.925,3.964c2.054-0.027,4.108-0.056,6.164-0.082c1.656,1.342,3.314,2.683,4.974,4.024
			c-0.283,0.729-0.566,1.459-0.851,2.188c-0.431-0.614-0.858-1.229-1.289-1.843c-0.326-0.054-0.651-0.108-0.979-0.163
			c-0.331-0.29-0.662-0.579-0.994-0.869c-2.332-0.493-4.663-0.987-6.995-1.479c-0.439-0.294-0.88-0.589-1.319-0.883
			C40.064,4.558,40.494,4.261,40.925,3.964z"/>
		<path fill="#181818" d="M10.022,43.238c0.354,0.289,0.706,0.575,1.058,0.862c-0.083,0.251-0.133,0.509-0.15,0.771
			c-0.404,0.604-0.808,1.208-1.211,1.813c-0.169,0.466-0.339,0.931-0.508,1.396c0.021,0.97,0.044,1.938,0.065,2.904
			c-0.109,0.377-0.219,0.756-0.329,1.133l0.058-0.067C6.698,47.835,6.933,45.821,10.022,43.238z"/>
		<path fill="#2E2E2E" d="M30.187,12.104c1.611-1.653,3.221-3.31,4.832-4.964c0.387,0.347,0.774,0.69,1.161,1.036
			c-0.728,0.688-1.453,1.373-2.18,2.061c-0.327,0.278-0.653,0.559-0.98,0.839l-0.017,0.015c-0.336,0.324-0.672,0.648-1.01,0.972
			l-0.003,0.006c-0.322,0.104-0.646,0.104-0.969,0C30.751,12.219,30.472,12.231,30.187,12.104z"/>
		<path fill="#363535" d="M26.085,23.23c-0.32-0.373-0.642-0.746-0.96-1.119c0.278-0.697,0.559-1.395,0.838-2.092
			c0.313,0.338,0.626,0.676,0.938,1.015c0.369,0.343,0.737,0.687,1.106,1.028c0.292-0.01,0.584-0.019,0.875-0.025
			c-0.192,1.263-0.384,2.522-0.577,3.784c-0.739-0.316-1.479-0.633-2.217-0.95C26.089,24.324,26.087,23.777,26.085,23.23z"/>
		<path fill="#4B4B4B" d="M27.028,17.079c0.612-1.072,1.225-2.146,1.834-3.218c0.318,0.387,0.638,0.773,0.956,1.16
			c0.022,0.303,0.027,0.603,0.016,0.905c-0.21,0.785-0.421,1.571-0.633,2.355c-0.357-0.055-0.715-0.109-1.073-0.163
			c-0.188,0.086-0.354,0.057-0.497-0.093C27.43,17.71,27.229,17.395,27.028,17.079z"/>
		<path fill="#0C0C0C" d="M36.969,6.05c0.674-0.314,1.348-0.63,2.021-0.945c0.029,0.417,0.06,0.833,0.088,1.249
			c-0.366,0.2-0.733,0.399-1.101,0.601C37.641,6.652,37.305,6.351,36.969,6.05z"/>
		<path fill="#151515" d="M26.167,19.087c0.173-0.375,0.347-0.751,0.52-1.127c0.317-0.013,0.631,0.011,0.944,0.065
			c0.144,0.148,0.309,0.179,0.497,0.093c-0.027,0.663-0.055,1.325-0.081,1.987c-0.334,0.025-0.667,0.051-1.001,0.076
			C26.753,19.818,26.46,19.453,26.167,19.087z"/>
		<path fill="#272727" d="M29.818,15.021c-0.318-0.387-0.637-0.773-0.956-1.16c0.203-0.29,0.407-0.581,0.61-0.871
			c0.438-0.006,0.876-0.012,1.313-0.018C30.464,13.656,30.14,14.339,29.818,15.021z"/>
		<path d="M39.078,6.354c-0.028-0.416-0.059-0.832-0.088-1.249c0.131-0.298,0.347-0.381,0.645-0.249
			c0.439,0.294,0.88,0.589,1.319,0.883c-0.305,0.186-0.608,0.371-0.913,0.557C39.716,6.246,39.395,6.266,39.078,6.354z"/>
		<path d="M36.969,6.05c0.336,0.301,0.672,0.603,1.008,0.903c-0.109,0.254-0.298,0.351-0.568,0.289
			c-0.602-0.116-1.205-0.231-1.807-0.348C36.057,6.614,36.513,6.332,36.969,6.05z"/>
		<path d="M35.602,6.896c0.603,0.115,1.205,0.23,1.807,0.348C37.293,7.544,37.156,7.836,37,8.119
			c-0.274,0.009-0.548,0.027-0.819,0.058c-0.387-0.346-0.774-0.689-1.161-1.036C35.134,6.869,35.328,6.787,35.602,6.896z"/>
		<path d="M26.167,19.087c0.293,0.365,0.586,0.729,0.879,1.096c0.084,0.306,0.036,0.589-0.145,0.851
			c-0.313-0.339-0.626-0.677-0.938-1.015C25.892,19.678,25.961,19.369,26.167,19.087z"/>
		<path d="M27.631,18.027c-0.313-0.056-0.627-0.078-0.944-0.065c-0.023-0.347,0.09-0.641,0.341-0.882
			C27.229,17.395,27.43,17.71,27.631,18.027z"/>
		<path d="M30.786,12.973c-0.438,0.006-0.876,0.012-1.313,0.018c0.238-0.295,0.477-0.592,0.715-0.887
			c0.285,0.128,0.563,0.115,0.835-0.038c0.021,0.344,0.041,0.688,0.063,1.029L30.786,12.973z"/>
		<path fill="#1D1D1D" d="M67.033,55.05c0.599,0.662,1.195,1.324,1.793,1.986c-0.014,0.347-0.026,0.689-0.042,1.035
			c0.042,0.678,0.083,1.354,0.124,2.029c1.338,0.323,2.699,0.571,4.006,0.992c1.118,0.357,2.175,0.917,3.257,1.387l0.051,0.229
			c-0.828,0.146-1.656,0.293-2.485,0.439l-0.406,0.079l-0.35-0.226c-1.05-0.297-2.101-0.594-3.147-0.889
			c-2.632-0.367-1.344,2.008-2.075,2.967c-0.222,0.42-0.439,0.842-0.658,1.263c-1.023,1.573-2.049,3.147-3.072,4.722
			c-0.303,0.441-0.604,0.883-0.906,1.324c0.068,0.32-0.047,0.551-0.346,0.688c-0.266,0.317-0.531,0.638-0.797,0.953l-0.012,0.018
			c-0.324,0.337-0.65,0.675-0.977,1.013l0.002-0.002c-0.344,0.31-0.688,0.615-1.031,0.923l-0.057,0.047
			c-0.318,0.295-0.642,0.59-0.963,0.885L58.83,77.01c-0.271,0.233-0.538,0.469-0.809,0.703c-0.161,0.34-0.429,0.481-0.8,0.428
			c-0.407,0.269-0.815,0.536-1.226,0.804l-0.22,0.278c0,0-0.354,0-0.355,0c-0.479-0.056-0.961-0.108-1.439-0.162h0.005
			c0-0.327,0.005-0.653,0.016-0.979l0.02-0.01c0.314-0.252,0.629-0.504,0.943-0.757c0.113-0.317,0.338-0.45,0.672-0.396
			c0.438-0.314,0.875-0.631,1.313-0.945l-0.05,0.034c0.357-0.274,0.718-0.55,1.076-0.825c0.736-0.715,1.474-1.43,2.211-2.145
			c0.275-0.305,0.553-0.609,0.828-0.916l0.035-0.041c0.299-0.379,0.6-0.756,0.897-1.135c1.47-2.312,2.938-4.621,4.406-6.934
			c0.17-0.436,0.338-0.87,0.507-1.307c-0.611-0.613-1.226-1.229-1.837-1.846c0.646-0.636,1.289-1.271,1.935-1.906
			C66.982,57.653,67.008,56.352,67.033,55.05z"/>
		<path d="M94.128,48.323c0.118,0.297,0.051,0.539-0.207,0.729c-0.33,0.635-0.66,1.271-0.988,1.903l-0.036,0.061
			c-0.29,0.365-0.58,0.73-0.871,1.096l0.02-0.022c-0.317,0.366-0.637,0.733-0.953,1.103l0.023-0.054
			c-0.353,0.343-0.704,0.687-1.058,1.026l0.043-0.037c-0.364,0.32-0.729,0.644-1.094,0.964l0.019-0.015
			c-0.349,0.275-0.695,0.554-1.043,0.828c-0.634,0.398-1.269,0.797-1.898,1.193c-0.361-0.012-0.724-0.021-1.082-0.031l-0.023-0.023
			c0.029-0.303,0.047-0.605,0.052-0.911l0.055-0.032c0.303-0.255,0.606-0.51,0.909-0.766c0.648-0.77,1.296-1.536,1.942-2.307
			l0.024-0.022c0.762-0.646,1.523-1.286,2.285-1.931c0.256-0.328,0.51-0.658,0.764-0.985l0.01-0.019
			c0.287-0.408,0.574-0.818,0.861-1.228c-0.026-0.313,0.082-0.57,0.321-0.771c0.206-0.44,0.413-0.881,0.62-1.32
			c0.115-0.557,0.229-1.111,0.346-1.667C93.484,46.163,93.804,47.243,94.128,48.323z"/>
		<path fill="#212121" d="M76.171,62.481c-1.082-0.47-2.139-1.027-3.256-1.387c-1.308-0.421-2.669-0.669-4.007-0.992l0.177-0.146
			c2.618-0.041,5.235-0.084,7.854-0.127c0.334,0.031,0.67,0.063,1.005,0.093c-0.031,0.176,0.003,0.337,0.104,0.483
			c0.029,0.221,0.01,0.437-0.063,0.646C77.382,61.528,76.774,62.005,76.171,62.481z"/>
		<path fill="#222222" d="M94.128,48.323c-0.322-1.08-0.644-2.158-0.963-3.238c-0.15-0.313-0.164-0.633-0.041-0.959
			c0.25-0.676,0.5-1.354,0.75-2.031c0.038-0.359,0.077-0.719,0.116-1.077l-0.041,0.032l0.367,0.146l0.396-0.021
			c0.135,0.291,0.275,0.578,0.424,0.863c0.007,1.348,0.015,2.693,0.021,4.042C94.813,46.825,94.469,47.575,94.128,48.323z"/>
		<path fill="#212121" d="M69.83,62.116c1.05,0.295,2.101,0.592,3.148,0.891C71.927,62.708,70.88,62.411,69.83,62.116z"/>
		<path d="M84.949,57.954c-0.34,0.246-0.682,0.494-1.021,0.74c-0.405-0.252-0.813-0.505-1.219-0.756
			c0.076-0.301,0.161-0.6,0.254-0.896l0.015-0.01l0.452,0.01l0.453-0.035c0.365,0.012,0.729,0.023,1.093,0.035l0.022,0.023
			C84.966,57.362,84.949,57.657,84.949,57.954z"/>
		<path fill="#202020" d="M83.083,59.105c-0.701,0.296-1.404,0.593-2.107,0.888c-0.004-0.349-0.01-0.695-0.016-1.045
			c0.353-0.25,0.701-0.498,1.053-0.748C82.369,58.501,82.724,58.804,83.083,59.105z"/>
		<path fill="#4E4D4D" d="M80.011,60.233c-0.369,0.221-0.739,0.442-1.109,0.664c-0.285-0.164-0.569-0.328-0.854-0.49
			c-0.101-0.147-0.135-0.311-0.104-0.484c0.698-0.251,1.396-0.504,2.093-0.756C80.029,59.521,80.021,59.876,80.011,60.233z"/>
		<path fill="#202020" d="M76.978,63.124c0.633,0.326,1.268,0.652,1.9,0.978c-0.301,0.321-0.6,0.644-0.897,0.966
			c-0.338-0.316-0.677-0.633-1.013-0.949C76.964,63.786,76.966,63.456,76.978,63.124z"/>
		<path fill="#0B0B0B" d="M77.981,65.067c0.3-0.322,0.599-0.645,0.897-0.966c0.314,0.328,0.631,0.655,0.944,0.983
			c-0.198,0.424-0.397,0.848-0.597,1.271l-0.166-0.231l0.204,0.197c-0.28-0.1-0.569-0.135-0.866-0.104L77.99,66.06
			C78.017,65.728,78.013,65.396,77.981,65.067z"/>
		<path fill="#222222" d="M92.929,50.956c0.33-0.635,0.66-1.271,0.99-1.903C93.591,49.688,93.26,50.323,92.929,50.956z"/>
		<path d="M83.083,59.105c-0.355-0.302-0.714-0.604-1.07-0.905l0.297-0.27l0.4,0.01c0.405,0.252,0.813,0.504,1.219,0.754
			C83.646,58.831,83.364,58.969,83.083,59.105z"/>
		<path fill="#212121" d="M73.734,63.151c0.829-0.148,1.658-0.295,2.486-0.441c0,0-0.021,0.056-0.022,0.056
			c-0.063,0.371-0.128,0.741-0.189,1.11C75.251,63.634,74.492,63.392,73.734,63.151z"/>
		<path fill="#202020" d="M78.025,67.224c-0.289,0.139-0.578,0.275-0.867,0.415c0.278-0.526,0.558-1.054,0.834-1.58l0.408,0.158
			C78.275,66.553,78.15,66.888,78.025,67.224z"/>
		<path fill="#1F1F1F" d="M41.005,87.092c0.645-0.354,1.29-0.709,1.935-1.063C42.295,86.383,41.649,86.737,41.005,87.092z"/>
		<path fill="#1F1F1F" d="M38.986,88.001c0.681-0.307,1.36-0.612,2.041-0.918C40.346,87.389,39.667,87.696,38.986,88.001z"/>
		<path fill="#181818" d="M90.056,54.165c0.353-0.344,0.705-0.688,1.057-1.028C90.761,53.479,90.409,53.823,90.056,54.165z"/>
		<path fill="#181818" d="M89.007,55.09c0.363-0.32,0.729-0.642,1.094-0.964C89.734,54.448,89.37,54.77,89.007,55.09z"/>
		<path fill="#181818" d="M87.98,55.905c0.348-0.274,0.695-0.553,1.043-0.828C88.676,55.353,88.328,55.628,87.98,55.905z"/>
		<path fill="#181818" d="M84.949,57.954c0-0.297,0.017-0.592,0.05-0.887c0.359,0.01,0.721,0.021,1.081,0.029
			C85.703,57.384,85.326,57.669,84.949,57.954z"/>
		<path d="M80.011,60.233c0.01-0.355,0.018-0.712,0.023-1.066c0.287-0.157,0.596-0.23,0.924-0.219
			c0.006,0.35,0.01,0.696,0.016,1.045C80.654,60.073,80.335,60.153,80.011,60.233z"/>
		<path d="M78.048,60.407c0.285,0.162,0.569,0.326,0.854,0.49l-0.438,0.189l-0.479-0.036C78.056,60.841,78.077,60.626,78.048,60.407
			z"/>
		<path fill="#0B0B0B" d="M76.008,63.876c0.063-0.371,0.127-0.741,0.189-1.112c0.325-0.019,0.585,0.103,0.78,0.36
			c-0.014,0.332-0.016,0.662-0.01,0.994C76.648,64.036,76.327,63.956,76.008,63.876z"/>
		<path fill="#222222" d="M92.023,52.112c0.291-0.365,0.581-0.729,0.871-1.096C92.604,51.382,92.314,51.747,92.023,52.112z"/>
		<path fill="#212121" d="M67.095,66.345c0.219-0.421,0.438-0.842,0.658-1.264C67.534,65.503,67.314,65.924,67.095,66.345z"/>
		<path d="M79.228,66.356c0.197-0.424,0.396-0.848,0.597-1.271C79.628,65.509,79.426,65.933,79.228,66.356z"/>
		<path d="M78.025,67.224c0.125-0.336,0.25-0.671,0.375-1.007c0.297-0.029,0.586,0.006,0.867,0.104
			C78.853,66.622,78.439,66.923,78.025,67.224z"/>
		<path fill="#212020" d="M63.117,72.391c0.304-0.44,0.604-0.883,0.906-1.323C63.72,71.508,63.421,71.95,63.117,72.391z"/>
		<path fill="#212020" d="M61.974,74.032c0.266-0.316,0.531-0.637,0.797-0.953C62.507,73.396,62.24,73.714,61.974,74.032z"/>
		<path fill="#212020" d="M59.958,75.98c0.346-0.308,0.688-0.614,1.032-0.923C60.646,75.366,60.301,75.673,59.958,75.98z"/>
		<path fill="#212020" d="M58.939,76.911c0.32-0.295,0.644-0.59,0.963-0.885C59.583,76.321,59.26,76.616,58.939,76.911z"/>
		<path fill="#212020" d="M58.019,77.712c0.271-0.234,0.539-0.469,0.809-0.703C58.558,77.243,58.29,77.478,58.019,77.712z"/>
		<path fill="#212020" d="M53.979,79.06c0.479,0.055,0.96,0.107,1.44,0.162c-0.479,0.279-0.953,0.559-1.434,0.838
			C53.986,79.727,53.982,79.393,53.979,79.06z"/>
		<path fill="#1F1F1F" d="M52.985,80.839c0.335-0.262,0.669-0.521,1.003-0.782C53.654,80.317,53.32,80.577,52.985,80.839z"/>
		<path fill="#262626" d="M50.994,82.069c0.435-0.289,0.866-0.58,1.3-0.871C51.86,81.489,51.427,81.78,50.994,82.069z"/>
		<path fill="#1F1F1F" d="M49.023,83.12c0.316-0.359,0.636-0.722,0.953-1.08c-0.004,0.254-0.004,0.51-0.002,0.765
			C49.657,82.909,49.341,83.016,49.023,83.12z"/>
		<path fill="#262626" d="M49.974,82.805c-0.002-0.255-0.002-0.511,0.002-0.765c0.342,0.009,0.684,0.017,1.023,0.023
			C50.658,82.312,50.316,82.558,49.974,82.805z"/>
		<path fill="#212020" d="M60.988,75.06c0.324-0.338,0.65-0.676,0.978-1.013C61.638,74.384,61.312,74.722,60.988,75.06z"/>
		<path fill="#262626" d="M47.976,83.804c0.363-0.23,0.729-0.46,1.092-0.689C48.705,83.344,48.341,83.573,47.976,83.804z"/>
		<path fill="#1F1F1F" d="M44.982,84.964c0.324-0.313,0.648-0.629,0.976-0.941c0,0.223,0.006,0.444,0.014,0.666
			C45.64,84.78,45.312,84.872,44.982,84.964z"/>
		<path fill="#262626" d="M45.97,84.688c-0.01-0.222-0.014-0.443-0.014-0.666c0.354,0.018,0.711,0.033,1.064,0.051
			C46.675,84.278,46.322,84.483,45.97,84.688z"/>
		<path fill="#1F1F1F" d="M42.967,86.015c0.439-0.275,0.881-0.553,1.32-0.829C43.847,85.462,43.408,85.739,42.967,86.015z"/>
		<path fill="#222222" d="M91.089,53.189c0.317-0.366,0.637-0.733,0.953-1.102C91.722,52.454,91.406,52.823,91.089,53.189z"/>
		<path fill="#1F1F1F" d="M36.984,88.944c0.467-0.238,0.935-0.478,1.401-0.717C37.919,88.467,37.451,88.706,36.984,88.944z"/>
		<path fill="#212020" d="M55.996,78.944c0.408-0.269,0.816-0.537,1.226-0.805C56.812,78.407,56.404,78.676,55.996,78.944z"/>
		<path d="M73.29,36.193c-0.421-0.299-0.843-0.598-1.264-0.896c1.948-0.768,3.897-1.534,5.846-2.301
			c1.774-0.019,3.551-0.035,5.323-0.053c0.586,0.065,1.172,0.133,1.758,0.198c-2.336,0.569-4.671,1.14-7.006,1.709
			c-0.678,0.325-1.354,0.649-2.03,0.975c-0.312,0.092-0.619,0.184-0.931,0.274C74.423,36.131,73.855,36.162,73.29,36.193z"/>
		<path fill="#272727" d="M77.947,34.851c2.335-0.569,4.67-1.14,7.006-1.709c1.759,0.588,3.517,1.177,5.273,1.765
			c-0.4,0.354-0.799,0.71-1.199,1.067c-0.354,0.054-0.706,0.106-1.061,0.159C84.628,35.705,81.287,35.277,77.947,34.851z"/>
		<path fill="#343434" d="M51.212,10.094c0.282-0.729,0.565-1.458,0.851-2.188c0.01,2.765,0.02,5.527,0.026,8.292
			c-0.326-0.369-0.651-0.737-0.979-1.105c-0.09-0.354-0.18-0.708-0.27-1.062c-0.015-1.336-0.024-2.671-0.039-4.006L51.212,10.094z"
			/>
		<path d="M89.027,35.973c0.4-0.356,0.799-0.712,1.199-1.067c0.307-0.033,0.551,0.078,0.729,0.332
			c0.346,0.271,0.691,0.542,1.038,0.813l-0.004-0.002c0.306,0.351,0.607,0.7,0.91,1.052l0.025,0.048
			c0.014,0.632,0.024,1.265,0.039,1.896l0.01-0.01c-0.239-0.067-0.473-0.053-0.7,0.047c-0.761-0.68-1.521-1.356-2.282-2.035
			c-0.36-0.243-0.725-0.487-1.086-0.729L89.027,35.973z"/>
		<path fill="#272727" d="M83.195,32.943c-1.772,0.018-3.549,0.034-5.321,0.053C79.646,32.978,81.423,32.959,83.195,32.943z"/>
		<path d="M51.108,15.094c0.327,0.368,0.653,0.736,0.979,1.105c-0.066,0.607-0.136,1.216-0.201,1.824
			c-0.301,0.055-0.604,0.063-0.906,0.023l0.021,0.02c-0.027-0.699-0.055-1.398-0.08-2.098
			C50.892,15.658,50.958,15.367,51.108,15.094z"/>
		<path fill="#3E3D3D" d="M50.98,18.048c0.303,0.038,0.605,0.029,0.906-0.024c-0.252,0.748-0.504,1.495-0.756,2.244
			C51.083,19.528,51.031,18.788,50.98,18.048z"/>
		<path fill="#0C0C0C" d="M93.8,39.096c0.182,0.253,0.283,0.535,0.308,0.845c-0.054,0.369-0.104,0.738-0.156,1.107l0.041-0.032
			c-0.355,0.013-0.715,0.026-1.07,0.039c0.061-0.319,0.078-0.644,0.051-0.968c0.002-0.352,0.004-0.701,0.006-1.053l-0.01,0.008
			l0.414,0.068L93.8,39.096z"/>
		<path fill="#343434" d="M93.8,39.096l-0.42,0.015l-0.414-0.066c-0.014-0.631-0.024-1.264-0.039-1.896
			C93.217,37.798,93.508,38.447,93.8,39.096z"/>
		<path fill="#161616" d="M50.145,22.415c0.229-0.449,0.46-0.9,0.69-1.352C50.605,21.514,50.376,21.965,50.145,22.415z"/>
		<path fill="#6A6A6A" d="M93.949,41.048c0.054-0.369,0.104-0.738,0.156-1.107c0.201,0.411,0.404,0.821,0.605,1.231l-0.396,0.021
			L93.949,41.048z"/>
		<path fill="#343434" d="M92.9,37.101c-0.303-0.352-0.604-0.701-0.91-1.052C92.296,36.4,92.597,36.75,92.9,37.101z"/>
		<path fill="#343434" d="M91.994,36.051c-0.347-0.271-0.692-0.542-1.039-0.813C91.301,35.509,91.647,35.781,91.994,36.051z"/>
		<path fill="none" d="M66.353,64.014c-1.469,2.312-2.938,4.622-4.406,6.933c-0.3,0.379-0.6,0.756-0.897,1.135l-0.035,0.041
			c-0.275,0.308-0.553,0.611-0.828,0.916c-0.737,0.715-1.475,1.431-2.211,2.146c-0.358,0.274-0.719,0.552-1.076,0.825l0.05-0.034
			c-0.438,0.313-0.877,0.631-1.313,0.944c-0.334-0.055-0.559,0.076-0.672,0.396c-0.314,0.254-0.629,0.506-0.943,0.758l-0.02,0.01
			c-0.412,0.289-0.826,0.578-1.24,0.867c-0.326-0.067-0.584,0.037-0.771,0.313c-0.395,0.238-0.787,0.479-1.182,0.718
			c-0.334-0.079-0.604,0.019-0.813,0.296c-0.385,0.237-0.771,0.477-1.154,0.715c-0.354-0.054-0.635,0.064-0.846,0.354
			c-0.348,0.231-0.695,0.466-1.045,0.698c-0.318,0.119-0.641,0.238-0.961,0.355c-0.38,0.197-0.76,0.395-1.142,0.596l-0.482-0.004
			l-0.381,0.297c-0.434,0.211-0.868,0.422-1.303,0.633l-0.392-0.027l-0.305,0.247c-0.646,0.315-1.292,0.633-1.938,0.949
			l-0.039,0.017c-0.415,0.283-0.829,0.566-1.243,0.85c-0.33-0.041-0.59,0.074-0.781,0.349c-0.368,0.235-0.734,0.476-1.103,0.71
			c-0.301,0.113-0.603,0.229-0.902,0.346c-0.385,0.209-0.77,0.418-1.155,0.629c-6.868,0.672-13.726,1.565-20.61,1.897
			c-2.415,0.114-4.896-1.146-7.347-1.778c0.389-0.386,0.775-0.771,1.162-1.152c2.734,0.801,5.428,1.27,7.804-0.932
			c0.059-0.322,0.116-0.646,0.176-0.969c-0.075-0.337-0.15-0.675-0.226-1.014c-0.262-0.271-0.523-0.543-0.785-0.813l-0.309-0.308
			l-0.434,0.032c-0.416-0.211-0.832-0.422-1.248-0.635c-2.401-0.813-4.803-1.629-7.546-2.561c0.801-4.143,1.721-8.903,2.642-13.665
			c0.96-2.781,1.762-5.636,2.983-8.298c0.354-0.772,1.906-0.995,2.909-1.471c1.364,0.502,2.729,1.004,4.092,1.508
			c2.96,0.033,5.922,0.063,8.883,0.099c1.049-0.547,2.097-1.095,3.145-1.642c0.29-0.162,0.579-0.323,0.869-0.485
			c0.338-0.241,0.677-0.481,1.016-0.724c0.676-0.058,1.353-0.111,2.028-0.166c0.612,1.203,1.225,2.406,1.836,3.607
			c0.106,0.833,0.212,1.666,0.318,2.499c0.481,0.712,0.962,1.423,1.443,2.132c0.392,0.353,0.782,0.702,1.174,1.055
			c0.232,0.334,0.466,0.668,0.7,1.004c0.465,0.371,0.93,0.742,1.395,1.115c0.348,0.252,0.696,0.502,1.044,0.754
			c1.021,0.303,2.045,0.604,3.066,0.906c2.662-0.013,5.322-0.022,7.984-0.035c0.328-0.006,0.658-0.016,0.986-0.021
			c0.321-0.003,0.643-0.005,0.964-0.008c0.683-0.239,1.361-0.479,2.043-0.721c0.325-0.088,0.648-0.176,0.976-0.266
			c0.366-0.184,0.733-0.367,1.103-0.552c0.305-0.197,0.608-0.394,0.913-0.591c0.346-0.577,0.691-1.155,1.035-1.733
			c0.383-0.673,0.766-1.347,1.146-2.021c0.62-0.334,1.239-0.666,1.859-1c0.336-0.062,0.672-0.119,1.008-0.18
			c0.611,0.613,1.225,1.229,1.837,1.844C66.691,63.144,66.523,63.579,66.353,64.014z"/>
		<path fill="none" d="M67.033,55.05c-0.024,1.302-0.051,2.604-0.075,3.906c-1.621-0.012-3.242-0.021-4.863-0.031l-0.023,0.064
			c-0.334-0.322-0.669-0.646-1.003-0.969c-0.683-0.354-1.363-0.709-2.045-1.063c-0.683-0.271-1.363-0.541-2.045-0.813
			c-0.322-0.073-0.646-0.149-0.968-0.228c-0.356-0.223-0.715-0.443-1.071-0.666c-0.326-0.023-0.652-0.049-0.979-0.07
			c-0.318-0.016-0.641-0.027-0.959-0.042c-1.891-0.433-3.779-0.858-5.672-1.291c-1.133-0.215-2.266-0.433-3.396-0.646
			c-2.383,0.184-4.767,0.367-7.15,0.549c-0.909-0.021-1.819-0.045-2.729-0.067c-0.318-0.218-0.636-0.435-0.954-0.651
			c-0.129-0.651-0.258-1.305-0.388-1.957c-0.576-0.666-1.151-1.334-1.728-2c-0.657-0.357-1.313-0.717-1.972-1.074
			c-0.817-0.32-1.634-0.643-2.452-0.965c-0.831-0.442-1.662-0.889-2.493-1.332c-1.364-0.53-2.728-1.062-4.092-1.595
			c-0.325-0.029-0.649-0.06-0.974-0.09c-1.608-0.793-1.955-1.908-0.951-3.445c1.899-2.912,3.743-5.86,5.657-8.763
			c3.061-4.641,8.078-4.257,12.573-4.331c7.021-0.114,13.812,1.399,20.188,4.595c3.322,1.664,5.686,4.048,6.66,7.601
			C64.525,44.775,65.74,49.922,67.033,55.05z"/>
		<path fill="none" d="M68.939,49.149c0.351,0.375,0.994,0.74,1.005,1.123c0.079,2.926,0.035,5.854,0.028,8.782
			c-0.271-0.002-0.545-0.003-0.816-0.002c-0.124-0.327-0.248-0.653-0.372-0.979c0.016-0.346,0.028-0.688,0.042-1.035
			C68.863,54.409,68.901,51.778,68.939,49.149z"/>
		<path fill="#535252" d="M13.889,55.276c2.113,0.524,4.227,1.051,6.34,1.576c-0.714,0.326-1.428,0.653-2.142,0.98
			c-1.364-0.504-2.729-1.006-4.092-1.508C13.961,55.976,13.925,55.626,13.889,55.276z"/>
		<path fill="#050400" d="M47.785,22.043c-0.936,0.93-1.868,1.857-2.806,2.787c-0.034-0.313-0.048-0.626-0.039-0.939
			c0.63-0.626,1.261-1.252,1.89-1.877L47.309,22L47.785,22.043z"/>
		<path fill="none" d="M72.027,37.357c0.306-0.105,0.607-0.213,0.912-0.318c0.347,0.242,0.693,0.484,1.039,0.729
			c-0.336,0.422-0.672,0.844-1.008,1.266c-0.262,0.051-0.522,0.105-0.783,0.166c-0.404-0.053-0.809-0.104-1.213-0.154L71,39.07
			c0.063-0.301,0.078-0.604,0.045-0.908l0.059-0.047C71.411,37.861,71.719,37.609,72.027,37.357z"/>
		<path fill="none" d="M73.978,37.766c-0.346-0.243-0.692-0.485-1.039-0.729c0.131-0.275,0.248-0.558,0.351-0.844
			c0.565-0.031,1.133-0.063,1.696-0.094c0,0.307-0.004,0.609-0.011,0.916C74.642,37.266,74.31,37.516,73.978,37.766z"/>
		<path fill="#3E3D3D" d="M50.149,18.111c0.257-0.714,0.514-1.428,0.771-2.142c0.025,0.698,0.053,1.397,0.08,2.098l-0.429-0.016
			L50.149,18.111z"/>
		<path fill="#B9B9B9" d="M9.276,50.983c0.458-0.004,0.917-0.007,1.376-0.011c-0.567,0.381-1.137,0.763-1.705,1.144
			C9.056,51.739,9.167,51.36,9.276,50.983z"/>
		<path fill="#010101" d="M49.339,19.988c-0.348,0.384-0.69,0.769-1.037,1.152c-0.379-0.021-0.758-0.039-1.135-0.06
			c-0.104-0.274-0.117-0.556-0.039-0.841c0.28-0.049,0.559-0.112,0.832-0.189c0.285-0.013,0.57,0.004,0.854,0.049l0.284,0.052
			L49.339,19.988z"/>
		<path fill="none" d="M26.085,23.23c0.001,0.547,0.003,1.094,0.005,1.641C26.089,24.324,26.087,23.777,26.085,23.23z"/>
		<path fill="#3E3D3D" d="M49.279,19.139c0.234,0.008,0.459-0.039,0.673-0.14c-0.203,0.329-0.408,0.658-0.613,0.987l-0.24,0.163
			l-0.283-0.052C48.969,19.779,49.126,19.458,49.279,19.139z"/>
		<path fill="none" d="M47.167,21.081c0.377,0.021,0.756,0.039,1.135,0.06c-0.172,0.301-0.344,0.603-0.517,0.903L47.308,22
			l-0.479,0.015C46.942,21.703,47.052,21.392,47.167,21.081z"/>
		<path fill="none" d="M29.002,25.119c0.323-0.041,0.648-0.082,0.973-0.123C29.65,25.036,29.325,25.078,29.002,25.119z"/>
		<path d="M70.001,41.326c0.312-0.178,0.623-0.354,0.935-0.533c0.008,0.391,0.015,0.779,0.021,1.168
			c-0.199,0.298-0.479,0.453-0.84,0.467C70.077,42.059,70.038,41.693,70.001,41.326z"/>
		<path d="M19.963,45.185c-0.324-0.096-0.647-0.189-0.972-0.285c0.002-0.293,0.004-0.587,0.008-0.88
			c0.324,0.03,0.648,0.06,0.974,0.091C19.969,44.468,19.966,44.828,19.963,45.185z"/>
		<path fill="#010101" d="M71.048,38.16c0.033,0.306,0.02,0.607-0.045,0.908c-0.199,0.064-0.402,0.108-0.608,0.131
			c-0.177-0.108-0.365-0.183-0.568-0.22C70.232,38.707,70.638,38.434,71.048,38.16z"/>
		<path fill="#CFCECE" d="M72.027,37.357c-0.309,0.252-0.616,0.504-0.924,0.758C71.411,37.861,71.719,37.609,72.027,37.357z"/>
		<path fill="#191819" d="M15.833,86.022c-2.377,2.199-5.07,1.73-7.804,0.93c-0.027-0.266-0.072-0.526-0.131-0.789l0.229-0.41
			c0.269-0.155,0.537-0.313,0.805-0.469c1.767-0.082,3.534-0.164,5.3-0.246c0.29-0.008,0.579,0.006,0.867,0.041
			C15.344,85.394,15.589,85.708,15.833,86.022z"/>
		<path fill="none" d="M7.899,86.163c0.06,0.261,0.104,0.521,0.131,0.789c-0.387,0.383-0.773,0.769-1.162,1.151
			c-0.318-0.354-0.639-0.71-0.959-1.063l0.192,0.172l0.22-0.133c0.224-0.346,0.447-0.689,0.67-1.033
			C7.292,86.098,7.594,86.137,7.899,86.163z"/>
		<path fill="#6A6969" d="M7.522,84.04c-0.058-0.508-0.116-1.02-0.173-1.527c0.544,0.098,1.088,0.193,1.631,0.292l-0.02,0.462
			c-0.243,0.252-0.485,0.503-0.728,0.755l-0.354,0.056L7.522,84.04z"/>
		<path fill="#6A6969" d="M5.907,87.04c-0.266-0.78-0.531-1.563-0.797-2.344c0.292,0.109,0.583,0.223,0.875,0.334
			c0.112,0.683,0.224,1.363,0.335,2.049l-0.22,0.133L5.907,87.04z"/>
		<path fill="#1F1F1F" d="M40.049,85.09c0.646-0.316,1.292-0.634,1.938-0.949C41.341,84.456,40.694,84.773,40.049,85.09z"/>
		<path fill="none" d="M6.321,87.079c-0.111-0.686-0.223-1.366-0.335-2.049c0.335,0.338,0.67,0.676,1.005,1.016
			C6.768,86.39,6.544,86.735,6.321,87.079z"/>
		<path fill="#212020" d="M52.758,78.946c0.414-0.289,0.828-0.576,1.24-0.865c-0.011,0.326-0.016,0.652-0.016,0.979
			C53.576,79.021,53.169,78.983,52.758,78.946z"/>
		<path fill="#1F1F1F" d="M50.804,79.977c0.395-0.239,0.787-0.479,1.182-0.718C51.592,79.497,51.199,79.737,50.804,79.977z"/>
		<path fill="#262626" d="M48.841,80.987c0.385-0.238,0.771-0.478,1.153-0.716C49.609,80.51,49.224,80.747,48.841,80.987z"/>
		<path fill="#262626" d="M46.949,82.04c0.349-0.233,0.697-0.467,1.045-0.699C47.646,81.573,47.298,81.807,46.949,82.04z"/>
		<path fill="#101010" d="M13.009,82.319c0.416,0.213,0.832,0.424,1.248,0.635C13.841,82.743,13.425,82.532,13.009,82.319z"/>
		<path fill="#262626" d="M44.847,82.991c0.381-0.199,0.761-0.396,1.141-0.596C45.608,82.594,45.228,82.792,44.847,82.991z"/>
		<path fill="#101010" d="M14.997,83.228c0.263,0.271,0.524,0.543,0.786,0.814C15.521,83.771,15.26,83.499,14.997,83.228z"/>
		<path fill="#1F1F1F" d="M42.681,83.917c0.434-0.211,0.867-0.422,1.302-0.633C43.55,83.495,43.115,83.706,42.681,83.917z"/>
		<path d="M8.037,84.903c0.346,0.019,0.645,0.146,0.896,0.381c-0.269,0.155-0.538,0.313-0.805,0.469
			C8.064,85.473,8.033,85.189,8.037,84.903z"/>
		<path d="M15.833,86.022c-0.244-0.314-0.489-0.629-0.733-0.943c0.303-0.008,0.605-0.018,0.909-0.023
			C15.949,85.376,15.891,85.7,15.833,86.022z"/>
		<path fill="#1F1F1F" d="M38.766,85.956c0.415-0.283,0.829-0.566,1.243-0.852C39.595,85.39,39.181,85.673,38.766,85.956z"/>
		<path fill="#1F1F1F" d="M36.883,87.013c0.368-0.236,0.734-0.475,1.103-0.71C37.617,86.538,37.251,86.776,36.883,87.013z"/>
		<path fill="#1F1F1F" d="M34.825,87.985c0.386-0.209,0.771-0.418,1.155-0.629C35.595,87.567,35.211,87.776,34.825,87.985z"/>
		<path fill="#E7E6E6" d="M40.954,5.738"/>
		<path fill="#E7E6E6" d="M47.949,7.218c0.047,0.236,0.078,0.476,0.093,0.716c-0.351,0.038-0.701,0.076-1.052,0.114
			c0,0,0.111-0.129,0.111-0.128c-0.723-0.221-1.444-0.441-2.166-0.662c-0.635-0.005-1.27-0.011-1.904-0.016
			c-0.594-0.01-1.188-0.018-1.782-0.025"/>
		<path fill="#D0D0D0" d="M49.923,8.251c0.431,0.614,0.858,1.229,1.289,1.843l-0.41-0.066c-0.268,0.049-0.535,0.059-0.807,0.028
			c-0.259-0.045-0.521-0.057-0.781-0.038c-0.039-0.34-0.078-0.68-0.115-1.02C49.371,8.749,49.646,8.5,49.923,8.251z"/>
		<path fill="#F6F6F6" d="M48.943,8.088l0.09-0.068c-0.366,0.036-0.733,0.073-1.104,0.11l0.112-0.195"/>
		<path fill="none" d="M49.923,8.251c-0.274,0.249-0.552,0.498-0.824,0.747l-0.155,0.095c0.03-0.356,0.063-0.716,0.092-1.073
			l-0.09,0.068C49.269,8.143,49.595,8.198,49.923,8.251z"/>
		<path fill="#B9B9B9" d="M9.718,46.683c-0.169,0.467-0.339,0.932-0.508,1.396C9.38,47.614,9.549,47.149,9.718,46.683z"/>
		<path fill="none" d="M36.18,8.176C36.452,8.146,36.725,8.127,37,8.118c-0.151,0.178-0.135,0.337,0.054,0.477
			c0.021,0.29,0.06,0.577,0.117,0.862c-0.022,0.217-0.072,0.427-0.15,0.629c-0.308,0.347-0.617,0.692-0.925,1.039l-0.046,0.046
			c-0.324,0.31-0.649,0.618-0.974,0.927c-0.305,0.338-0.608,0.676-0.913,1.015c-0.335,0.339-0.67,0.678-1.005,1.017l-0.417-0.143
			c-0.322,0.287-0.646,0.575-0.967,0.864c-0.26,0.406-0.521,0.811-0.781,1.215l0.002-0.004c-0.33-0.009-0.661-0.005-0.991,0.01
			l-0.169-0.146c0.013-0.303,0.008-0.603-0.015-0.905c0.323-0.683,0.646-1.365,0.969-2.049l0.298,0.122
			c0.302-0.343,0.604-0.687,0.906-1.029l0.003-0.005c0.337-0.322,0.673-0.646,1.01-0.972l0.017-0.015
			c0.327-0.28,0.653-0.561,0.98-0.839C34.727,9.549,35.453,8.863,36.18,8.176z"/>
		<path fill="#E1E0E1" d="M34.001,10.236c-0.327,0.278-0.653,0.559-0.98,0.839C33.347,10.794,33.675,10.515,34.001,10.236z"/>
		<path fill="#E1E0E1" d="M33.004,11.089c-0.336,0.324-0.672,0.648-1.01,0.972C32.332,11.738,32.668,11.413,33.004,11.089z"/>
		<path fill="#E1E0E1" d="M31.991,12.065c-0.303,0.344-0.604,0.688-0.906,1.029c-0.021-0.343-0.041-0.687-0.063-1.029
			C31.345,12.169,31.669,12.169,31.991,12.065z"/>
		<path fill="none" d="M26.902,21.034c0.181-0.262,0.229-0.545,0.145-0.851c0.333-0.025,0.667-0.051,1.001-0.076l-0.113-0.108
			c0.068,0.362,0.136,0.726,0.204,1.087c-0.043,0.325-0.086,0.651-0.129,0.978C27.639,21.719,27.271,21.375,26.902,21.034z"/>
		<path fill="#151515" d="M28.008,22.062c0.043-0.325,0.086-0.651,0.129-0.978c0.353,0.007,0.706,0.013,1.058,0.02
			c-0.011,0.342-0.115,0.653-0.312,0.933C28.592,22.043,28.3,22.052,28.008,22.062z"/>
		<path fill="none" d="M29.201,18.284c0.21-0.785,0.422-1.571,0.632-2.356c0,0,0.169,0.146,0.168,0.146
			c0.023,0.384,0.048,0.77,0.072,1.153c-0.049,0.284-0.053,0.569-0.011,0.855c-0.317,0.03-0.635,0.061-0.952,0.09L29.201,18.284z"/>
		<path fill="none" d="M28.047,20.107c0.026-0.662,0.054-1.324,0.081-1.987c0.357,0.055,0.714,0.108,1.073,0.163
			c0.001,0.001-0.09-0.111-0.091-0.112c0.12,0.288,0.182,0.591,0.181,0.903c-0.125,0.323-0.25,0.646-0.375,0.969
			c-0.33,0.047-0.657,0.031-0.982-0.044L28.047,20.107z"/>
		<path fill="#212121" d="M62.092,58.925c1.621,0.011,3.244,0.021,4.865,0.031c-0.646,0.636-1.289,1.271-1.936,1.906
			c-0.336,0.062-0.673,0.121-1.009,0.18c-0.625-0.238-1.25-0.479-1.873-0.717C62.126,59.858,62.109,59.392,62.092,58.925z"/>
		<path fill="#212121" d="M68.784,58.073c0.124,0.326,0.248,0.652,0.372,0.979c-0.147,0.291-0.172,0.593-0.071,0.903l-0.177,0.146
			C68.867,59.426,68.826,58.749,68.784,58.073z"/>
		<path fill="#212121" d="M66.353,64.014c0.17-0.435,0.338-0.87,0.507-1.306C66.691,63.144,66.523,63.579,66.353,64.014z"/>
		<path fill="#212020" d="M61.05,72.079c0.299-0.377,0.6-0.756,0.897-1.133C61.647,71.325,61.347,71.702,61.05,72.079z"/>
		<path fill="#212020" d="M60.184,73.036c0.276-0.306,0.553-0.608,0.829-0.914C60.737,72.428,60.462,72.733,60.184,73.036z"/>
		<path fill="#212020" d="M56.897,76.007c0.358-0.275,0.718-0.551,1.077-0.825C57.615,75.456,57.257,75.731,56.897,76.007z"/>
		<path fill="#212020" d="M55.633,76.919c0.438-0.315,0.875-0.631,1.313-0.946C56.508,76.288,56.07,76.604,55.633,76.919z"/>
		<path fill="#212020" d="M54.017,78.069c0.314-0.252,0.629-0.504,0.943-0.756C54.646,77.565,54.333,77.817,54.017,78.069z"/>
		<path fill="#222222" d="M91.015,50.071c0.287-0.408,0.574-0.818,0.861-1.228C91.591,49.253,91.302,49.661,91.015,50.071z"/>
		<path fill="#222222" d="M92.2,48.073c0.206-0.439,0.413-0.881,0.62-1.32C92.613,47.192,92.406,47.632,92.2,48.073z"/>
		<path fill="#181818" d="M85.08,56.099c0.304-0.255,0.607-0.51,0.91-0.766C85.687,55.589,85.383,55.844,85.08,56.099z"/>
		<path fill="#181818" d="M83.883,57.008c0.381-0.292,0.762-0.584,1.144-0.877c-0.005,0.306-0.021,0.608-0.052,0.913
			C84.611,57.032,84.249,57.02,83.883,57.008z"/>
		<path fill="#222222" d="M90.244,51.075c0.255-0.328,0.509-0.658,0.763-0.985C90.753,50.417,90.499,50.745,90.244,51.075z"/>
		<path fill="#010101" d="M92.078,42.824c-0.346-0.601-0.69-1.201-1.036-1.802c0.342,0.011,0.684,0.021,1.023,0.032l0.427-0.023
			l0.427,0.024c0.356-0.013,0.715-0.026,1.071-0.039c-0.039,0.358-0.078,0.718-0.116,1.077c-0.268-0.014-0.533-0.028-0.801-0.047
			C92.741,42.305,92.41,42.565,92.078,42.824z"/>
		<path fill="#808080" d="M93.073,42.046c0.268,0.019,0.533,0.033,0.801,0.047c-0.25,0.678-0.5,1.355-0.75,2.033
			c-0.188-0.293-0.24-0.605-0.152-0.942C93.007,42.805,93.04,42.425,93.073,42.046z"/>
		<path fill="none" d="M75.917,35.826c-0.013,0.328,0.025,0.65,0.111,0.969c-0.351,0.074-0.702,0.148-1.053,0.223
			c0.007-0.307,0.011-0.609,0.011-0.916C75.298,36.008,75.605,35.916,75.917,35.826z"/>
		<path fill="none" d="M88.003,36.902c0.006-0.258-0.007-0.514-0.033-0.77c0.354-0.053,0.705-0.105,1.06-0.159l-0.121,0.342
			c0.021,0.235,0.053,0.472,0.094,0.704C88.667,36.98,88.335,36.941,88.003,36.902z"/>
		<path fill="none" d="M49.995,10.056c0.271,0.029,0.539,0.021,0.807-0.028c0.015,1.335,0.024,2.67,0.039,4.006l-0.334,0.009
			l-0.332-0.014C50.114,12.703,50.054,11.38,49.995,10.056z"/>
		<path fill="#010101" d="M89.992,37.044c0.763,0.68,1.521,1.357,2.282,2.035c-0.169-0.109-0.349-0.135-0.54-0.076
			c-0.276,0.06-0.561,0.087-0.846,0.082c-0.336-0.012-0.672-0.022-1.008-0.034l0.098,0.112c0.002-0.36,0.002-0.721,0.004-1.082
			C89.985,37.738,89.988,37.391,89.992,37.044z"/>
		<path fill="#343434" d="M92.974,39.035c-0.002,0.353-0.004,0.703-0.006,1.054c-0.344-0.021-0.688-0.042-1.033-0.063l0.063,0.094
			c-0.09-0.371-0.179-0.742-0.268-1.113c0.192-0.061,0.373-0.034,0.542,0.076C92.503,38.982,92.735,38.966,92.974,39.035z"/>
		<path fill="#181717" d="M18.088,57.833c0.714-0.327,1.428-0.654,2.142-0.98c0.93,0,1.86,0,2.7,0
			c0.719-2.08,1.372-3.971,2.024-5.861c0.012,0.229,0.104,0.416,0.273,0.565c0.132,0.205,0.318,0.347,0.557,0.424
			c0.024,0.333,0.003,0.662-0.063,0.989c-0.189,0.654-0.378,1.311-0.567,1.966c0.239,0.313,0.478,0.629,0.716,0.944
			c0.367,0.684,0.733,1.367,1.101,2.052C24.009,57.899,21.048,57.866,18.088,57.833z"/>
		<path fill="#282828" d="M52.992,67.952c-2.662,0.013-5.323,0.022-7.983,0.035c0.377-0.338,0.754-0.68,1.131-1.019
			c2.285,0.067,4.57,0.137,6.854,0.205C52.988,67.436,52.988,67.694,52.992,67.952z"/>
		<path fill="#080808" d="M36.184,61.024c-0.106-0.834-0.212-1.666-0.318-2.5c0.388-1.162,0.773-2.326,1.16-3.488
			c0.195,0.002,0.384-0.033,0.566-0.104l0.376,0.111c-0.215,1.975-0.43,3.949-0.645,5.925
			C36.944,60.987,36.564,61.005,36.184,61.024z"/>
		<path d="M62.092,58.925c0.018,0.467,0.033,0.934,0.049,1.4c0.006,0.57,0.012,1.146,0.016,1.717
			c-0.381,0.675-0.764,1.349-1.146,2.021c-0.273-0.005-0.549-0.007-0.824-0.005c0.225-0.589,0.449-1.178,0.674-1.768
			c0.404-1.102,0.808-2.2,1.21-3.303L62.092,58.925z"/>
		<path fill="#0C0C0C" d="M37.025,55.034c-0.387,1.164-0.772,2.326-1.16,3.489c-0.611-1.202-1.224-2.405-1.836-3.608
			c0.006-0.409,0.014-0.819,0.021-1.229c0.91,0.021,1.819,0.046,2.729,0.067c0.066,0.197,0.165,0.378,0.296,0.537
			C37.021,54.536,37.005,54.784,37.025,55.034z"/>
		<path fill="#434243" d="M46.138,66.971c-0.377,0.339-0.756,0.679-1.133,1.019c-1.021-0.303-2.045-0.604-3.066-0.906
			c0.667-0.291,1.334-0.582,2.002-0.87C44.675,66.464,45.406,66.717,46.138,66.971z"/>
		<path fill="#1F1E1E" d="M26.971,57.932c-0.367-0.685-0.733-1.368-1.101-2.052c0,0,0.036,0.142,0.037,0.142
			c0.39,0.005,0.776,0.011,1.163,0.015c0.992,0.021,1.983,0.039,2.975,0.06l0.071,0.196C29.068,56.837,28.02,57.385,26.971,57.932z"
			/>
		<path fill="#101010" d="M43.941,66.21c-0.668,0.291-1.335,0.58-2.002,0.871c-0.348-0.252-0.696-0.502-1.044-0.754
			c-0.077-0.367-0.154-0.734-0.23-1.104l0.297-0.146C41.954,65.456,42.947,65.833,43.941,66.21z"/>
		<path fill="#232323" d="M36.184,61.024c0.38-0.02,0.76-0.037,1.14-0.056c0.491,0.703,0.983,1.407,1.476,2.11
			c-0.392,0.024-0.781,0.051-1.171,0.074C37.146,62.444,36.666,61.735,36.184,61.024z"/>
		<path fill="#404041" d="M34.05,53.685c-0.007,0.41-0.014,0.82-0.021,1.23c-0.676,0.055-1.353,0.109-2.028,0.166
			c-0.04-0.352-0.08-0.699-0.12-1.049c0.218-0.334,0.436-0.67,0.653-1.004l0.281-0.173l0.279,0.177
			C33.413,53.249,33.731,53.467,34.05,53.685z"/>
		<path fill="none" d="M62.156,62.042c-0.004-0.571-0.01-1.146-0.016-1.717c0.625,0.237,1.25,0.479,1.875,0.717
			C63.395,61.376,62.776,61.71,62.156,62.042z"/>
		<path fill="#5D5C5D" d="M56.985,67.204c-0.681,0.24-1.361,0.479-2.043,0.72c0.007-0.353,0.013-0.705,0.021-1.058
			c0.364-0.199,0.731-0.396,1.099-0.598c0.354,0.165,0.71,0.329,1.063,0.494l0.082,0.27L56.985,67.204z"/>
		<path d="M31.881,54.032c0.04,0.352,0.08,0.699,0.12,1.049c-0.339,0.242-0.678,0.482-1.016,0.726
			c0.006-0.224,0.016-0.442,0.027-0.664c0.082-0.36,0.163-0.724,0.244-1.083C31.466,54.058,31.674,54.049,31.881,54.032z"/>
		<path d="M39.501,65.212c-0.233-0.336-0.467-0.67-0.699-1.004l0.316-0.301c0.614,0.392,1.229,0.78,1.844,1.172l-0.297,0.146
			C40.276,65.221,39.888,65.216,39.501,65.212z"/>
		<path d="M60.185,64.059c0.275-0.002,0.551,0,0.824,0.005c-0.344,0.578-0.689,1.156-1.035,1.733
			c-0.045-0.359-0.088-0.72-0.133-1.078C59.737,64.385,59.851,64.163,60.185,64.059z"/>
		<path fill="#2A2A2A" d="M59.061,66.388c-0.367,0.184-0.734,0.368-1.103,0.552c-0.027-0.317-0.023-0.636,0.014-0.952
			c0.349-0.27,0.695-0.537,1.043-0.807C59.031,65.583,59.048,65.985,59.061,66.388z"/>
		<path d="M31.012,55.141c-0.012,0.222-0.021,0.442-0.027,0.664c-0.29,0.162-0.579,0.323-0.869,0.485l-0.071-0.196
			C30.367,55.776,30.69,55.458,31.012,55.141z"/>
		<path fill="#0C0C0C" d="M37.628,63.155c0.391-0.023,0.78-0.05,1.171-0.074c0.362,0.178,0.47,0.451,0.319,0.826l-0.316,0.301
			C38.409,63.858,38.018,63.506,37.628,63.155z"/>
		<path d="M39.501,65.212c0.388,0.004,0.775,0.009,1.164,0.014c0.076,0.367,0.153,0.734,0.23,1.102
			C40.43,65.954,39.966,65.583,39.501,65.212z"/>
		<path d="M59.061,66.388c-0.015-0.402-0.03-0.805-0.046-1.207c0.184-0.318,0.459-0.473,0.826-0.462
			c0.045,0.358,0.088,0.719,0.133,1.078C59.673,65.993,59.366,66.19,59.061,66.388z"/>
		<path d="M57.972,65.987c-0.037,0.316-0.041,0.635-0.014,0.952c-0.324,0.089-0.648,0.177-0.976,0.267l0.224-0.174l-0.082-0.268
			c-0.055-0.184-0.088-0.37-0.099-0.561C57.322,66.036,57.636,65.964,57.972,65.987z"/>
		<path fill="#1F1E1E" d="M52.992,67.952c-0.004-0.258-0.004-0.519,0.002-0.776c0.328-0.017,0.658-0.031,0.988-0.048
			c0.001,0.269,0,0.535-0.004,0.804C53.65,67.938,53.32,67.946,52.992,67.952z"/>
		<path fill="#2A2A2A" d="M53.978,67.932c0.004-0.269,0.005-0.535,0.004-0.804c0.326-0.088,0.652-0.174,0.979-0.262
			c-0.008,0.353-0.014,0.705-0.021,1.058C54.621,67.927,54.3,67.929,53.978,67.932z"/>
		<path fill="#252525" d="M47.328,53.85c1.892,0.431,3.781,0.86,5.671,1.291c0.01,0.265,0.012,0.528,0.006,0.794
			c-2.187-0.641-3.229,0.536-3.838,2.409c-0.438-0.354-0.875-0.707-1.313-1.062c-0.249,0-0.495-0.031-0.735-0.097
			c-0.066-0.456-0.136-0.912-0.201-1.366c-0.305-0.285-0.605-0.572-0.91-0.857C46.446,54.592,46.886,54.221,47.328,53.85z"/>
		<path fill="#1A1A1A" d="M36.779,53.753c2.384-0.184,4.769-0.366,7.15-0.549c-0.387,0.334-0.774,0.668-1.162,1.004
			c-1.6,0.277-3.2,0.558-4.8,0.836l-0.376-0.111c-0.172-0.214-0.346-0.428-0.518-0.643C36.944,54.13,36.845,53.95,36.779,53.753z"/>
		<path fill="#2D2C2D" d="M19.963,45.185c0.003-0.357,0.007-0.717,0.01-1.074c1.364,0.531,2.728,1.063,4.092,1.595
			c-0.013,0.394-0.026,0.785-0.039,1.181C22.672,46.319,21.317,45.751,19.963,45.185z"/>
		<path fill="#464545" d="M25.608,49.881c0.415-0.455,0.83-0.91,1.209-1.326c-0.658-0.489-1.291-0.96-1.924-1.433
			c0.555-0.028,1.11-0.059,1.665-0.086c0.817,0.322,1.635,0.644,2.452,0.965l-0.094,0.426c-0.32,0.105-0.641,0.211-0.961,0.316
			c0.105,0.437,0.212,0.871,0.316,1.307c-0.155-0.115-0.316-0.124-0.484-0.028C27.06,49.975,26.334,49.928,25.608,49.881z"/>
		<path fill="#434343" d="M42.767,54.208c0.388-0.336,0.775-0.67,1.162-1.004c1.133,0.215,2.266,0.431,3.396,0.646
			c-0.439,0.371-0.882,0.742-1.322,1.113C44.926,54.71,43.845,54.458,42.767,54.208z"/>
		<path d="M62.069,58.991c-0.402,1.102-0.806,2.201-1.21,3.301c-0.34-0.967-0.682-1.934-1.021-2.899
			c0.408-0.456,0.817-0.912,1.229-1.366C61.4,58.346,61.735,58.667,62.069,58.991z"/>
		<path fill="#0C0C0C" d="M30.98,49.075c0.576,0.668,1.151,1.334,1.728,2.002c-0.349,0.022-0.697,0.047-1.046,0.07
			c-0.227-0.357-0.454-0.715-0.682-1.072c-0.031-0.188-0.059-0.377-0.083-0.564L30.98,49.075z"/>
		<path d="M31.662,51.147c0.35-0.023,0.697-0.048,1.046-0.07c0.129,0.651,0.259,1.305,0.388,1.955l-0.279-0.174l-0.281,0.172
			c-0.358,0.006-0.718,0.014-1.075,0.021C31.526,52.417,31.594,51.782,31.662,51.147z"/>
		<path fill="#4E4D4D" d="M54.937,55.253c0.357,0.223,0.715,0.445,1.072,0.668c0.041,0.326,0.053,0.654,0.033,0.982
			c-0.688-0.267-1.377-0.531-2.064-0.799l-0.102-0.354C54.23,55.587,54.585,55.419,54.937,55.253z"/>
		<path d="M61.066,58.022c-0.41,0.456-0.817,0.912-1.229,1.368c-0.303-0.41-0.604-0.819-0.902-1.229
			c0.014-0.336,0.027-0.672,0.043-1.006l0.043-0.195C59.703,57.313,60.385,57.667,61.066,58.022z"/>
		<path d="M26.557,47.036c-0.555,0.027-1.11,0.058-1.665,0.086c-0.319,0.031-0.608-0.049-0.867-0.237
			c0.013-0.394,0.026-0.787,0.039-1.181C24.896,46.149,25.726,46.593,26.557,47.036z"/>
		<path fill="#1F1E1E" d="M56.976,56.146c0.682,0.271,1.363,0.542,2.045,0.813c0,0-0.043,0.195-0.044,0.195
			c-0.454,0.012-0.909,0.021-1.363,0.032c-0.281,0.146-0.495,0.077-0.636-0.209C56.981,56.702,56.98,56.425,56.976,56.146z"/>
		<path fill="#2A2A2A" d="M29.009,48.001c0.657,0.357,1.313,0.716,1.972,1.074l-0.083,0.434c-0.352-0.146-0.703-0.292-1.054-0.438
			c-0.348,0.194-0.648,0.143-0.906-0.162l-0.022-0.482L29.009,48.001z"/>
		<path fill="#0C0C0C" d="M53.005,55.935c0.006-0.266,0.004-0.529-0.006-0.794c0.319,0.015,0.641,0.026,0.961,0.042
			c-0.015,0.191-0.041,0.382-0.082,0.57l0.103,0.354C53.653,56.049,53.328,55.993,53.005,55.935z"/>
		<path fill="#363535" d="M53.878,55.753c0.041-0.188,0.067-0.379,0.082-0.57c0.325,0.023,0.651,0.047,0.979,0.07
			C54.585,55.419,54.23,55.587,53.878,55.753z"/>
		<path fill="#0C0C0C" d="M56.976,56.146c0.004,0.278,0.005,0.556,0.002,0.833c-0.323,0.115-0.635,0.092-0.936-0.074
			c0.02-0.33,0.008-0.656-0.033-0.982C56.333,55.995,56.654,56.071,56.976,56.146z"/>
		<path fill="#464545" d="M74.974,37.016c0.352-0.073,0.703-0.147,1.054-0.224l0.128,0.24l-0.168,0.213
			c0.396,0.324,0.795,0.649,1.191,0.975c-1.075,0.59-2.15,1.18-3.229,1.77c-0.251-0.175-0.503-0.349-0.755-0.521l-0.229-0.436
			c0.336-0.422,0.672-0.845,1.009-1.267C74.31,37.516,74.642,37.266,74.974,37.016z"/>
		<path fill="#323132" d="M70.955,41.958c-0.007-0.389-0.014-0.776-0.021-1.166c-0.046-0.254-0.032-0.504,0.036-0.75l-0.024-0.051
			c0.415-0.266,0.829-0.529,1.243-0.795c0.26-0.061,0.521-0.115,0.781-0.166l0.229,0.437c-0.053,0.386-0.104,0.772-0.155,1.157
			C72.345,41.07,71.65,41.514,70.955,41.958z"/>
		<path fill="#0C0C0C" d="M89.006,37.998c-0.014,0.302-0.02,0.604-0.021,0.904c-0.667-0.205-1.337-0.414-2.006-0.621
			c-0.267-0.197-0.562-0.326-0.886-0.39c0.313-0.297,0.629-0.594,0.942-0.892c0.331,0.062,0.651,0.027,0.964-0.098"/>
		<path d="M77.179,38.22c-0.396-0.324-0.795-0.648-1.191-0.975c0.302-0.156,0.62-0.23,0.959-0.221
			c0.657,0.301,1.314,0.602,1.974,0.902c-0.311,0.126-0.619,0.252-0.93,0.378l-0.398-0.103L77.179,38.22z"/>
		<path fill="none" d="M70.179,43.139c0.133,0.095,0.264,0.188,0.396,0.282c-0.165-0.059-0.33-0.115-0.496-0.172L70.179,43.139z"/>
		<path fill="#010101" d="M93.073,42.046c-0.033,0.379-0.066,0.759-0.103,1.138c-0.326-0.051-0.623-0.171-0.895-0.36
			C92.41,42.565,92.741,42.305,93.073,42.046z"/>
		<path fill="none" d="M82.964,57.044c-0.147-0.154-0.295-0.311-0.442-0.465c0.095,0.025,0.225,0.023,0.276,0.088
			c0.086,0.1,0.123,0.242,0.181,0.367L82.964,57.044z"/>
		<path fill="#151515" d="M91.935,40.025c0.043,0.344,0.086,0.686,0.13,1.029c-0.343-0.012-0.683-0.021-1.023-0.032
			c-0.013-0.331-0.021-0.661-0.033-0.993c0,0.002-0.076,0.061-0.076,0.061c0.355,0.01,0.713,0.02,1.068,0.029L91.935,40.025z"/>
		<path d="M89.883,39.051c0.336,0.012,0.672,0.022,1.008,0.034c0.015,0.334,0.027,0.668,0.041,1.002l0.076-0.059
			C90.633,39.703,90.258,39.376,89.883,39.051z"/>
		<path fill="#0B0B0B" d="M73.042,40.625c0.053-0.385,0.104-0.771,0.156-1.157c0.252,0.174,0.504,0.348,0.755,0.522
			C73.649,40.203,73.345,40.414,73.042,40.625z"/>
		<path fill="#0C0C0C" d="M88.987,38.904c0.001-0.302,0.007-0.604,0.02-0.904c0.332-0.041,0.655-0.014,0.978,0.084
			c-0.002,0.359-0.002,0.721-0.004,1.08C89.648,39.078,89.318,38.99,88.987,38.904z"/>
		<path fill="none" d="M87.931,53.028c-0.146-0.152-0.287-0.307-0.432-0.459c0.15,0.146,0.305,0.289,0.457,0.437L87.931,53.028z"/>
		<path d="M47.167,21.081c-0.111,0.312-0.225,0.621-0.337,0.934c-0.629,0.625-1.26,1.251-1.89,1.877
			c-0.343-0.277-0.687-0.556-1.03-0.832c0.694-1.333,1.39-2.666,2.082-3.998c0.378,0.394,0.757,0.787,1.136,1.18
			C47.05,20.526,47.061,20.806,47.167,21.081z"/>
		<path fill="#3B3B3B" d="M49.995,10.056c0.061,1.324,0.119,2.647,0.18,3.973c-0.334,0.354-0.666,0.71-1,1.063
			c-0.354-0.019-0.711-0.038-1.067-0.058l-0.195,0.164l-0.229-0.117c0.063-1.332,0.123-2.665,0.185-3.998
			c0.061-0.313,0.1-0.631,0.117-0.95l-0.209-0.258l0.181-0.278c0.421,0.142,0.841,0.281,1.261,0.421
			C49.474,9.999,49.736,10.011,49.995,10.056z"/>
		<path fill="#131213" d="M38.949,9.041c0.635-0.36,1.269-0.72,1.901-1.078c0.654-0.003,1.307-0.006,1.96-0.009
			c0.712,0.047,1.425,0.095,2.136,0.142c0.024,0.281,0.037,0.563,0.035,0.845c-1.662,0.383-3.324,0.764-4.986,1.145
			c0.027-0.183-0.03-0.332-0.175-0.448C39.531,9.438,39.24,9.24,38.949,9.041z"/>
		<path d="M34.162,13.112c0.305-0.339,0.608-0.677,0.913-1.015c0.324-0.309,0.649-0.617,0.974-0.927l0.046-0.046
			c0.338-0.012,0.676-0.024,1.014-0.036c0.268-0.021,0.534-0.039,0.801-0.051c-0.014,0.308-0.008,0.614,0.017,0.921l-0.049,0.038
			c-0.318,0.248-0.638,0.497-0.955,0.745c-0.655,0.411-1.311,0.82-1.964,1.23C34.692,13.687,34.427,13.398,34.162,13.112z"/>
		<path fill="#3D3C3C" d="M47.128,20.241c-0.379-0.393-0.758-0.786-1.136-1.18c0.627-1.052,1.253-2.104,1.882-3.153
			c0.278,0.347,0.559,0.692,0.838,1.039c-0.158,0.713-0.315,1.427-0.478,2.141c-0.092,0.32-0.184,0.643-0.274,0.964
			C47.684,20.127,47.408,20.192,47.128,20.241z"/>
		<path fill="#151515" d="M30.063,18.081c-0.042-0.286-0.039-0.571,0.01-0.856c0.308-0.39,0.614-0.775,0.921-1.162l-0.002,0.004
			l0.407-0.079l0.415,0.021c0.343-0.108,0.688-0.217,1.029-0.324l0.117,0.322c-0.614,0.697-1.229,1.396-1.843,2.095
			C30.765,18.094,30.415,18.086,30.063,18.081z"/>
		<path fill="none" d="M47.865,11.083c-0.061,1.333-0.121,2.666-0.184,3.998C47.744,13.749,47.804,12.416,47.865,11.083z"/>
		<path d="M34.162,13.112c0.266,0.286,0.53,0.574,0.797,0.861c-0.334,0.332-0.668,0.663-1.002,0.994
			c-0.267-0.28-0.532-0.56-0.8-0.84C33.492,13.789,33.827,13.451,34.162,13.112z"/>
		<path fill="#FEF9F9" d="M34.276,23.376c0,0.14,0,0.277,0,0.417c-0.526,0-1.055,0-1.582,0c0-0.139,0-0.277,0-0.417"/>
		<path fill="#181818" d="M44.982,8.94c0.002-0.281-0.01-0.563-0.035-0.845l0.049-0.05c0.702-0.042,1.403-0.084,2.105-0.126
			L46.99,8.049c-0.007,0.349-0.014,0.698-0.02,1.048C46.308,9.045,45.644,8.994,44.982,8.94z"/>
		<path d="M46.97,9.097c0.006-0.35,0.013-0.699,0.02-1.048c0.351-0.038,0.701-0.076,1.052-0.114L47.93,8.13
			c0.009,0.482,0.015,0.965,0.021,1.447l0.002,0.02l-0.18,0.278l0.209,0.258C47.644,9.787,47.306,9.443,46.97,9.097z"/>
		<path fill="#0C0C0C" d="M30.063,18.081c0.352,0.006,0.703,0.014,1.054,0.021c-0.013,0.334-0.025,0.668-0.039,1.001l-0.033,0.057
			l-0.355,0.043c0,0-0.354-0.039-0.355-0.039c-0.349-0.029-0.695-0.06-1.042-0.089c0-0.313-0.061-0.615-0.181-0.903
			C29.428,18.141,29.745,18.112,30.063,18.081z"/>
		<path fill="#363535" d="M27.934,19.998c0.325,0.075,0.652,0.09,0.982,0.044c0.334-0.003,0.668-0.006,1.002-0.009
			c-0.241,0.357-0.481,0.714-0.723,1.07c-0.353-0.007-0.706-0.013-1.058-0.02C28.07,20.723,28.002,20.361,27.934,19.998z"/>
		<path d="M33.156,14.128c0.268,0.28,0.533,0.56,0.799,0.84c-0.331,0.346-0.663,0.691-0.996,1.039l-0.117-0.322
			c-0.003-0.359-0.006-0.719-0.009-1.079c-0.007-0.211-0.037-0.417-0.095-0.619L33.156,14.128z"/>
		<path d="M48.712,16.947c-0.279-0.347-0.56-0.692-0.838-1.039c-0.016-0.314,0.063-0.606,0.231-0.873
			c0.355,0.02,0.713,0.039,1.068,0.058C49.019,15.709,48.865,16.328,48.712,16.947z"/>
		<path fill="none" d="M38.887,11.792c-0.434,0.366-0.867,0.731-1.3,1.099c0.134-0.286,0.229-0.584,0.29-0.894l0.049-0.038
			C38.26,11.985,38.582,11.929,38.887,11.792z"/>
		<path d="M29.918,20.034c-0.334,0.003-0.668,0.006-1.002,0.009c0.125-0.322,0.25-0.646,0.375-0.969
			c0.347,0.029,0.693,0.06,1.042,0.089C30.336,19.52,30.196,19.811,29.918,20.034z"/>
		<path fill="none" d="M31.078,19.102c0.143,0.151,0.285,0.304,0.428,0.456c-0.153-0.133-0.308-0.268-0.461-0.399L31.078,19.102z"/>
		<path fill="#3E3E3E" d="M39.996,10.084c-0.33,0.331-0.661,0.661-0.992,0.991L38.7,10.739c0.374-0.368,0.748-0.735,1.121-1.104
			C39.966,9.752,40.024,9.902,39.996,10.084z"/>
		<path fill="#3E3E3E" d="M38.887,11.792c-0.306,0.137-0.626,0.192-0.961,0.167c-0.024-0.307-0.03-0.613-0.017-0.921
			c0.284-0.045,0.549-0.146,0.791-0.299l0.304,0.336C38.923,11.308,38.884,11.547,38.887,11.792z"/>
		<path fill="#3E3E3E" d="M37.878,11.997c-0.061,0.31-0.156,0.606-0.29,0.894c-0.232-0.002-0.454-0.052-0.665-0.147
			C37.24,12.495,37.558,12.245,37.878,11.997z"/>
		<path fill="#383838" d="M25.608,49.881c0.727,0.047,1.452,0.094,2.178,0.141c0.14,1.087,0.278,2.171,0.417,3.257
			c-0.366-0.412-0.733-0.826-1.101-1.238l-0.307,0.117c-0.188-0.345-0.376-0.688-0.564-1.035c-0.334,0.146-0.669,0.291-1.003,0.437
			c-0.171-0.149-0.262-0.338-0.273-0.563C25.173,50.62,25.39,50.251,25.608,49.881z"/>
		<path fill="none" d="M11.688,46.003"/>
		<path fill="#010101" d="M70.392,39.199c0.207-0.021,0.41-0.064,0.607-0.131l-0.025-0.023c0.02,0.316,0.01,0.633-0.029,0.947
			l0.025,0.051C70.777,39.761,70.587,39.48,70.392,39.199z"/>
		<path fill="#010101" d="M47.96,20.05c0.092-0.321,0.185-0.644,0.274-0.964c0.349,0.018,0.695,0.034,1.043,0.053
			c-0.151,0.319-0.309,0.64-0.464,0.96C48.53,20.054,48.245,20.038,47.96,20.05z"/>
		<path fill="#CFCECE" d="M70.945,39.992c0.039-0.314,0.049-0.631,0.029-0.947c0.404,0.051,0.809,0.102,1.213,0.152
			C71.774,39.462,71.36,39.727,70.945,39.992z"/>
		<path fill="none" d="M8.234,84.021c0.243-0.252,0.485-0.503,0.728-0.755C8.719,83.519,8.476,83.77,8.234,84.021z"/>
		<path fill="#444444" d="M42.811,7.954c-0.653,0.003-1.307,0.006-1.96,0.009c0.144-0.243,0.275-0.491,0.396-0.746
			c0.596,0.01,1.19,0.019,1.784,0.026C42.984,7.489,42.911,7.726,42.811,7.954z"/>
		<path fill="#181818" d="M42.811,7.954c0.1-0.229,0.173-0.466,0.22-0.711c0.636,0.005,1.271,0.011,1.904,0.016
			c0.031,0.262,0.053,0.524,0.061,0.787l-0.049,0.05C44.236,8.049,43.523,8.001,42.811,7.954z"/>
		<path fill="#444444" d="M44.996,8.046c-0.008-0.263-0.028-0.525-0.061-0.787c0.722,0.221,1.443,0.441,2.166,0.662
			C46.399,7.962,45.698,8.004,44.996,8.046z"/>
		<path d="M47.953,9.597l-0.002-0.02c0.33-0.161,0.66-0.323,0.99-0.484l0.154-0.095c0.039,0.34,0.078,0.68,0.117,1.02
			C48.794,9.878,48.374,9.738,47.953,9.597z"/>
		<path fill="#6D6C6C" d="M48.941,9.093c-0.33,0.161-0.66,0.323-0.99,0.484c-0.008-0.482-0.014-0.965-0.021-1.447
			c0.369-0.037,0.736-0.074,1.104-0.11C49.005,8.377,48.972,8.736,48.941,9.093z"/>
		<path fill="#010101" d="M32.739,13.986c0.058,0.202,0.088,0.408,0.095,0.619c-0.324,0.08-0.617,0.224-0.88,0.429l-0.183-0.185
			C32.094,14.562,32.417,14.273,32.739,13.986z"/>
		<path fill="#010101" d="M31.813,16.008l-0.415-0.021l-0.407,0.079c0.262-0.404,0.521-0.809,0.781-1.215
			c-0.001-0.001,0.182,0.184,0.182,0.184C31.884,15.354,31.837,15.68,31.813,16.008z"/>
		<path fill="#010101" d="M30.993,16.062c-0.307,0.387-0.613,0.772-0.921,1.162c-0.022-0.384-0.048-0.77-0.071-1.152
			C30.333,16.057,30.662,16.053,30.993,16.062z"/>
		<path fill="none" d="M37.053,8.595c0.319,0.105,0.639,0.211,0.958,0.315c-0.28,0.183-0.562,0.364-0.841,0.547
			C37.113,9.172,37.074,8.885,37.053,8.595z"/>
		<path fill="#3E3E3E" d="M37.171,9.457c0.279-0.183,0.561-0.364,0.841-0.547c0.16,0.274,0.123,0.52-0.112,0.733
			c-0.021,0.346-0.207,0.594-0.555,0.742l-0.324-0.301C37.098,9.884,37.148,9.674,37.171,9.457z"/>
		<path fill="#3E3E3E" d="M37.109,11.089c-0.338,0.012-0.676,0.024-1.014,0.036c0.309-0.347,0.617-0.692,0.925-1.039l0.324,0.301
			C37.192,10.596,37.113,10.83,37.109,11.089z"/>
		<path fill="#3E3E3E" d="M36.049,11.171c-0.324,0.31-0.649,0.618-0.974,0.927C35.399,11.789,35.724,11.48,36.049,11.171z"/>
		<path d="M37.109,11.089c0.004-0.259,0.083-0.493,0.235-0.702c0.348-0.148,0.533-0.396,0.555-0.742c0.351-0.2,0.7-0.401,1.05-0.604
			c0.291,0.198,0.582,0.396,0.872,0.595c-0.374,0.368-0.747,0.735-1.121,1.104c-0.242,0.153-0.506,0.254-0.791,0.299
			C37.642,11.05,37.376,11.068,37.109,11.089z"/>
		<path fill="#646364" d="M87.038,37c-0.314,0.298-0.63,0.595-0.943,0.892c-1.709,0.013-3.418,0.024-5.129,0.037
			c0.035-0.267,0.049-0.532,0.043-0.8c0.965-0.291,1.933-0.58,2.896-0.871C84.949,36.505,85.994,36.753,87.038,37z"/>
		<path fill="#4C4B4B" d="M81.008,37.128c0.006,0.268-0.008,0.533-0.043,0.8c-0.683,0-1.362,0-2.045,0
			c-0.658-0.302-1.314-0.603-1.974-0.903c1.351-0.258,2.698-0.516,4.047-0.773C80.989,36.542,80.994,36.835,81.008,37.128z"/>
		<path fill="#444445" d="M81.008,37.128c-0.015-0.293-0.02-0.586-0.015-0.877c0.972,0.002,1.94,0.004,2.91,0.006
			C82.939,36.548,81.972,36.838,81.008,37.128z"/>
		<path fill="#010101" d="M90.931,40.088c-0.014-0.335-0.027-0.669-0.043-1.003c0.285,0.005,0.568-0.022,0.846-0.082
			c0.087,0.371,0.176,0.742,0.267,1.113C91.643,40.109,91.288,40.098,90.931,40.088z"/>
		<path fill="#808080" d="M25.155,54.936c0.268,0.032,0.534,0.063,0.803,0.097c0.048,0.332,0.03,0.662-0.051,0.989L25.87,55.88
			C25.632,55.564,25.394,55.249,25.155,54.936z"/>
		<path d="M25.228,51.557c0.334-0.146,0.668-0.29,1.003-0.435c-0.063,0.322-0.127,0.646-0.189,0.969l-0.257-0.11
			C25.546,51.903,25.361,51.762,25.228,51.557z"/>
		<path d="M37.075,54.29c0.173,0.215,0.345,0.429,0.518,0.643c-0.184,0.07-0.371,0.104-0.566,0.104
			C37.005,54.784,37.021,54.536,37.075,54.29z"/>
		<path d="M27.05,55.05c0.104,0.326,0.111,0.654,0.021,0.984c-0.387-0.004-0.773-0.008-1.163-0.015
			c0.081-0.325,0.098-0.655,0.05-0.989l-0.038-0.104C26.296,54.968,26.673,55.009,27.05,55.05z"/>
		<path d="M31.258,54.058c0.066-0.335,0.134-0.671,0.202-1.006c0.357-0.008,0.717-0.016,1.075-0.021
			c-0.218,0.334-0.436,0.668-0.653,1.002C31.674,54.049,31.466,54.058,31.258,54.058z"/>
		<path fill="#363535" d="M56.06,66.271c0.322-0.021,0.646-0.044,0.968-0.066c0.012,0.19,0.044,0.377,0.098,0.563
			C56.77,66.6,56.417,66.436,56.06,66.271z"/>
		<path d="M49.167,58.344c-0.397,0.887-0.798,1.772-1.195,2.659c0.115-0.258,0.052-0.457-0.191-0.6l-0.311-0.248
			c-0.146-0.201-0.324-0.244-0.543-0.125c0.31-0.916,0.617-1.832,0.928-2.748C48.292,57.637,48.728,57.991,49.167,58.344z"/>
		<path fill="#0C0C0C" d="M45.808,56.997c0.369-0.394,0.736-0.785,1.104-1.178c0.067,0.455,0.137,0.91,0.203,1.366
			c0,0-0.021-0.05-0.021-0.051C46.669,57.09,46.238,57.044,45.808,56.997z"/>
		<path fill="#1F1E1E" d="M28.915,48.427l0.022,0.482l-0.122,0.248l0.182,0.209c-0.348-0.207-0.696-0.416-1.044-0.623
			C28.275,48.638,28.595,48.532,28.915,48.427z"/>
		<path fill="#ECE8E8" d="M28.269,50.051c-0.104-0.435-0.21-0.871-0.315-1.308"/>
		<path d="M30.98,50.075c-0.379-0.334-0.758-0.67-1.137-1.004c0.351,0.146,0.703,0.291,1.054,0.438
			C30.922,49.698,30.949,49.887,30.98,50.075z"/>
		<path fill="#1F1E1E" d="M58.935,58.159c-0.439-0.324-0.881-0.646-1.32-0.972c0.453-0.011,0.908-0.022,1.362-0.034
			C58.966,57.489,58.949,57.825,58.935,58.159z"/>
		<path fill="#010101" d="M31.813,16.008c0.023-0.328,0.07-0.654,0.141-0.975c0.263-0.205,0.556-0.349,0.88-0.429
			c0.003,0.359,0.006,0.72,0.009,1.079C32.5,15.792,32.156,15.9,31.813,16.008z"/>
		<path d="M28.202,53.278c0.014,0.309-0.097,0.564-0.331,0.77c-0.252,0.004-0.502-0.012-0.752-0.041l-0.323-0.098l-0.24,0.236
			c0.088-0.367,0.176-0.734,0.264-1.104c0.094-0.336,0.188-0.67,0.282-1.004C27.469,52.452,27.836,52.866,28.202,53.278z"/>
		<path fill="#AEADAD" d="M26.796,52.157c-0.251-0.021-0.503-0.045-0.755-0.064c0.063-0.322,0.127-0.646,0.189-0.971
			C26.419,51.468,26.608,51.813,26.796,52.157z"/>
		<path fill="#AEACAC" d="M27.05,55.05c-0.377-0.041-0.754-0.082-1.131-0.123c0.212-0.262,0.425-0.521,0.637-0.781l0.24-0.236
			l0.323,0.098c-0.047,0.374-0.093,0.749-0.14,1.121L27.05,55.05z"/>
		<path fill="#2F2E2E" d="M45.857,59.022c0.355,0.336,0.713,0.672,1.068,1.008c0.218-0.117,0.396-0.074,0.541,0.127
			c0.104,0.082,0.207,0.164,0.312,0.246c0.243,0.145,0.309,0.344,0.192,0.603c-0.991,0.559-1.981,1.116-2.974,1.677
			c-0.116-1.23-0.233-2.464-0.352-3.695C45.051,58.997,45.455,59.01,45.857,59.022z"/>
		<path fill="#151515" d="M45.808,56.997c0.43,0.047,0.857,0.093,1.289,0.14c-0.318,0.321-0.639,0.646-0.959,0.966
			c-0.354-0.012-0.707-0.023-1.062-0.035C45.322,57.71,45.565,57.354,45.808,56.997z"/>
		<path d="M45.079,58.067c0.354,0.012,0.706,0.023,1.061,0.035c0.052,0.352-0.043,0.657-0.28,0.92
			c-0.4-0.013-0.808-0.025-1.21-0.037C44.792,58.679,44.935,58.372,45.079,58.067z"/>
		<path fill="#0C0C0C" d="M26.98,55.128c0.046-0.375,0.093-0.75,0.14-1.123c0.25,0.031,0.5,0.045,0.752,0.041
			C27.573,54.407,27.277,54.768,26.98,55.128z"/>
		<path d="M47.778,60.403c-0.104-0.082-0.207-0.164-0.312-0.246L47.778,60.403z"/>
	</g>
</g>
</svg>
