<?xml version="1.0" encoding="utf-8"?>
<!-- Generator: Adobe Illustrator 16.0.3, SVG Export Plug-In . SVG Version: 6.00 Build 0)  -->
<!DOCTYPE svg PUBLIC "-//W3C//DTD SVG 1.1//EN" "http://www.w3.org/Graphics/SVG/1.1/DTD/svg11.dtd">
<svg version="1.1" id="Ebene_1" xmlns="http://www.w3.org/2000/svg" xmlns:xlink="http://www.w3.org/1999/xlink" x="0px" y="0px"
	 width="178.644px" height="179px" viewBox="0 0 178.644 179" enable-background="new 0 0 178.644 179" xml:space="preserve">
<g>
	<circle fill="#4E8EF7" cx="89.373" cy="89.271" r="36.448"/>
	<path fill="#4E8EF7" d="M163.755,27.424c0-6.923-5.614-12.533-12.535-12.533c-3.141,0-6.002,1.163-8.203,3.072
		C128.071,6.691,109.49,0,89.372,0C40.148,0,0.102,40.047,0.102,89.272c0,49.223,40.047,89.271,89.271,89.271
		s89.271-40.048,89.271-89.271c0-20.118-6.691-38.699-17.962-53.646C162.591,33.428,163.755,30.564,163.755,27.424L163.755,27.424
		L163.755,27.424z M89.372,175.539c-47.568,0-86.269-38.701-86.269-86.269S41.804,3.002,89.372,3.002
		c19.342,0,37.214,6.399,51.619,17.19c-1.448,2.044-2.306,4.536-2.306,7.231c0,6.922,5.612,12.532,12.533,12.532
		c2.696,0,5.185-0.858,7.23-2.306c10.792,14.404,17.19,32.277,17.19,51.621C175.64,136.838,136.941,175.539,89.372,175.539
		L89.372,175.539L89.372,175.539z"/>
</g>
</svg>
