<?xml version="1.0" encoding="utf-8"?>
<!-- Generator: Adobe Illustrator 16.0.3, SVG Export Plug-In . SVG Version: 6.00 Build 0)  -->
<!DOCTYPE svg PUBLIC "-//W3C//DTD SVG 1.1//EN" "http://www.w3.org/Graphics/SVG/1.1/DTD/svg11.dtd">
<svg version="1.1" id="Layer_3" xmlns="http://www.w3.org/2000/svg" xmlns:xlink="http://www.w3.org/1999/xlink" x="0px" y="0px"
	 width="145.049px" height="76.276px" viewBox="107.476 2.544 145.049 76.276"
	 enable-background="new 107.476 2.544 145.049 76.276" xml:space="preserve">
<ellipse fill="#6181B6" cx="180" cy="40.682" rx="69.691" ry="35.305"/>
<g>
	<path fill="#FFFFFF" d="M194.111,52.092l3.463-17.784c0.787-4.013,0.131-7.003-1.941-8.892c-1.994-1.836-5.377-2.728-10.361-2.728
		h-5.979l1.704-8.813c0.053-0.341-0.025-0.682-0.235-0.944s-0.524-0.42-0.866-0.42h-8.262c-0.551,0-0.997,0.394-1.102,0.918
		l-3.672,18.885c-0.341-2.125-1.154-3.961-2.465-5.456c-2.413-2.78-6.269-4.17-11.384-4.17h-16.026
		c-0.551,0-0.997,0.394-1.102,0.918l-7.449,38.216c-0.052,0.342,0.026,0.683,0.236,0.945c0.21,0.262,0.524,0.42,0.866,0.42h8.341
		c0.551,0,0.997-0.395,1.102-0.918l1.81-9.26h6.19c3.252,0,5.98-0.341,8.131-1.049c2.177-0.709,4.196-1.915,5.954-3.567
		c1.442-1.312,2.623-2.78,3.515-4.38l-1.495,7.633c-0.053,0.34,0.026,0.682,0.236,0.943c0.21,0.263,0.525,0.42,0.866,0.42h8.262
		c0.551,0,0.997-0.394,1.102-0.918l4.066-20.983h5.666c2.412,0,3.121,0.472,3.305,0.682c0.184,0.184,0.551,0.866,0.131,2.938
		l-3.227,16.944c-0.053,0.342,0.026,0.682,0.236,0.944s0.524,0.42,0.865,0.42h8.394C193.535,53.01,194.006,52.643,194.111,52.092z
		 M155.816,37.403c-0.524,2.675-1.495,4.563-2.912,5.665c-1.442,1.102-3.725,1.652-6.819,1.652h-3.699l2.676-13.744h4.773
		c3.515,0,4.931,0.761,5.482,1.39C156.105,33.233,156.289,34.964,155.816,37.403z"/>
	<path fill="#FFFFFF" d="M229.442,26.859c-2.413-2.78-6.269-4.17-11.384-4.17h-16.025c-0.551,0-0.997,0.394-1.102,0.918
		l-7.424,38.243c-0.053,0.34,0.027,0.682,0.236,0.943c0.21,0.263,0.525,0.42,0.865,0.42h8.342c0.551,0,0.996-0.393,1.102-0.918
		l1.81-9.259h6.19c3.252,0,5.98-0.341,8.131-1.05c2.178-0.707,4.197-1.914,5.954-3.566c1.469-1.364,2.702-2.885,3.62-4.538
		c0.918-1.652,1.573-3.488,1.967-5.456C232.643,33.547,231.882,29.666,229.442,26.859z M220.813,37.403
		c-0.523,2.675-1.494,4.563-2.91,5.665c-1.443,1.102-3.725,1.652-6.82,1.652h-3.698l2.675-13.744h4.774
		c3.515,0,4.931,0.761,5.481,1.39C221.128,33.233,221.285,34.964,220.813,37.403z"/>
</g>
</svg>
