<svg xmlns="http://www.w3.org/2000/svg" width="256" height="256" viewBox="0 0 256 256"><g fill="#DD3735"><path d="M255.9 121.097c-.085-3.284-.258-6.654-.43-9.938-.174-3.372-.26-6.742-.605-10.112-.605-4.58-1.21-9.247-2.248-13.74-.777-3.717-2.074-7.26-3.37-10.803-1.642-4.15-3.284-8.383-5.357-12.358-3.37-6.395-7.778-12.1-11.84-18.062-2.68-3.803-6.136-6.914-8.728-10.802-1.47-2.247-3.63-4.15-5.79-5.877-3.458-2.765-7.088-5.272-10.717-7.69-2.766-1.903-5.53-3.717-8.47-5.36-2.333-1.296-4.84-2.333-7.26-3.456-2.764-1.297-5.443-2.852-8.555-3.457-.777-.173-1.47-.432-2.246-.69-1.988-.693-3.89-1.47-5.877-2.075-3.024-.95-5.963-2.075-9.074-2.852-3.024-.778-6.135-1.297-9.246-1.73-3.457-.517-7-.69-10.457-1.036-2.247-.26-4.494-.518-6.655-.605-3.283-.172-6.653-.172-9.938-.26-1.642-.085-3.37-.258-5.012-.172-2.506.087-5.012.346-7.52.692-2.418.26-4.838.69-7.172 1.037-2.85.345-5.703.518-8.555.864-2.678.346-5.444.864-8.122 1.297-.95.173-1.902.52-2.852.69-2.074.434-4.235.607-6.31 1.298-3.715 1.124-7.43 2.42-11.06 3.803-3.37 1.383-6.655 2.852-9.852 4.58-3.284 1.815-6.395 3.976-9.507 6.05-2.938 1.987-5.876 4.062-8.728 6.31-2.765 2.16-5.358 4.58-7.864 7-1.383 1.38-2.506 3.023-3.803 4.58-2.16 2.505-4.32 4.925-6.395 7.517-1.728 2.16-3.285 4.407-4.926 6.655-2.94 3.975-5.446 8.21-7.78 12.444-.95 1.727-1.814 3.456-2.678 5.184-1.297 2.593-2.68 5.1-3.89 7.778-.863 1.815-1.555 3.802-2.073 5.79-1.21 4.234-2.42 8.555-3.544 12.79C.36 100.184.1 104.16.013 108.05c-.087 3.455.26 6.826.605 10.283.086.864-.432 1.9.605 2.592.086 0 0 .346-.087.432-.26.52 0 1.037.52 1.21 0 0 .085.087.085.173h-.43c-.26.778.605 1.383.26 2.247-.087.173.26.518.43.778 0 .26-.085.605 0 .864.088.777.434 1.554.434 2.42 0 .603.518 1.294.69 1.9.087.26 0 .69-.172.863-.518.604-.432 1.124.346 1.47.173.086.432.432.432.603 0 .52-.173 1.037-.26 1.557.173.173.26.346.173.518 0 .26-.26.52-.172.693.692 1.382.95 2.938 1.038 4.493 0 .346.173.69.345 1.124.087 0 .346 0 .52.086l-.52 1.556c.432-.26.778-.346 1.21-.52.26 1.125.52 2.162.864 3.11.087.175.26.347.52.52-.088.174-.088.52-.26.606.345 1.555.518 3.024 1.123 4.494.087 0 .173-.088.26-.088-.26-1.555-.433-3.197-.692-4.753v-.518s.173-.086.26-.086c.086.346.26.777.26 1.037.69 0 1.727.432 2.418.432.087-.26.173-.605.26-.777-.52-.52-.95-1.297-1.47-1.814.173.69 0 .95 0 1.21-.345-.173-.777-.347-1.21-.52.346-.432.692-.864 1.21-1.383 0-.775-.432-1.468-1.642-1.38.52-.175 1.038-.433 1.642-.606.087.26.173.52.26.69.69-1.21-.346-2.16-.346-3.37.086-1.468-.778-2.937-1.037-4.493-.432-2.42-.346-6.048-.605-8.468 0-.173-.26-.346-.432-.52-.087.088-.52 1.21-.605 1.298.26 2.075.52 4.148.692 6.222-.086 0-.173 0-.173.086-.346-1.815-.692-3.716-1.124-5.79-.086.605-.173.864-.173 1.21-.26-.086-.345-.173-.778-.346.346.778.692 1.297.95 1.9-.604-.26-1.295-.17-1.295-.17v2.417c-.864-.864-1.124-1.556-1.556-2.16-.173-.69-.26-1.384-.432-2.075l.26-.086c-.087-.347-.26-.606-.26-.865-.086-.605-.173-1.296-.26-2.074.087-.085.433-.172.606-.344l-.693-1.036c.692.086 1.124.172 1.556.172 0-.172.087-.26 0-.345-.863-.778-.258-1.47.087-2.16.173-.347.778-.433.95-.78.692-1.295 1.816-2.332 1.816-3.974 0-.778.26-1.642.345-2.42.173-1.47.346-2.938.433-4.407.173-1.9 0-3.803.433-5.617.69-3.026 1.555-6.05 2.506-9.075.69-2.16 1.468-4.235 2.332-6.395 1.297-3.37 2.506-6.74 4.148-9.94 2.334-4.665 5.013-9.16 7.605-13.74 1.642-2.85 3.37-5.53 5.185-8.296 1.73-2.68 3.457-5.444 5.445-7.95 2.765-3.543 5.79-6.827 9.16-9.766 3.457-3.11 6.74-6.308 10.457-9.16 4.84-3.716 9.938-7 15.383-9.852 4.407-2.333 8.987-4.148 13.568-5.877 2.938-1.124 6.135-1.642 9.16-2.593 3.457-1.124 6.914-1.642 10.543-1.73 2.334-.085 4.58-.344 6.914-.603 2.074-.173 4.148-.346 6.395-.605-.26.344-.346.517-.432.69-.95 1.383-1.988 2.765-2.938 4.148-.778 1.124-1.642 2.333-2.42 3.457-1.383 1.815-2.852 3.63-4.148 5.53-1.988 2.853-3.803 5.79-5.877 8.643-2.074 2.765-4.32 5.358-6.48 8.037-2.853 3.716-5.532 7.518-8.384 11.234-2.593 3.543-5.358 6.913-7.864 10.456-2.247 3.11-4.235 6.395-6.395 9.593-3.198 4.752-6.395 9.418-9.593 14.17-2.506 3.63-5.012 7.174-7.605 10.804-.174.26-.433.346-.692.518-.173.173-.52.346-.52.52-.17.604-.17 1.21-.43 1.727-.692 1.296-1.383 2.592-2.16 3.802-.433.69-1.038 1.296-1.557 1.987-.172-.087-.258-.173-.43-.173.345-.865 1.814-1.383 1.123-2.68-.432.692-.865 1.297-1.297 1.988l-1.037 2.074c.345.26.95.43.345.95-.26.432-.52.95-.778 1.383.087 0 .087.086.173.086.26-.347.52-.606.778-.952.086 0 .173.087.26.087-.26.864-.78 1.642-1.21 2.42-.347.69-1.21 1.21-1.816 1.728.087.086.692.346.778.432.26-.346.346-.173.605-.518.173.26.432-.173.52.086.258-.346.517-.605.604-.864.344-.865.863-1.557 1.727-1.902.346-.173.605-.433.864-.692 2.594-2.68 5.273-5.27 7.606-8.123 3.63-4.408 6.914-8.988 10.37-13.482 1.47-1.9 3.198-3.8 4.753-5.616.172.087.345.087.432.173-.173 1.815-.346 3.716-.433 5.53-.26 3.198-.433 6.396-.692 9.68-.086 1.296 0 2.592-.086 3.89 0 .344-.26.603-.26.95 0 .863.26 1.814.26 2.678-.26 3.198-.605 6.31-.865 9.506-.086.693.26 1.384.433 1.99-.087-.087-.173-.174-.433-.347 0 5.013.95 9.94.173 14.864.346-.086.52-.172.52-.346.085-.604.258-1.21.258-1.814.087-.518 0-1.037 0-1.642v-.864c.087-1.556.432-3.198.26-4.753-.173-1.73-.173-3.37.172-5.013.173-.69-.086-1.555.346-2.42v1.297c-.087 4.927.086 9.853-.605 14.78-.085.43.26 1.21-.69 1.122-.087 0-.173.432-.346.69-.432.865.518 1.988-.346 2.853-.173.173.173.95.26 1.47 0 .173.086.345 0 .433-.346.604-.346.604.172.69.087 1.9.26 3.63.346 5.444h.26c1.123-3.284.43-6.654 1.036-10.024.087 1.382.173 2.765.087 4.234 0 2.247-.088 4.407-.174 6.655 0 .432-.087.863-.173 1.295-.26 1.21-.346 2.42-.778 3.543-.345.865-.173 2.162-.173 3.2v3.28c0 .088.26.348.26.693.086.777-.346 1.556-.087 2.42.087.173-.086.432-.173.605-.086.258-.172.518-.086.776l.26 1.296c0 .086.086.173.172.345.087-.344.087-.603.087-.69 1.47.174.69 1.47 1.382 2.162-.345.172-.605.26-.605.345.087.347.26.604.26.95 0 .777-.087 1.47-.173 2.248 0 1.986-.088 3.975-.088 5.876 0 .26.087.52.087.78 0 .17-.088.345-.088.603v1.815h.346c-.173.258-.346.518-.605.776-.086 0-.346 0-.346-.086v-10.89H71.74c-.172 5.186.26 9.853-.69 14.69-1.037.09-1.383.26-2.506.26-2.68 0-5.358 0-8.037.087-3.198 0-6.31.088-9.507.088-1.555 0-3.197.172-4.753.172-2.074 0-4.234-.26-6.308-.26-3.2 0-6.31.26-9.507.347-2.334.086-4.667.086-7 .173-1.556.086-3.112.174-4.667.346-.69.087-1.296.347-2.16.605-.26 0-.865-.086-1.383 0-.864.173-1.642.692-2.506.864-1.297.26-1.642.603-1.47 1.9v.864c-.172-.173-.432-.346-.605-.432-.086 0-.172.086-.172.086.086.26.26.432.345.69.346-.172.778-.603 1.124-.603h1.21c-.174 0-.26.52-.52.95.69-.26 1.124-.432 1.556-.605.086.26.086.605.086.69 1.21-.085 2.333-.43 3.37-.17 3.37.862 6.828 1.208 10.284 1.554 2.247.173 4.408.26 6.655.346 3.198.174 6.396.346 9.593.346 2.68 0 5.272-.258 7.95-.258 3.717 0 7.433.172 11.15.258.777 0 1.64-.086 2.505-.086h6.31c5.616-.172 11.233-.26 16.85-.433 3.198-.086 6.482-.26 9.68-.345l9.85-.26c3.804-.086 7.606-.086 11.322-.174 2.852 0 5.618-.086 8.47-.172 3.196-.087 6.48-.346 9.678-.52 1.73-.086 3.457-.258 5.187-.432 2.074-.172 4.233-.432 6.308-.52 3.11-.17 6.31-.258 9.42-.432 3.89-.258 7.778-.604 11.753-.69 3.63-.173 7.346-.086 10.975-.173 3.2-.087 6.397-.26 9.68-.347l5.446-.26s3.63-.086 5.443-.26c3.11-.172 6.222-.518 9.332-.603 1.988-.086 3.976 0 5.963-.086 3.198-.088 6.482-.26 9.68-.26 1.21 0 2.507.172 4.062.26-.69.604-1.123.95-1.643 1.38.347.09.69.262 1.037.434 0 .087-.085.173-.085.347-.432 0-.863.086-1.297.086-.172.434-.345.605-.518 1.47h1.555c-.604 0-1.123.777-1.728 1.297.087.086.173.086.26.173-.95-.347-1.556-.173-1.9.778.257.086.43.086.69.086-.087.26-.173.52-.26.863-.086.174-.174.346-.174.605l-.258-.26c0-.172 0-.346-.086-.518-.52.518-1.3.864-.866 1.987-.346.174-.777.348-1.21.605.087.174.26.347.346.605-.777.086-1.556.26-1.382 1.21.345.086.69.26.95.345-.433.174-.864.432-1.296.605-.088.173-.174.605-.347.69-1.21.26-.52.692-.173 1.124-.26.174-.518.346-.777.433.26.087.432.173.605.346-.26.173-.434.26-.605.347.172.086.432.258.518.258-.346.26-.777.605-1.295 1.037 0 .174 0 .26.086.433-.346.346-.69.69-1.037 1.21-.346.518-.518 1.21-.95 1.73-1.815 1.986-3.112 4.32-5.445 5.876-.864.604-1.642 1.38-2.42 2.16-1.555 1.47-2.938 3.11-4.58 4.493-2.16 1.815-4.407 3.457-6.74 5.1-2.852 1.986-5.704 3.975-8.556 5.876-1.556 1.037-3.283 1.814-4.926 2.766-1.643.948-3.197 1.813-4.84 2.765-1.037.69-1.987 1.64-3.11 2.16-2.853 1.21-5.877 2.247-8.815 3.37-.26.086-.432.173-.69.26-2.16.95-4.235 1.987-6.396 2.765-1.99.69-4.063 1.21-6.138 1.643-.69.173-1.47 0-2.246.086-1.47.26-2.938.604-4.408.777-3.802.52-7.604.864-11.406 1.383-2.247.26-4.408.69-6.655.95-1.556.087-3.196-.086-4.753-.086-1.123 0-2.333.26-3.457.086-1.814-.26-3.63-.69-5.444-1.037-.432-.086-1.037-.26-1.383-.086-.69.345-1.296-.174-1.987 0-.432.086-.864-.26-1.297-.26-.345-.086-.777.086-1.21 0-.95-.26-1.814-.604-2.85-.52-1.038.088-2.075-.43-3.2-.69-1.554-.345-3.023-.69-4.58-1.036-.604-.173-1.122-.43-1.727-.777-.174.086-.434.26-.78.26-1.468-.26-2.937-.346-4.32-.864-1.21-.434-2.333-1.038-3.63-.866-.345.087-.605-.086-.95-.086-.26-.346-.52-1.037-.778-1.037-1.73.088-2.766-1.382-4.235-1.813-.778-.26-1.382-1.123-2.16-1.383-1.9-.777-3.457-2.42-5.617-2.68-.692-.086-1.383-.432-2.16-.69.258.345.43.604.69.864l-.173.172c-2.333-1.382-4.666-2.766-7-4.06-.345-.09-.604-.434-.864-.606l-2.333-1.557c-.26-.166-.78-.426-.78-.34-.518.606-1.037.088-1.382-.086-2.334-1.64-5.013-2.678-7.26-4.493-.95-.776-2.074-1.295-2.765-2.246-1.21-1.468-2.68-2.505-4.32-3.37-1.297-.69-2.507-1.47-3.717-2.246-.605-.432-1.21-.95-1.21-1.9 0-.605-.26-1.21-1.037-.865-.347-.52-.692-1.124-1.124-1.298-1.037-.432-1.73-1.21-2.507-1.9-.778-.69-1.383-1.643-2.334-1.987-1.728-.692-2.765-2.16-3.802-3.37-2.42-2.854-4.58-5.964-6.828-8.988-.172-.26-.518-.433-.777-.69l-.088.086c.432.864.864 1.642 1.297 2.506-.088.085-.26.172-.347.258-.52-.605-1.124-1.21-1.642-1.814-.086.086-.172.173-.258.173l6.222 9.852c.518.777.95 1.555 1.47 2.332-.087.088-.174.174-.347.26-.95-.172-1.814-.865-2.247-1.643-.777-1.383-1.642-2.247-3.37-2.075-.173-.605-.346-1.296-.432-1.9-.346 0-.605 0-1.21-.086 1.21 1.9 2.247 3.542 3.37 5.442-.432-.26-.69-.432-.864-.518 1.556 1.642 2.68 3.716 4.667 4.753.433 1.987 2.68 2.938 3.198 4.84-.432-.087-.777-.174-1.21-.26-.69-.864-1.47-1.728-2.246-2.68.172.605.432 1.124.777 1.557 1.036 1.296 1.987 2.592 3.197 3.716.432.432 1.037.605 1.037 1.382.173-.173.346-.26.69-.432-.172.346-.258.52-.344.778.345 0 .605.086.864.086.173.52-.087 1.297.95 1.123.087 0 .173.086.26.174.432 1.124 1.123 1.124 2.074.692.173-.087.605 0 .69.172.433.95 1.038 1.037 1.816.346 0 .433.086.865.086 1.21h.346c0-.173-.086-.433-.086-.864.432.346.69.52.864.69.864 1.21 1.642 2.335 2.852 3.284 1.642 1.383 3.11 2.853 4.666 4.15 3.025 2.505 6.395 4.58 9.766 6.48 4.148 2.332 8.123 4.84 12.358 7.086 5.098 2.68 10.543 4.494 16.16 5.79 2.074.433 4.062.864 6.136 1.382 1.815.52 3.63 1.298 5.444 1.73 2.766.603 5.618 1.122 8.383 1.64.604.087 1.21.175 1.9.26v.174c.778 0 1.73-.347 1.902-.087.432.69.777.346 1.296.26.605-.173 1.296-.173 1.987-.173 2.42.086 4.753.604 7.173.433.52 0 1.297-.433 1.73.432.172-.088.258-.174.43-.26.347-.086.78-.086 1.124-.172v.172c-.173.086-.345.086-.69.174.432.087.69.173.95.26-.173.173-.26.173-.433.26-.173.085-.433.173-.778.43 3.11.606 6.05.693 8.643 0v-.517h.345c0 .172.087.346.173.518 3.975.348 7.864-.17 11.58-1.468.346.432.605 1.037 1.124.174.173-.26.604-.347.95-.433.777-.173 1.73-.52 2.42-.26.777.26 1.037-.433 1.642-.433 1.036 0 1.987-.086 2.937-.26.52-.085 1.037-.345 1.642-.518 0-.086 0-.172-.087-.26-.604-.086-1.296-.172-1.815-.172 1.037-.52 1.988-.95 2.938-1.383 0 .086.087.086.087.174-.26.087-.432.433-.777.433h1.21c-.26 0-.605.777-1.038 1.296 3.11-.78 5.963-1.47 8.73-2.16v-.174c-.346.086-.606.086-.864.173-.087-1.816 1.9-1.21 2.592-2.248-.864.26-1.73.518-2.592.69v-.173c2.938-1.296 5.963-2.593 8.9-3.89 0 .087.087.087.087.174-.518.346-1.036.604-1.814 1.036.52.087.864.087 1.123.173 0 .26 0 .432-.087.52 1.47-.088 1.123-1.383 1.555-2.16.26.085.605.258.865.172.777-.173 1.47-.432 2.246-.69.864-.26 1.728-.52 2.593-.866 1.383-.605 2.68-1.382 4.062-2.074.26-.086.69 0 1.037 0 .26 0 .433-.173.604-.345.346-.26.69-.777.95-.69 1.21.172 2.074-.26 2.42-1.383.087 0 .087-.087.173-.087.432-.345.863-.69 1.296-.95 1.9-1.038 3.716-2.074 5.617-3.11.086-.087.26 0 .433 0 .26 0 .604 0 .776-.087 1.125-.52 2.162-1.123 3.198-1.73-.26-.087 0-.173-.864-.26v-.173c.864-.172 1.123-.26 1.643-.432l-.175-.172c2.248-2.247 5.1-3.89 7.26-5.79.432.086.605.172.863.172.088-.26.088-.52.088-.69.345-.433.69-.95 1.123-1.297 1.9-1.728 3.975-3.196 5.702-5.012 2.507-2.506 4.927-5.1 7.174-7.776 2.074-2.42 4.148-4.84 5.876-7.52 2.42-3.716 4.493-7.518 6.653-11.407 1.557-2.766 2.94-5.53 4.494-8.297.173-.26.52-.604.777-.604 2.333-.26 4.667-.433 6.914-.69.52-.087 1.124-.433 1.643-.692-.26-.432-.433-.95-.69-1.383-.347-.52-.865-.952-1.212-1.47-.343-.432-.603-.95-.862-1.47-.26-.43-.518-.777-.777-1.21-.518-.95-1.036-1.9-1.47-2.938-.085-.26-.258-.69-.172-.95 1.556-3.37 2.16-7 3.63-10.37 1.47-3.457 1.9-7.347 2.593-11.063.606-3.544.95-7.087 1.384-10.63.26-2.508.604-4.928.69-7.434.516-3.977.344-7.693.257-11.41zM38.644 217.54c-.604-.69-1.123-1.468-1.728-2.16l.26-.26c.95 1.04 1.9 2.075 2.85 3.2-.517-.26-1.123-.433-1.382-.78zm1.382.78c.26-.087.52-.087.778-.174.26.432.432.95.69 1.47-1.208-.087-1.813-.606-1.468-1.297zm89.876 35.69v-.258c1.643-.174 3.2-.347 4.842-.52v.26c-1.642.26-3.2.432-4.84.518zm21.78-2.246c-1.21.26-2.506.432-3.717.604-.432.087-.95.52-1.122-.26-.172.087-.346.087-.518.174.432 1.296 1.47.26 2.332.778-1.9.26-3.716.432-5.53.69v-.173c.52-.086 1.124-.173 1.643-.26v-.258c-.865-.09-1.73-.175-2.593-.175-.26 0-.605.347-.864.433-.347.086-.692.173-1.124.173-1.47.087-2.938.087-4.32.175-.086 0-.26-.088-.346-.088v-.26c5.79-.777 11.494-1.555 17.284-2.332.086.172.086.346.172.518-.52 0-.865.175-1.296.26zm1.296-.865c1.987-.26 3.804-.434 5.704-.69-3.975 1.122-5.272 1.294-5.704.69zM77.706 76.417c2.765-3.802 5.616-7.605 8.382-11.494.864-1.123 1.555-2.333 2.42-3.456.26-.346.604-.52 1.037-.865l-.087-.172c.346-.432.69-.777.864-1.123.432-.69.692-1.47 1.037-2.247.086-.173.345-.345.345-.345 1.21.604 1.21-.692 1.642-1.124.778-.863 1.556-1.814 2.247-2.678.518-.69 1.037-1.296 1.47-2.074.085-.26-.174-.69-.26-1.037h-.26c.26-.172.52-.43.778-.604.087 0 .087 0 .173-.086.52-.778 1.037-1.556 1.556-2.247 1.038-1.383 2.16-2.766 3.37-3.976-.172.432-.345.865-.517 1.21.086 0 .086.087.172.087 1.037-1.383 2.16-2.68 3.198-4.062-.087-.086-.173-.173-.26-.173-.43.43-.777.863-1.21 1.295-.086-.086-.172-.172-.26-.172.866-1.124 1.73-2.247 2.594-3.544.173.26.346.604.69 1.296.347-.865.693-1.47.952-2.074-.26.26-.606.518-.865.777l-.26-.26 1.556-2.333c1.643-2.334 3.285-4.753 4.927-7.087.605-.864 1.383-1.555 1.9-2.42 1.643-3.283 4.236-5.876 6.223-8.9.433-.605 1.037-1.124 1.556-1.643.432-.518.778-.345 1.124.087 2.333 2.938 4.666 5.963 7 8.9 1.728 2.162 3.456 4.236 5.098 6.482 1.988 2.766 3.89 5.53 5.877 8.297 2.248 3.197 4.494 6.395 6.654 9.68 3.283 4.838 6.394 9.678 9.68 14.517 2.42 3.544 4.84 7 7.17 10.544h-4.406c-4.062-.087-8.21-.433-12.27-.26-5.532.26-11.15.864-16.68 1.296-7 .605-14.088.692-21.087.692-2.507 0-5.013.345-7.52.518-3.024.173-5.962.346-8.987.433-3.543.172-7 .26-10.543.345-1.988.087-4.062 0-6.222 0zm99.122 39.753v.78c-.086 0-.174.085-.347.085-.344-1.21-.69-2.506-1.122-3.716-.864-2.507-1.815-5.013-3.37-7.26-1.73-2.42-3.283-4.926-5.013-7.432-.433-.605-1.037-1.124-1.556-1.642-1.815-1.988-3.63-4.062-5.964-5.53-3.457-2.16-7-3.976-10.803-5.532-1.037-.432-1.986-.95-3.023-1.555h2.074l14.777-.26c3.198-.087 6.31-.087 9.507-.26.778 0 1.21.26 1.643.95.777 1.297 1.555 2.593 2.42 3.89.086.172.26.432.26.69 0 1.902 0 3.89.085 5.79.087 1.99.26 3.89.347 5.878 0 1.987-.174 4.06-.088 6.135.088 2.94.174 5.963.174 8.988zM83.84 87.22c4.063-.172 7.95-.432 11.927-.604 3.11-.173 6.308-.26 9.42-.432 1.296-.087 2.506-.173 3.802 0-1.384.69-2.766 1.382-3.976 2.247-1.556 1.037-3.025 2.42-4.58 3.544-1.556 1.123-2.94 2.506-4.235 3.975-1.643 1.987-3.458 3.715-5.186 5.616-1.21 1.383-2.593 2.68-3.63 4.148-1.47 1.902-2.765 3.976-4.148 6.136.43-8.21.95-16.333.605-24.63zm56.432 83.136c-2.766.69-5.616 1.47-8.47 1.815-2.42.347-4.925.26-7.43.26-2.248 0-4.41-.087-6.656-.26-2.506-.26-5.012-.52-7.432-1.642-2.074-.95-4.234-1.814-6.308-2.852s-4.15-2.248-5.704-4.148c-1.124-1.383-2.68-2.506-4.062-3.716.26 1.036.864 1.9 1.815 2.506-.432.52-1.037.26-1.9-1.123-.26.172-.52.26-.693.345.26-.604.52-1.21.778-1.728-.345-.69-.778-1.47-1.123-2.16-.692-1.124-1.383-2.334-1.988-3.457-.174-.26-.174-.52-.347-.778-.432-.52-.864-1.037-1.21-1.556-.69-1.036-1.296-2.16-2.16-3.195 0 .258.086.518.086.863-.087 0-.173.086-.173.086l-1.815-4.406c-.087 0-.087 0-.173.086l1.555 5.703c-.087 0-.173.088-.26.088-.26-.347-.518-.692-.69-1.125-.174-.69-.692-.69-1.125-.432-.26.173-.432.777-.345 1.037.605 1.47 1.296 2.938 1.987 4.408.173.518.346.95.605 1.47.087.172.346.345.346.604.346.69.605 1.38 1.037 1.986.778 1.037 1.642 2.074 2.42 3.11.778 1.038 1.47 2.16 2.16 3.198.087.175.346.175.432.26.433 1.297 1.902 2.247 2.94 1.73.258 1.987 2.418 2.68 3.283 4.58-1.037-.432-1.815-.777-2.507-1.123-.086.086-.086.172-.172.346 1.037.518 2.074 1.037 3.024 1.642.864.52 1.73 1.037 2.506 1.642 1.038.95 2.247 1.47 3.717 1.815-.087-.26-.173-.347-.173-.347 2.42 1.125 4.926 2.334 6.827 3.285-8.988.172-18.58.346-28.52.518 0-1.643-.085-3.197-.085-4.84 0-.69.173-1.295.086-1.987-.26-3.975-.26-7.95-.777-11.838-.518-4.148-.518-8.21-.43-12.357.085-2.248-.088-4.58-.174-6.828 0-3.024 0-5.963.086-8.988 0-.433.173-.778.346-1.21h.26c.085.173 0 .432.172.52.26.258.69.69.864.603.52-.346 1.296-.69 1.47-1.21.43-1.036.604-2.16.604-3.197 0-.777.346-1.296.69-1.815.174-.258.26-.517.434-.863-.346-.26-.692-.432-1.124-.777.346-.95.26-2.075 1.556-2.593.173-.087.173-.52.26-.778.085-.692.172-1.47.258-2.16.173.258.26.344.432.517.087-.173.173-.26.173-.26 0-.345-.086-1.036 0-1.036 1.037-.172.605-1.295 1.124-1.814.087-.086-.086-.346-.086-.518 0-.173 0-.433.087-.433 1.21-.26 1.038-1.555 1.815-2.16.26-.173.346-.432.692-.864.69 1.21-.52 1.816-.605 2.68 1.47-.864 1.9-2.938 1.037-3.543.345-.26.69-.605.95-.95.95-1.038 1.987-1.99 2.85-3.026.606-.777.952-1.727 1.557-2.505.346-.432 1.037-.778 1.555-1.037 1.556-.864 3.025-1.815 3.976-3.284.173-.173.432-.346.69-.518.26-.173.78-.173.865-.433.087-.172-.173-.604-.346-.864.346-.174.692-.52 1.383-.865-.26.52-.345.864-.518 1.21l.432.432c.778-.605 1.988-1.296 2.765-1.815 0-.086-.433-.432-.433-.432-.518.26-1.296.692-2.074 1.037.173-.26.173-.432.26-.518 1.21-.78 2.42-1.557 3.715-2.162 3.025-1.383 6.05-2.765 9.074-4.062.52-.26 1.21-.086 1.815-.086.26 0 .432 0 .692-.086 1.38-.432 2.764-.864 4.147-1.21.605-.173 1.296-.26 1.902-.26 2.59.087 5.183.087 7.776.26 1.123.086 2.16.346 3.197.69 1.297.433 2.68 1.038 3.89 1.643 1.468.778 2.85 1.642 4.233 2.593 2.507 1.642 4.84 3.456 7.346 4.926 2.42 1.47 4.32 3.456 5.877 5.703 1.9 2.678 4.062 5.098 4.925 8.382l1.297 5.704c.258 1.037.863 2.074.604 3.284-.433 2.16-.778 4.407-1.123 6.567-.173.865-.347 1.73-.26 2.592.173 2.68-.864 5.012-1.9 7.432-.347.778-.864 1.556-1.297 2.42.086.087.604.347.69.347l.778-1.558c.086 0 .086 0 .173.088-.432 1.21-.777 2.506-1.21 3.715-1.036 2.68-2.073 5.444-3.37 8.037-.69 1.47-1.9 2.68-2.766 4.062-.862 1.21-1.554 2.506-2.42 3.63-.776.95-1.554 1.9-2.59 2.593-2.335 1.728-4.755 3.456-7.26 4.84-1.555.95-3.37 1.467-5.098 1.9zm-46.062-4.58l-.086.086c-.173-.086-.432-.173-.605-.345l-2.075-3.11c-.173-.26-.26-.52-.173-.866.95 1.47 1.902 2.854 2.938 4.236zm53.753 11.84c3.89-1.644 7.088-3.976 10.025-6.655.432-.43.864-.862 1.383-1.208 3.63-2.248 6.31-5.358 8.73-8.815 2.766-3.976 4.58-8.47 6.827-12.703.173-.347.346-.692.52-.95-.174 9.852.95 19.53 2.245 29.295-9.765.344-19.704.69-29.73 1.035zm87.63-2.593c-.086.173-.26.345-.345.518-.088-.172-.088-.43-.174-.776-.52 1.383-1.642.69-2.42.69-4.666.087-9.42.087-14.086.087-4.494 0-9.074 0-13.568.09-1.47 0-3.024.343-4.493.43-3.544.174-7.087.26-10.63.346-.26 0-.52-.433-.95-.776-.086.172-.26.432-.52.776-.085-.172-.26-.345-.432-.604-.086.26-.173.52-.26.69h-.26c-.17-1.21-.518-2.332-.518-3.542 0-2.593.26-5.186.347-7.777.086-1.21 0-2.334 0-3.457.346.26.604.432.95.69.173-.345.345-.604.52-.864 0 0-.175-.086-.347-.26.172-.085.346-.258.346-.344.087-.26.26-.52.26-.692 0-.604-.173-1.122-.26-1.642.087 0 .173 0 .26-.086l.518 2.592h.26c-.345-.605.778-1.123-.173-1.814-.086-.086.088-.605.088-.865-.26-.517-.433-1.035-.692-1.727.087-.086.346-.173.604-.26-.345-.172-.604-.345-.863-.433.863-.776.863-1.21.087-2.073.173-.087.346-.087.346-.173 0-.777 0-1.555-.173-2.334-.172-.863.26-1.9-1.037-2.418.087.26.173.432.347.69 0 0-.26.087-.52.26-1.123-1.038-.432-2.42-.69-3.976.604.173 1.036.346 1.468.518-.17-.604-.603-1.295-.862-2.074h-.346v-5.702c0 .086.604.086.95.172 0-.086.087-.172.087-.26-.26-.345-.606-.69-.952-1.122l.174-.174c-.692-.863-.346-2.073-.346-2.332v-6.05c.863.863-.433 1.987.863 2.505v-.863h-.087c-.087-1.297-.087-2.592-.173-3.89h-.173c-.086.174-.086.26-.174.433h-.172c.173-6.827.347-13.654.52-20.654.864 1.124 1.815 2.16 2.42 3.284 1.987 3.63 4.58 6.74 7 10.025 2.074 2.852 3.976 5.963 5.876 8.9 2.333 3.544 4.58 7.088 6.914 10.63 1.73 2.68 3.543 5.36 5.357 7.95 1.643 2.334 3.37 4.58 5.1 6.828 1.47 1.988 3.023 3.977 4.493 5.963 1.73 2.42 3.457 4.84 5.186 7.173.864 1.21 1.814 2.42 2.765 3.63.52.69 1.298 1.21 1.816 1.643-.087 0-.173 0-.346-.09.26.348.432.606.604.78.95.517 1.037 1.035.52 1.813zM240 153.418v-.604c0 .172.086.43 0 .604zm2.938-38.11c-.086 0-.604-.52-.69-.606-.088.26 0 .518-.174.864-.086-.26-.69-.173-.69-.432-.087 1.21.518 2.42.432 3.63.26-.173 1.296-.26 1.556-.52.086.088.258.174.346.174-1.73 1.296-1.297 2.593-.52 4.062.174.345.692 1.037.174 1.728-.174.173.086.692.172 1.124h.26v.172l-.777.26c-.173-.26-1.21-.778-1.21-1.21v4.407c.864.26.864 1.47 1.21 2.075.172-.26.26-.432.346-.69l.086.085c-.087.52-.173 1.037-.347 1.557-.173.777-.346 1.47-.432 2.247 0 .086.174.26.174.345-.95 2.16-.433 4.58-.778 6.827-.26 1.643 0 3.37-.173 5.098-.173 1.47-.518 3.025-.864 4.494-.087.26-.26.345-.69.52.17-1.038.085-1.73-.088-2.68-.086 0-1.21-.605-1.297-.605 0 1.21.69 2.853.95 4.233-.26-.086-1.296-.69-1.382-.69-.173 1.037-.173 2.42-.26 3.543-.086.865-.863 1.643-.95 2.594 0 .518.605.864.52 1.73h.69c0-1.73.778-3.285.778-5.1h.26c.086.173.346.345.26.433-.174.95-.52 1.986-.433 2.938 0 .518.433 1.037.26 1.643-.174.518-.26 1.037-.346 1.813-.086-.43-.172-.603-.172-.863-.087 0-.864-.086-.95-.086-.087.52.604 1.038.52 1.47-.09.088-.175.088-.348.174l-2.852-4.148c-2.247-3.283-4.494-6.568-6.74-9.938-.606-.865-1.124-1.73-1.556-2.594-2.68-4.58-5.617-8.987-8.9-13.222-2.508-3.198-4.495-6.655-6.83-10.025-2.158-3.197-4.32-6.31-6.48-9.506-.777-1.036-1.728-1.987-2.42-3.11-2.246-3.543-4.233-7.173-6.48-10.716-1.9-2.94-3.977-5.79-5.963-8.642-.692-.95-1.384-1.988-2.075-3.025-.087-.173-.173-.346-.173-.605-.173-1.9-.347-3.802-.433-5.617 0-1.73.173-3.457.173-5.272v-1.555c0-.432.086-.778.086-1.21.085-.087.172-.26.258-.346-2.506 0-5.1-.086-7.604 0-1.642.087-2.506-.605-3.63-1.814-3.284-3.717-5.704-7.95-8.556-11.926-2.68-3.803-5.443-7.52-8.21-11.235-2.246-3.025-4.493-5.963-6.74-8.988-2.506-3.457-4.926-6.914-7.52-10.37-3.11-4.15-6.308-8.297-9.505-12.445-1.47-1.902-3.11-3.716-4.754-5.704 1.122.174 2.16.347 3.198.433l4.147.26c3.11.26 6.222.43 9.333.863 2.593.346 5.186.865 7.863 1.297 5.706.95 11.323 2.506 16.768 4.32 3.196 1.038 6.308 2.42 9.42 3.717 7 2.852 13.654 6.308 20.222 9.938 2.074 1.123 3.283 2.938 4.84 4.58 2.246 2.334 4.494 4.667 6.653 7.087 2.507 2.852 4.84 5.79 7.26 8.728 2.16 2.593 4.407 5.185 6.567 7.778.69.78 1.21 1.73 1.814 2.593 1.384 2.074 2.938 4.062 4.148 6.31.865 1.64 1.383 3.542 1.988 5.357.863 2.68 1.73 5.272 2.593 7.95.604 1.988 1.123 4.062 1.556 6.136.345 1.383.257 2.852.69 4.235.518 1.816 0 3.803.518 5.618.086.173.174.432.26.605.346.346.604.69.087 1.21-.087.086-.087.432 0 .69.172-.17.26-.344.432-.604 0 .172.086.26.086.345 0 .346-.086.69 0 1.037 0 .173.173.432.26.605.173-.173.346-.26.69-.518.777 2.937.865 5.875.865 8.9 0 2.852.518 5.703-.69 8.47.257-.955-.348-1.82-.09-2.683z"/><path d="M188 149.197c.087 0 .174.087.174.087l-.087-.087c0-.086 0-.086-.086 0zm13.654 85.383c-.95.69-1.9 1.296-3.11 1.555-.086-.086-.086-.173-.173-.26.952-.603 1.99-1.21 2.94-1.814.086.174.258.347.344.52zM39.62 117.48c.95-1.21 1.9-2.42 2.937-3.628.086.086.778.26.864.345-.95 1.21-2.246 2.852-3.196 4.148-.173-.172-.432-.777-.605-.864zm-24.544 42.347c-.692-1.47-1.383-3.024-2.074-4.494.086-.086.69-.347.777-.347.95 1.384 1.382 3.025 2.073 4.494 0 0-.69.347-.777.347zm22.037-41.482c-.52.778-1.037 1.642-1.556 2.42-.086-.086-1.037.346-1.123.26.518-.778 1.814-2.16 2.333-2.94.086.088.173.174.346.26zm155.295 119.778c.087 0 .087-.087.173-.087.605.087 1.298.173 1.988.173-1.123.776-1.814.69-2.16-.087zM37.285 121.975c.087-.26.26-.52.432-.778.173 0 .433-.086.433-.086.345-.604.345-1.036.69-1.555-.085-.086-.172-.086-.258-.173-.52.346-1.037.778-1.556 1.124.173.173.173.26.173.432-.692-.086-.952.26-1.297 1.21-.087.26-.52.345-.95.69-.087.174-.174.606-.347 1.038l.087.087c-.173.172-.432.26-.432.26-.518.517-1.123.95-1.64 1.468-.088.26-.174.52-.174.78.605-.606 1.642-1.73 2.42-2.42l.086.085c.346-.518.605-1.037.95-1.555.087.086.087.173.174.26-.26.69-.52 1.468-.778 2.16-.173.086-.432.26-.432.173-.346.26-.605.604-.95.864l-1.556 1.037c-.865.778-1.73 1.47-2.68 2.246-.604.95-1.21 1.814-1.9 2.938 1.036-.26 1.296.173 1.21 1.037 1.21.173 1.295-.778 1.64-1.47.088-.172.174-.518.347-.603.778-.69 1.642-1.297 2.506-1.988.173-.174.173-.52.173-.778 0-.086-.432-.086-.69-.172.776-.865 1.9-2.334 2.678-3.284.432-.26.864-.605.864-.865-.087-.95.518-1.21 1.21-1.555-.346-.26-.433-.52-.433-.605z"/><path d="M39.014 121.024c-.346.605-.69 1.124-1.037 1.73l-.52-.26c-.344 1.987-1.554 3.716-2.764 4.06.346.174.69.347.95.26.26-.086.433-.518.605-.777l2.334-3.37.778-1.297-.346-.346zm-28.778 37.938c.432 0 .864.087 1.383.087 0-.347.43-.26.43-.606h.26c0 .433.087.78.087 1.21h-1.815c-.087-.088-.432-.605-.346-.692zm-.69-3.976c-.26-.258-.693-.518-.693-.777-.086-.347.173-.778.433-1.21.172.604.26 1.123.432 1.73-.087.084-.173.17-.173.256zm2.16-5.53c.345.864.69 1.815 1.036 2.68-.086 0-.605.26-.69.345-.347-.862-.78-1.813-1.124-2.677.086-.087.604-.347.777-.347zm192.37 82.618c.43-.174.95-.26 1.64-.434-.776.605-1.382 1.037-1.9 1.557-.087-.088-.173-.174-.26-.174.173-.346.347-.604.52-.95zM97.865 49.47c.518-.347.95-.606 1.47-.952l.172.173c-.52.693-.95 1.384-1.556 2.248-.086-.605-.086-.95-.173-1.383-.087 0 0 0 .086-.086zm25.32 43.727c.778-.345 1.556-.69 2.507-1.123-.087.518-.087.864-.087 1.21-.26-.087-.605-.173-.864-.173-.518.087-1.47.78-1.9.865-.088 0 .344-.69.344-.778zM188 166.48c.174.865 1.816 1.297.174 2.16.26.174.518.26.778.434 0 .086-.087.26-.173.345-.175.086-.52.26-.693.172-.086 0-.26-.346-.26-.518 0-.778.088-1.556.174-2.594z"/></g></svg>