<svg id="Layer_1" data-name="Layer 1" xmlns="http://www.w3.org/2000/svg" viewBox="0 0 120 120"><title>rspec</title><path d="M48,120c-1.62-.67-3.2-1.48-4.87-2-17.34-5.38-29.8-16.36-38-32.93l5.35-7.27,10.21,2.47c15.89,29.46,60.16,34.12,79.83-1.56l4.09,8,9.88-.52c-9.41,17.75-23,28.61-41.86,32.84A21.51,21.51,0,0,0,70,120Z" style="fill:#6de1fa"/><path d="M63,0l3.83,8.43-5.29,7.2C30.63,16.06,8.18,44.9,19.35,77.2L9.88,75,4.1,81.74,0,71V49a51,51,0,0,0,2-4.85c5.45-18.53,17-31.78,34.65-39.5C40.93,2.77,45.53,1.53,50,0Z" style="fill:#3cf"/><path d="M120,71l-4.22,12.2-9.1,1c-3.41-4.87-5.28-9.2-3.82-15.4C108.41,45.21,91.78,21,67.93,17c-.93-.16-1.85-.43-3.44-.8l5.3-7.48L66,0h4c2,.66,4,1.41,6,2,14.36,4,26.15,11.91,34,24.54,4.28,6.92,6.76,15,10.05,22.48Z" style="fill:#9ff"/><path d="M27.93,51,45,34.37,38.3,51.68H67.54L60,36l.11-1.59h9.83l-1.88,17H81.21L74,34.38a92.15,92.15,0,0,1,7.86,6C85.11,43.39,88,46.77,91,50c-1.79.69-3.54,1.5-5.37,2-3.78,1.1-6.39,3-6.29,7.14l6.72.95L59.63,93.67,31.74,59.06l8.89.94-3-6.79ZM71,61l-2.05-6h-2L65,62l-1,1H55.75c1,7.49,1.86,14.26,2.91,21,.07.44,1.53.67,2.34,1l2-1L78.31,61H71ZM53.49,81.66l1.44-.55L47.29,61.25H42.1Z" style="fill:#fe4163"/><path d="M60,36l7.55,15.69H38.3L45,34.37H50L51.17,51Z" style="fill:#fe4c71"/><path d="M74,34.38l7.18,17.07H68.05l1.88-17Z" style="fill:#fe486e"/><path d="M60,36,51.17,51,50,34.36l10.09,0Z" style="fill:#fe3e60"/><path d="M86.07,60.12l-6.72-.95c-.11-4.12,2.5-6,6.29-7.14,1.83-.53,3.58-1.35,5.37-2Z" style="fill:#fe4c71"/><path d="M27.93,51l9.66,2.21,3,6.79-8.89-.94Z" style="fill:#fe4a6f"/><path d="M61,85c-.81-.33-2.27-.55-2.34-1-1-6.75-1.91-13.52-2.91-21H64Z" style="fill:#fe486e"/><path d="M61,85l3-22,1-1,6-1h0L63,84Z" style="fill:#fe3f61"/><path d="M63,84l8-23h7.32Z" style="fill:#fe486e"/><path d="M53.49,81.66,42.1,61.25h5.19l7.64,19.86Z" style="fill:#fe486d"/><path d="M71,61l-6,1,1.92-7h2Z" style="fill:#fe486e"/></svg>