<svg xmlns="http://www.w3.org/2000/svg" width="598.5" height="748.5" viewBox="0 0 598.5 748.5"><g clip-rule="evenodd"><path fill="none" d="M-190-88h853v930h-853V-88zM64 694l-1.4-1c0 .3-.2.5-.3.7l1.4.7 2.4 6.4-6 5c3.5 1.6 6 3.4 9 4 5.4 1.4 11 2 16.4 3 3.3 0 6.6 0 10 .2 1.8-.4 3.7-1 5.6-1.3h8l1 1.4c.3.2.7.2 1 .2 1 0 1.8-.3 2.7-.4l20.3-1c1.6 2 1.8.5 2-.8l4 1c1.7-.5 4.2 1.4 5-1.8l4.6-.4c6.8.3 13.4-.5 20-4-1.7-1.7-2.7-3-3.8-4l3-10.8c-.3 0-.5-.2-.7-.3-2.5 3.7-5 7.5-7.7 11.2l-8.6-1 3.7-22h-.4l-8 21-15.2-1.2-1.8-13c0-.3 0-.7.2-1 .2-.4 0-.6 0-.8v-7-2c0-1.7.2-3.4.3-5l.6-6 .8-6c.3-.6.7-1 .8-1.8 1.7-5.8 2.8-11.8 5-17.4 5.2-13 14-21.5 29-21.5.4 0 .7-.5 1-.8-14.2-2.8-25.7-.6-36 6.7l-6.7 5h-.2l-.7-6.6-2-22.6-1.2-12c-.6-6.3-1-12.5-2-18.8-1.5-12.4-3.3-24.8-5-37.2l-4-28-3-18c-.3-2.7-.5-5.5-1-8.2-1-5.3-2.5-10.6-3.8-16V457c0-.6 0-1.3-.2-2-3-18.8-6.7-37.5-11.3-56-.3 1-.4 2-.3 3L93 471c.2 6 .6 12.2 1 18.3 0 10 0 20 .2 30 0 3.7.4 7.5.7 11.2 0 7.6 0 15.2.2 22.8 0 3.6-.2 7.2 0 10.8 0 5.4.5 10.8.8 16.2 0 6.3 0 12.7.2 19v14c-1-1-2.4-2-3-3.5C88.7 598 82 587.5 74 578c-5-7.3-12-12.8-19.2-17.5 3.3 4.8 7 9.3 10.2 14 2.3 3.3 4 7 6 10.3l1 2.3c5.6 13.5 9.8 27.4 12.3 41.8l4.4 26.3 2.3 43-3-6c-2.4-6.2-4.6-12.6-7-19l2.3 26c-4 .2-8.3-.7-11.6 2.7-2.5-2.6-5-5.2-7.7-7.7zm310-29l-8.7 8c-5.4-1.2-10.7-2.6-16-4 1.6-5.4 3.2-10.8 5-16.2-1.8 1-2.6 2.4-3.5 3.8l-7.6 12.6-10-1.2c0-1.7-.2-3.4-.4-5v-2c-.8-8-1.4-16-2-24l-.2-1v-2l-.7-11c-.2-4.6-.2-9.3-.3-14l.7-51c0-2 .2-4 .4-6 0-2.4.2-4.7.4-7l.7-10c0-1.4 0-2.7.2-4l1.4-13 1-8c0-.7 0-1.4.2-2l.6-5 .4-4c.5-2.4 1-4.7 1.3-7l.3-2.5 1-4.5c3.5-15.2 6.5-30.5 10.7-45.5 7.3-25.8 17.6-50.4 33-72.5 4.2-5.8 8.7-11.3 13-17l2.6-2.4c-7 1.6-12.2 5.4-17.2 9.7-16.6 14.2-28.3 32.2-38.3 51.3-14 27-24 55.4-32 84.6-.3 1.3-.8 2.4-1.6 4.5-.6-2-1-3.3-1.2-4.5v-4.4l.3-.3-.4-.2 1-10.3 1.5-28.4 2.6-36.3 4-41.3c.7-1.4 1.7-2.8 2-4.3 1-6.4 1.8-12.8 2.6-19.2 1-7.2 1.6-14.4 2.4-21.6 3-3.5 2.2-8 3-12 .3-.2.3-.5 0-.8.4-1 .8-2.2 1-3.3 7.5-38.7 17-77 29-114.3l12-35.4.6-1.2.8-2 1.6-3.4c6.3-14.3 12-29 19-42.8 9.6-19.2 19-38.6 36-52.7.4 0 .7-.2 1-.4 5.5-4.3 12-6 18.8-6.7 13.2-1.2 23.8 4.8 33.7 12.6 4.7 3.7 9 8 14.5 13-3-4.2-5-7.7-7.7-10.7-9.2-10.2-19.6-18.4-33.5-21.2-8-2.6-16-2-24 0-24 6.5-41 22.5-56 41l-3 3c-16.6 20.5-30.8 42.7-42.3 66.5-4 8-7 16.5-10.5 24.7-3 7.5-6 15-8.7 22.5-9.2 26.7-16.2 54-22 81.6-1.8 8.3-3 16.7-4.5 25l-.8 4c0 .7-.2 1.4-.4 2 0 1-.3 2-.4 3l-.8 3c-1.6 10.7-3 21.4-4.7 32l-2.7 20-1.5 9.3L268 407c-.2 2.6-.7 5.3-1 8-1 12.7-2.4 25.4-3.2 38.2-1.4 20.4-2.5 41-3.7 61.3-.7-.8-2-1.5-2.4-2.5-1.7-3.3-3-6.7-4.6-10-12.5-25.7-29.2-47.5-56-60-15.4-8-32-8.8-50-7.6 1.6.7 2 1 2.7 1.2 21.7 3.7 39.6 14.3 54.6 30 5.2 5.5 9.7 11.8 14.6 17.6 11 18 18.8 37.6 23.6 58.2l2.4 9.6 4.5 34.2c1 22.4 1.5 45-.4 67.4l-3-8.3-3-10V667c-6.8 1.4-13.6 2.8-20.3 4-3.7-2.8-5.6-7.6-10.7-10.4 2.8 5.2 5.2 9.5 7.3 14 1 2 2.5 2.8 4.7 2.7 1.3 1.2 2.4 3.2 4 3.6 5 1.3 10 2 15 3 .7 1.2 1.2 3.2 2 3.3 4.2 1 8.6 1.2 13 1.7l-.2-3c6.3.3 12.5.8 18.8 1 8.7 0 17.3 0 26-.2 5.6 0 11.2-.7 16.8-1.2l16.2-1.6-1.5 3.6h8.5l2.5-5.6 16-3h7.3l5.7-14z"/><path fill-rule="evenodd" fill="#619432" d="M260 514.5c1.3-20.4 2.4-41 3.8-61.3.8-12.8 2-25.5 3.3-38.3.3-2.7.8-5.4 1-8l7.4 1.2 9.6 1.8-1 16.3c-.7 11.7-1.6 23.4-2 35.2-.5 20.7-.7 41.5-1 62.2v19c0 1-.4 2-.7 3.2-3.8-2.7-3.4-8-8.3-10v7c-.2 2-.7 4-1 6h-1c-.3-1.8-.4-3.6-1-5.3l-9-27.6v-1.5z"/><path fill-rule="evenodd" fill="#B5C12E" d="M395 350c-4.3 5.7-8.8 11.2-13 17-15.4 22-25.7 46.7-33 72.5-4.2 15-7.2 30.3-10.8 45.5l-1 4.5v2.5c-1.3 2.2-2.7 4.3-1.4 7 0 1.3-.2 2.6-.4 4-2.4 1.3-1.6 3-.6 5l-.3 2c-2.7 2.3-1.5 5-1 8l-1.3 13c-1.8 1.2-1.6 2.5-.3 4l-.8 10c-2 2.2-1.5 4.5-.4 7l-.4 6c-3.5 0-6.3 1.2-8.7 3.7-1.3 1.4-3 2.2-4.7 3.3l1-7.8 1.3-14.7L322 518c1.3-7.5 2.5-15 4-22.3 3-15.2 5.8-30.5 9.6-45.5 4.3-17.2 10-34 17.7-50 7.2-15.6 16.2-29.7 28.7-41.5 3.7-3.5 8.6-5.8 13-8.7z"/><path fill-rule="evenodd" fill="#7D942C" d="M368 161.3l-12 35.4c-12 37.4-21.5 75.6-29 114.2-.2 1-.6 2-1 3.2-.6-2.3 1.2-5.4-2.4-7.4l-4.7 5.5c-2.5 3-5 5.4-9 5.7v-1l1-1c0-1.3 0-2.7.2-4 4.7-19 9.3-38 14.3-57 3.8-14 8.3-28 12.5-42 2.3-7.2 4.5-14.4 7-21.5l12-32.5c1.2-.4 2.6-.6 3.6-1.3 3-2.2 6-2 8.8.4l-.8 2-.5 1.3z"/><path fill-rule="evenodd" fill="#92B646" d="M281.8 310c1.5-8.3 2.7-16.7 4.4-25 6-27.5 13-54.8 22-81.5 2.7-7.6 6-15 8.8-22.5 3.4-.4 2.8 2 3 4.2.7 5.4 2 10.5 8 12.8l-4 12c-3 10-6.3 19.8-9 29.8-3.6 13-6.8 25.8-10 38.8-2.2 8.4-4 17-6 25.4-5 .8-10.6.3-14.5 4.7-.7.7-1.8 1-2.7 1.3z"/><path fill-rule="evenodd" fill="#50782E" d="M307.2 488.8v4.4L307 504l-3.5 10.4-1.5 6.6c-1-1-2.5-2-3-3-1-3.7-1.2-7.4-2.2-11-.4-1.5-1.8-2.7-2.8-4-.3-3-1-6.2-1-9.3l1-65V427l2-20 2-13c4.8-1.5 9.7-1.2 15-.6l-1 20-2.5 36.2L308 478l-1 10.3c0 .2 0 .4.2.5z"/><path fill-rule="evenodd" fill="#BFCD32" d="M307 504c0-3.6 0-7.2.2-10.8l1.2 4.5c.8-2 1.3-3.2 1.6-4.5 8-29.2 18-57.7 32-84.6 10-19 21.8-37 38.3-51.3 5-4.3 10.4-8 17.3-9.7L395 350c-4.4 3-9.3 5.2-13 8.7-12.5 11.8-21.5 26-28.7 41.4-7.6 16.3-13.4 33-17.7 50.2-3.8 15-6.5 30.3-9.6 45.5-1.5 7.4-2.7 14.8-4 22.3-1-.2-2.2 0-2.8-.6-4.8-3.8-10.2-7-12.2-13.4z"/><path fill-rule="evenodd" fill="#99BC4A" d="M328 198c-6-2.3-7.3-7.4-8-12.8-.2-2.2.4-4.6-3-4.2 3.5-8.2 6.6-16.6 10.5-24.7 11.5-23.8 25.7-46 42.4-66.6.8-1 1.7-2 2.6-2.8l7.4 5-3 6c-.7.7-1.5 1.3-2 2-6 10.5-12.5 20.8-18 31.5-11.5 21.4-20 44-29 66.5z"/><path fill-rule="evenodd" fill="#889A2B" d="M369.4 158c-2.8-2.3-5.7-2.5-8.8-.3-1 .7-2.4 1-3.6 1.3 5.4-12.8 10.6-25.7 16.3-38.4 3-7 7-13.7 10.7-20.6 1-1.2 2-2.2 2.7-3.5 7.5-13 16.8-24.5 28-34.5 2-2 4.7-3.4 7-5l4.4 2c-17 14.2-26.4 33.6-36 52.8-7 14-12.7 28.5-19 42.8l-1.6 3.5z"/><path fill-rule="evenodd" fill="#9EC534" d="M245 551l-2.4-9.6c-4.8-20.6-12.5-40-23.7-58.2-.2-3-1.5-6 .6-9 .4-.4-.3-1.7-.6-2.6l-4-14.6c10.2 8.3 17.7 18.7 24.4 30 2 3.6 4 7.5 5.5 11.5 1 2.2 1 4.8 2 7 5.5 15.5 6.4 30.7-2 45.5z"/><path fill-rule="evenodd" fill="#94C02D" d="M245 551c8.4-14.8 7.5-30 2-45.4-1-2.3-1-5-2-7-1.7-4-3.4-8-5.6-11.7-6.7-11.3-14.2-21.7-24.4-30l-16.8-12c-1-.7-3.3-1.2-1-3 26.6 12.5 43.3 34.3 55.8 60l4.6 10c.5 1 1.6 1.7 2.5 2.5v1.6c-1 .7-2.8 1.3-2.8 2 0 2.8 0 5.8.7 8.7 1.8 7.7 3.8 15.3 6.2 22.8 1 3 .5 5.4-1.3 7.8-5.8 7.6-10.5 15.6-11 25.5-.2.8-1.7 1.6-2.5 2.4L245 551z"/><path fill-rule="evenodd" fill="#8EB52A" d="M249.5 585.2c.8-.8 2.3-1.6 2.4-2.4.5-10 5.2-18 11-25.5 1.7-2.4 2-4.7 1-7.8-2.2-7.5-4.2-15.2-6-22.8-.8-3-1-6-.8-8.8 0-.7 1.7-1.3 2.7-2l9 27.7c.6 1.7.7 3.5 1 5.3-3 3-5 6.5-3.5 11 1 2.4.2 3.7-2 5.3-8 6-10 17.3-4.4 26.3 5.3 8.4 6.6 17 2.6 26.4-2.6 6-4.6 12-6.7 18-2.4 6.7.6 14-2.8 20.6-.3.5.7 1.6.6 2.3l-.8 8-4-14.4c2-22.5 1.6-45 .5-67.4z"/><path fill-rule="evenodd" fill="#9EC534" d="M88.7 655L84.3 629c-2.5-14.4-6.7-28.3-12.4-41.7-.4-.6-.7-1.4-1-2.2l1-5c.3-.8 1.4-1.3 2-1.8 8 9.5 14.6 20 19.3 31.5.5 1.4 2 2.4 3 3.5.8 5 1.8 10 2.8 15-3.2 1.7-2 4.5-1.5 7l2.6 11.2c-4.4 3.5-8 6.2-11.3 9z"/><path fill-rule="evenodd" fill="#6C9B31" d="M285 410l-9.6-1.8-7.3-1.2c1-8 1.7-15.8 2.5-23.7l1.5-9.3c3.6 1 7.2 2 10.8 3.4 4 1.4 5.7.4 6.2-4 .6-5.7 1.4-11.4 2.2-17 4.3 0 8 .4 11.8.6l-2 11-2 15-11-1-2 24-1 4z"/><path fill-rule="evenodd" fill="#6F8B2E" d="M301 368l2-11 2.5-15c1.4-7.7 3-15.3 4.5-23v-1c4-.3 6.5-2.8 9-5.7l4.6-5.5c3.6 2 1.8 5 2.5 7.4.3.3.3.6 0 .8-.7 1.5-1.6 3-2 4.6-.5 2.4-.7 5-1 7.3l-2.4 21.5-2.7 19.2c-.3 1.5-1.4 3-2 4.3l1-5c-5.6.2-10.8-.8-16 1z"/><path fill-rule="evenodd" fill="#7EA32E" d="M310 319l-4.5 23c-1 5-1.7 10-2.5 15l-11.8-.7c-.8 5.7-1.6 11.4-2.2 17-.5 4.5-2 5.5-6.2 4L272 374l2.7-20c2.2 0 4.6-.8 6.6-.2 5.8 1.7 10-1 10.8-7 1-8 2.7-15.8 4-23.8l3.8-1 10.2-3z"/><path fill-rule="evenodd" fill="#8EB52A" d="M88.7 655l11.4-8.8-2.5-11.2c-.5-2.5-1.7-5.3 1.6-7 .7.4 1.7.8 1.8 1.3.7 2.2 1.3 4.5 1.7 6.7l2.2 16.6c-5-1.2-6-.8-8.6 4.4-2.6.2-2.2 2-1.6 3.6 1 3 3.3 5 6.5 5.4 1.8.2 3 1 3 3 .6 13 1.2 26 2 39l-12.8-.7L91 698l-2.3-43z"/><path fill-rule="evenodd" fill="#7EA32E" d="M332.8 663l.4 5 .7 11h-20v-39l6.2-3.7 9.6-6.3.7 4v2l-.2.3c0 .3.3.5.4.7l2 24v2z"/><path fill-rule="evenodd" fill="#ACCA3E" d="M197 442c-2 1.8 0 2.3 1.2 3l16.8 12 4 14.6c.3 1 1 2.2.6 2.7-2 3-.8 6-.7 9-5-6-9.5-12.2-14.7-17.7-15-15.7-33-26.3-54.6-30-.6 0-1-.5-2.7-1.2 18-1.2 34.6-.5 50 7.5z"/><path fill-rule="evenodd" fill="#88AD38" d="M296 323c-1.3 8-3 16-4 24-.7 5.8-5 8.5-10.7 6.8-2-.6-4.4 0-6.6.2 1.5-10.6 3-21.3 4.7-32 2-.5 2-1.6.8-3 0-1 .3-2 .4-3l.4-2 .8-4c1-.4 2-.6 2.6-1.3 4-4.4 9.5-4 14.6-4.7l-.5 4-2.5 15z"/><path fill-rule="evenodd" fill="#A2BE2A" d="M317 565c1.6-1 3.4-2 4.7-3.3 2.4-2.5 5.2-3.8 8.7-3.6l-.7 51c-2.3 1-5 1.6-7 3-3 2-5.8 4.6-8.7 7 .3-3.3.8-6.6 1-10l2-38v-6zM131.8 658l-.7 6c0 2-.3 4-.5 6l-.2 5h-3c-4.8.2-5.4.8-5.4 5.6v5.4l1 11-14 2v-25.3c0-2 .7-3.8 1-5.7l2-7.5c2.6 1.8 5 4 8 1.6 2.2-1.5 3.4-3.6 2.5-6.4-1-3-3.7-4.3-8-3.8.4-2 1-4 1.5-5.8.6.3 1 .7 1.8 1 5.2 1.4 9.4 4.2 11.6 9.6.3.6 1.5 1 2.4 1.4z"/><path fill-rule="evenodd" fill="#B2C92A" d="M131.8 658c-1-.5-2-.8-2.4-1.4-2.2-5.4-6.4-8.2-11.6-9.7l-1.8-1 3-7.2 6-10.6c2-1.7 4.3-3.4 6.5-5 10.4-7.3 22-9.5 36.2-6.7-.4.3-.7.8-1 .8-15 0-24 8.5-29 21.5-2.3 5.6-3.4 11.6-5 17.4-.2.7-.6 1.2-1 1.8z"/><path fill-rule="evenodd" fill="#79AA2D" d="M109.8 503l4 28c-1 2.5-3.3 5-3.3 7.5 0 5.5 1 11 1.7 16.6 1 9.4 2 18.7 2.8 28l-10-1-2-34v-5c-.4-4.7 0-9.3 2.7-13.2 4.3-6 1.2-12 .3-17.8v-7l3.8-2z"/><path fill-rule="evenodd" fill="#ACCA3E" d="M102 457v3.8c0 2 .4 4.2.3 6.3-.2 3-1.4 5.8-1 8.6.6 6.6-.6 9-6.5 11.8-.5.2-.6 1-1 1.7L93 471c-1-23-2-45.8-2.8-68.7 0-1 0-2 .3-3 4.6 18.5 8.2 37.2 11.3 56l-.6 2.4c.3 0 .5-.2.8-.3z"/><path fill-rule="evenodd" fill="#ABC751" d="M380 92l-7.4-5c15.2-18.7 32.2-34.7 56.2-41 8-2.2 16-2.8 24-.2-3 0-6 0-8.8.2-1.6 0-3.4 0-5 .2-18.4 3.5-32.2 14.3-44 28-5.2 6-10 12-15 17.8z"/><path fill-rule="evenodd" fill="#D2D3CF" d="M314 679h20l-.8-11 10 1.2c-2.5 5-5 10-7.6 14.8l-16.2 1.6c-5.6.5-11.2 1-16.8 1.2-8.7.3-17.3.2-26 0-6.3 0-12.5-.5-18.8-.8l-1.8-7 5.8.8 15 2.7c3.5.5 7 2.8 10.7 1 3.3-.3 6.6 0 9.8-.7 5-1 10.6.3 15-3.6.4 0 1 0 1.6-.2z"/><path fill-rule="evenodd" fill="#527E2F" d="M301 368c5.2-1.8 10.4-.8 16-1l-1 5-4 41.3 1-20c-5.3-.5-10.2-.8-15 .7l1-11 2-15z"/><path fill-rule="evenodd" fill="#94C02D" d="M94 489c.2-.5.3-1.4.8-1.6 6-2.8 7-5.3 6.4-11.8-.3-2.8 1-5.7 1-8.5.2-2 0-4 0-6.2 1 5.4 2.5 10.7 3.6 16 .5 2.7.7 5.5 1 8.2-1 1.7-2.7 3.4-2.6 5 .2 5 1 10 1.8 15v7c-1.6 1.4-4.4 2.6-4.7 4.3-.7 3.8-2.7 4.8-6.4 4v10c-.4-3.8-.8-7.6-.8-11.4l-.3-30z"/><path fill-rule="evenodd" fill="#9EC534" d="M256 679l1.8 7c0 .8 0 1.6.2 3-4.5-.5-8.8-.8-13-1.7-.8 0-1.3-2-2-3.3v-17-32.8l3 10 3 8.4 4 14.4 3 12z"/><path fill-rule="evenodd" fill="#7D942C" d="M444 46c3 0 6 0 8.8-.2 13.8 2.8 24.3 11 33.5 21 2.7 3 4.7 6.6 7.7 10.8-5.4-5-9.8-9.3-14.6-13-9.8-7.8-20.4-13.8-33.6-12.7-6.8.5-13.3 2.3-19 6.6l-.7.5-4.2-2c1.2-1.2 2.3-2.6 3.8-3.2 6-2.7 12.2-5.2 18.4-7.8z"/><path fill-rule="evenodd" fill="#50782E" d="M125 628.2l-6 10.6-3 7.2-1.6 5.8-3 4.5.2 2.7.5 1.5-2 7.5c-.7-.7-1.7-1.4-2-2.2-.2-2-.2-4-.3-6.2v-4l.2-2.7v-6c4 .8 4.4-2.2 5-5 .8-4 1.5-8 2.6-12 1.3-5 3.2-9.8 2.4-15v-12.3c0-2.7 1.2-4 4-3.7l2 22.6.8 6.5v.2z"/><path fill-rule="evenodd" fill="#96B024" d="M314 619c3-2.4 5.6-5 8.7-7 2-1.4 4.7-2 7-3 0 4.7 0 9.4.2 14-.2 2.4-.2 4.7-.2 7l-9.6 6.3-6.2 3.7v-7-14z"/><path fill-rule="evenodd" fill="#94C02D" d="M103 548l2 34v6c-2.7-1-5.3-1.7-7.3-2.3L96 580l-1-16.2c0-3.6 0-7.2.2-10.8 1-4.2 4-5.3 7.8-5z"/><path fill-rule="evenodd" fill="#8EB52A" d="M103 548c-3.8-.3-6.8.8-7.8 5l-.3-22.8v-9.8c3.6.7 5.6-.3 6.3-4 .3-1.8 3-3 4.7-4.4 1 6 4 11.8-.3 17.8-2.8 4-3 8.5-2.7 13.2v5z"/><path fill-rule="evenodd" fill="#6C9B31" d="M108 647v6c-.7 0-1.2.2-1.8.4l-1.5-.8-2.2-16.6c-.4-2.2-1-4.5-1.7-6.7 0-.5-1-1-1.7-1.3-1-5-2-10-2.8-15v-14l1.5 7h8.3v11l1 26.8c0 1 .6 2.2 1 3.2z"/><path fill-rule="evenodd" fill="#F1F2EF" d="M243 667v17c-5-1-10-1.7-15-3-1.6-.5-2.7-2.5-4-3.7l2.7-.8-4-5.4c6.7-1.2 13.5-2.6 20.2-4z"/><path fill-rule="evenodd" fill="#6C9B31" d="M115 583c-1-9.3-2-18.6-2.8-28-.6-5.5-1.7-11-1.7-16.5 0-2.5 2.2-5 3.3-7.5 1.7 12.4 3.5 24.8 5 37.2 1 6.3 1.4 12.5 2 18.8-1-2-1.3-5-4.8-4h-1z"/><path fill-rule="evenodd" fill="#578830" d="M116 583c3.5-1 4 2 4.8 4l1 12c-2.6-.2-4 1-3.8 3.7V615l-12 2v-11-3c3-.4 5.8-.7 8.6-1.4 1-.2 2.2-1.4 2.2-2.2 0-2.8-.5-5.6-.8-8.4v-8z"/><path fill-rule="evenodd" fill="#9EC534" d="M91 698l2.2 9.3c.5 1.2 1 2.4 1.7 3.6l.3 2c-3.3 0-6.6 0-10-.2 0-1-.3-1.8-.5-2.7-.4-3-.8-6-1-9l-.5-2-2.2-26c2.4 6.4 4.6 12.8 7 19l3 6z"/><path fill-rule="evenodd" fill="#889A2B" d="M123 697l-1-11 8-2c.3.2.4.4.2.7 0 .4 0 .8-.2 1.2l1.8 12.8.7 10c-3 .4-5.7 1-8.5 1.6l-1-13.4z"/><path fill-rule="evenodd" fill="#ACCA3E" d="M335.6 684c2.5-5 5-10 7.6-14.8l7.6-12.6c1-1.4 1.7-2.8 3.4-3.8l-5 16.2-4.2 13-2.5 5.6H334c.6-1.3 1-2.5 1.6-3.6z"/><path fill-rule="evenodd" fill="#96B024" d="M123 697l1 13.4-10.3 2.4c-1 0-1.8.3-2.7.4h-1l-1-1.4v-3.4-9.4l14-2z"/><path fill-rule="evenodd" fill="#D2D3CF" d="M113.7 712.8l10.3-2.4 8.5-1.7-.7-10c5 .5 10 1 15 1.3-.8 3.4-1.8 6.7-2.8 10-1.6.2-3.7-.8-4 2l-4-1-2 1-20.3.8z"/><path fill-rule="evenodd" fill="#79AA2D" d="M106 603v3h-8.3l-1.5-7c0-6.3 0-12.7-.2-19l1.7 5.7 7.3 2.3v4l1 11z"/><path fill-rule="evenodd" fill="#F1F2EF" d="M345 682l4.2-13c5.4 1.4 10.7 2.8 16 4l-4.2 6-16 3zM84.8 710l.6 2.8c-5.5-1-11-1.6-16.4-3-3-.6-5.4-2.4-9-4l6-5c1 1 2 2 2.8 3.3 1.4 2.5 3 2.4 5.3 1l-2.3-3.3c3.3-3.4 7.6-2.5 11.6-2.8 0 .6.3 1.2.4 2-2.8 0-6 0-6.5 3.7-.4 2.7 2.4 4.7 6.6 5.3h1zM165.8 701.7l3.7 4.2c-6.5 3.3-13 4-20 3.8l2.3-8.8 8.5 1c1.8-.2 3.7-.2 5.5-.3z"/><path fill-rule="evenodd" fill="#ACCA3E" d="M151.8 701l-2.2 8.8c-1.5 0-3 .2-4.6.4l-1-.2 3-10 8-21h.4l-3.6 22zM74 578c-.6.5-1.7 1-2 1.7l-1 5c-2-3.3-3.7-7-6-10.2-3.2-4.7-7-9.2-10.2-14 7.3 4.7 14 10.2 19.2 17.5z"/><path fill-rule="evenodd" fill="#8EB52A" d="M106 505c-.7-5-1.6-10-1.8-15 0-1.6 1.7-3.3 2.6-5l3 18-3.8 2z"/><path fill-rule="evenodd" fill="#96B024" d="M130 684l-8 2v-5.4c0-4.8.6-5.4 5.4-5.6h2.5v9z"/><path fill-rule="evenodd" fill="#ACCA3E" d="M222.7 671l4 5.5-2.7.8c-2.2 0-3.6-.6-4.7-2.8-2-4.4-4.5-8.7-7.3-14 5 3 7 7.7 10.7 10.6zM361 679c1.4-2 3-4 4.3-6 3-2.6 5.8-5.3 8.7-8l-5.8 14H361z"/><path fill-rule="evenodd" fill="#82837E" d="M109 708.4v3.4h-8l-6-1c-.7-1-1.3-2.3-1.8-3.5l12.7.6c1 0 2 .3 3 .4z"/><path fill-rule="evenodd" fill="#ABC751" d="M71.7 701.7L74 705c-2 1.4-3.8 1.5-5.2-1-.7-1-1.8-2-2.7-3.2l-2.3-6.4c0-.2.2-.3.3-.4 2.6 2.5 5.2 5 7.7 7.7z"/><path fill-rule="evenodd" fill="#ACCA3E" d="M165.8 701.7c-1.8 0-3.7 0-5.5.2l7.8-11.3c.3 0 .5.2.7.3l-3 10.7z"/><path fill-rule="evenodd" fill="#7D942C" d="M323 327c.3-2.5.5-5 1-7.4.4-1.6 1.3-3 2-4.6-.8 4 0 8.5-3 12z"/><path fill-rule="evenodd" fill="#A2BE2A" d="M329.8 630v-7l.7 11-.7-4z"/><path fill-rule="evenodd" fill="#ABC751" d="M333.6 518c-.6-3-1.8-5.7 1-8l-1 8zM330.8 552c-1-2.5-1.7-4.8.4-7l-.4 7zM335.8 499c-1.3-2.7 0-4.8 1.3-7l-1.2 7z"/><path fill-rule="evenodd" fill="#D2D3CF" d="M95 711l6 .7c-2 .4-3.8 1-5.7 1.3 0-.7-.3-1.4-.4-2z"/><path fill-rule="evenodd" fill="#ABC751" d="M334.8 508c-1-2-1.8-3.7.6-5l-.6 5z"/><path fill-rule="evenodd" fill="#F1F2EF" d="M144 710c.3 0 .7 0 1 .2-.8 3.2-3.3 1.3-5 1.7.3-2.8 2.4-1.8 4-2z"/><path fill-rule="evenodd" fill="#B2C92A" d="M130.5 670l.6-6c0 2-.3 4-.5 6z"/><path fill-rule="evenodd" fill="#ABC751" d="M332 535c-1.4-1.5-1.6-2.8.2-4l-.3 4zM337.3 489.5l1-4.5-1 4.5z"/><path fill-rule="evenodd" fill="#B2C92A" d="M124.8 628l-.7-6.4.8 6.5z"/><path fill-rule="evenodd" fill="#92B646" d="M280.2 319c1.3 1.4 1.2 2.5-.8 3l.8-3zM281 314c0 .7-.2 1.4-.4 2l.4-2z"/><path fill-rule="evenodd" fill="#D2D3CF" d="M332.8 663v-2 2z"/><path fill-rule="evenodd" fill="#F1F2EF" d="M134 712l2-1c-.2 1.3-.4 2.8-2 1z"/><path fill-rule="evenodd" fill="#94C02D" d="M102 457l-.8.4.6-2.3c0 .7 0 1.4.2 2z"/><path fill-rule="evenodd" fill="#B2C92A" d="M130 677v-2h.3c0 .7 0 1.4-.2 2z"/><path fill-rule="evenodd" fill="#ABC751" d="M63.7 694.4l-1.4-.7.3-.6 1.4 1-.3.4z"/><path fill-rule="evenodd" fill="#BFCD32" d="M307.2 488.8c-.2 0-.2-.3 0-.5l.3.2-.3.3z"/><path fill-rule="evenodd" fill="#9EC534" d="M81 673"/><path fill-rule="evenodd" fill="#889A2B" d="M368 161.3l.6-1.2-.5 1.3z"/><path fill-rule="evenodd" fill="#ACCA3E" d="M374 665"/><path fill-rule="evenodd" fill="#B2C92A" d="M130 686c0-.5 0-1 .2-1.3 0 .4 0 .8-.2 1.2z"/><path fill-rule="evenodd" fill="#A2BE2A" d="M330.7 637l-.4-.7.3-.3v1z"/><path fill-rule="evenodd" fill="#889A2B" d="M426 59c.4 0 .6-.2 1-.4l-1 .5z"/><path fill-rule="evenodd" fill="#F1F2EF" d="M110 713c.3.2.7.2 1 .2h-1z"/><path fill-rule="evenodd" fill="#79AA2D" d="M256 679l-3-12 .8-8c0-.8-1-2-.6-2.4 3.4-6.5.4-14 2.7-20.5 2-6 4-12 6.6-18 4-9.4 2.7-18-2.5-26.4-5.4-9-3.4-20.2 4.6-26.3 2-1.6 2.8-3 2-5.3-1.7-4.5.5-8 3.4-11h1l2 11c-3 .6-4.5 2.3-5 5.2-.3 1.2-1 2.4-1.8 3.2C257 577 260 591 272 595c1 6 2.3 11.8 3 17.8 1 9.2 1.7 18.5 2 27.7.2 14-.2 28-.2 42l-15-2.7-5.8-.7z"/><path fill-rule="evenodd" fill="#578830" d="M273 560l-2-11c.3-2 .8-4 1-6v-7c5 2 4.5 7.3 8.3 10 .3-1.3.7-2.3.7-3.3v-19c.3-20.7.5-41.5 1-62.2.4-11.8 1.3-23.5 2-35.2l1-16.3 1-4 10 1-2 20v1.6l-1 65c0 3.2.7 6.3 1 9.4-.2 2.5-.2 5-.7 7.4-1.7 7.8-3.5 15.7-5.4 23.5-1.3 5-1.7 10.5-4.3 14.5-3 4.6-2.4 9-2.7 13.5 0 1.5 0 3-.2 4.5-2 0-3.5-.3-5.4-.4 0 1.6-.3 2.8-.4 4l-4.6.2c-2-1-1.2-2 .2-3 4-2.5 4-2.5 2.4-7.2z"/><path fill-rule="evenodd" fill="#B2C92A" d="M317 565v6c-2-1-4-1.7-5.5-3-4.8-4.3-10.3-6.5-16.6-7 1-7 2.3-14 3.6-21.2 1-6.3 2.3-12.5 3.4-18.8l1.5-6.6c1-3.5 2.3-7 3.5-10.4 2 6.3 7.4 9.6 12.2 13.4.6.6 1.8.4 2.8.6-1 8-1.8 16.3-2.7 24.5l-1.3 14.7-1 7.8z"/><path fill-rule="evenodd" fill="#8CAA28" d="M296 323l2.5-15 .5-4c2-8.5 3.8-17 6-25.4 3.2-13 6.4-26 10-38.8 2.7-10 6-20 9-29.8 2.3.6 5 .8 6.8 2 2.4 1.6 4.6 2 7.2 1-4.2 14-8.7 28-12.5 42-5 19-9.6 38-14.3 57-.3 1.3-.2 2.7-.2 4l-1 1v2l-10.2 3-3.8 1z"/><path fill-rule="evenodd" fill="#96B024" d="M338 213c-2.6 1-4.8.6-7.2-1-2-1.2-4.5-1.4-6.8-2l4-12c9-22.4 17.5-45 29-66.5 5.5-10.7 12-21 18-31.4.5-.7 1.3-1.3 2-2l7 2c-3.6 7-7.6 13.6-10.7 20.6-5.7 12.7-11 25.6-16.3 38.4l-12 32.5c-2.5 7-4.7 14.3-7 21.5z"/><path fill-rule="evenodd" fill="#6F8B2E" d="M310 317l1-1-1 1z"/><path fill-rule="evenodd" fill="#527E2F" d="M302 521c-1 6.3-2.3 12.5-3.4 18.8L295 561l-1 4-1 1c-1 0-2-.6-3-.4-4.6 1-9 2.3-10.2 7.5l-4.8-3c0-1.2.3-2.4.4-4l5.4.5c0-1.5 0-3 .2-4.5.3-4.6-.4-9 2.7-13.5 2.6-4 3-9.6 4.2-14.6l5.3-23.6c.5-2.4.5-5 .7-7.4 1 1.3 2.4 2.5 2.8 4 1 3.6 1.3 7.3 2.3 11 .5 1 2 2 3 3z"/><path fill-rule="evenodd" fill="#619432" d="M296 407l-10-1 2-24 11 1-1 11-2 13z"/><path fill-rule="evenodd" fill="#A2BE2A" d="M384 100l-7-2 3-6c5-6 9.8-12 15-17.7 11.8-13.8 25.6-24.6 44-28 1.7-.4 3.4-.3 5-.3-6.2 2.6-12.3 5-18.4 7.8-1.5.6-2.6 2-3.8 3-2.4 1.8-5 3.2-7.2 5-11 10.2-20.4 21.7-28 34.7-.7 1.3-1.7 2.3-2.6 3.5z"/><path fill-rule="evenodd" fill="#7EA32E" d="M109 708.4c-1 0-2-.3-3-.5-.8-13-1.4-26-2-39 0-2-1.2-2.8-3-3-3.3-.4-5.6-2.3-6.6-5.4-.6-1.6-1-3.4 1.7-3.6.2 3.3 1.7 5.7 5 6.5 3.3 1 5-1.6 6.7-4 0 2.2 0 4.3.4 6.3.3.8 1.3 1.5 2 2.2-.3 2-1 3.8-1 5.7v34.7z"/><path fill-rule="evenodd" fill="#F1F2EF" d="M107.7 659.6c-1.7 2.3-3.4 4.8-6.7 4-3.3-1-4.8-3.3-5-6.6 2.8-5.2 3.6-5.6 8.7-4.4l1.5.8 1.6 2.3v4z"/><path fill-rule="evenodd" fill="#8EB52A" d="M314 633v46c-.7 0-1.3 0-1.8.2l-15-.3c-1.5-10-1-20.2-3.6-30l-6.5 2-1-16.8-.8-9.3c1.8 0 3.5 0 5.4.2l2.8 13c7.4-.8 14-3.2 20.6-5.2z"/><path fill-rule="evenodd" fill="#A0C224" d="M314 633c-6.6 2-13.2 4.4-20.6 5.2-1-4.5-2-8.6-2.8-13-2 0-3.6-.2-5.4-.3h-.2l4.2-31c3.2 0 6.4-.3 9.5 0 7 1 13-5.4 14.2-10 1.5-6.2-2-13.7-8-16.4-3.4-1.4-7.3-1.8-11-2.6l1-4c6.2.5 11.7 2.7 16.5 7 1.6 1.3 3.6 2 5.5 3l-2 38c-.2 3.4-.7 6.7-1 10v14z"/><path fill="none" d="M111.5 656.3l3-4.5c4.3-.5 7 .8 8 3.8 1 2.8-.3 5-2.4 6.5-3 2.5-5.4.3-8-1.5 0-.5-.2-1-.4-1.5v-2.7z"/><path fill-rule="evenodd" fill="#7EA32E" d="M105 592v-4-6l10 1h1v8l-11 1z"/><path fill-rule="evenodd" fill="#619432" d="M285.2 625l.8 9.2 1 16.8c0 2-.7 4.6.2 6.3 2.7 5 1.4 10.2 1.8 15.4.2 2 .7 4 1 6-3 .3-3.3 2.2-2.5 4.7-3.7 2-7.2-.4-10.7-1 0-14 .4-28 0-42 0-9-1-18.4-2-27.6-.5-6-1.8-12-2.8-17.8l-1-7h5l1.7 2c.7 1 2 1.8 2.2 2.8l3 25.8c.3 2.2 1.3 4.3 2 6.4h.2z"/><path fill-rule="evenodd" fill="#82837E" d="M287.5 683.4c-.8-2.5-.6-4.4 2.6-4.6h7l15.2.4c-4.3 4-10 2.7-15 3.6-3 .6-6.4.4-9.7.6z"/><path fill-rule="evenodd" fill="#527E2F" d="M106 617l12-2c.8 5.2-1 10-2.4 15-1 4-1.8 8-2.6 12-.6 2.8-1 5.8-5 5-.4-1-1-2-1-3.2l-1-26.8z"/><path fill-rule="evenodd" fill="#A2BE2A" d="M111.5 656.3v0z"/><path fill-rule="evenodd" fill="#527E2F" d="M107.8 655.7l-1.6-2.3c.6-.2 1-.4 1.7-.5l-.2 2.7z"/><path fill-rule="evenodd" fill="#619432" d="M105 592l11-1c.3 2.8.8 5.6.8 8.4 0 .8-1.3 2-2.2 2.2-2.8.7-5.7 1-8.6 1.4l-1-11z"/><path fill-rule="evenodd" fill="#D2D3CF" d="M84.8 710h-1c-4.2-.6-7-2.6-6.6-5.3.5-3.7 3.7-3.6 6.5-3.8l1 9z"/><path fill-rule="evenodd" fill="#7EA32E" d="M271 588l1 7c-12-4-15-18-5.8-26.6.8-.8 1.5-2 1.7-3.2.5-3 2-4.6 5-5.2 1.6 4.7 1.6 4.7-2.4 7.3-1.4 1-2 1.8-.2 3-3.8 2-6.8 4.8-6.4 9.7.3 4.4 3 6.7 7 8z"/><path fill="none" d="M271 588c-4-1.3-6.7-3.6-7-8-.4-5 2.6-7.6 6.4-9.8h4.6l4.8 3c2 3 2.5 6.3 1.4 9.8l-5.2 5h-5z"/><path fill-rule="evenodd" fill="#8EB52A" d="M294 565c3.7.8 7.6 1.2 11 2.6 6 2.7 9.5 10.2 8 16.3-1.4 4.6-7.2 11-14.3 10-3-.3-6.3 0-9.5 0 0-.3 0-.7-.2-1l1-7c1 .6 1.7 1.3 2.6 1.7 3.6 1.8 7.3 1.3 10.2-1.2 2.8-2.6 3.7-6.5 2.3-10-1.3-3.6-4.4-5.6-8.5-5.5-1 0-2.3.2-3.4.4V566l1-1z"/><path fill-rule="evenodd" fill="#50782E" d="M293 566v5.4c-6 4.7-6.6 8-3 14.7l-1 7c-6.8 0-6.8 0-7-6.8 0-1-.5-2-.8-3.2 1-3.5.7-6.8-1.4-10 1.3-5 5.6-6.5 10-7.4 1-.2 2.2.3 3.3.5z"/><path fill-rule="evenodd" fill="#8CAA28" d="M295 679c-1.7-.2-3.3-.2-5-.2-.2-2-.8-4-1-6-.4-5.3 1-10.5-1.8-15.5-1-1.7 0-4.2 0-6.3l6.4-2c2.6 9.8 2 20 3.5 30h-2z"/><path fill-rule="evenodd" fill="#527E2F" d="M281.3 583c.2 1 .6 2.2.7 3.2.2 6.7.2 6.7 7 6.8 0 .3 0 .7.2 1l-4.2 31c-.7-2-1.7-4.2-2-6.4l-3-25.8c-.2-1-1.6-1.8-2.3-2.8-.6-.7-1-1.4-1.7-2l5.3-5z"/><path fill-rule="evenodd" fill="#619432" d="M295 679h1-1z"/><path fill="none" d="M290 586c-3.6-6.5-3-10 3-14.6 1.2-.2 2.4-.4 3.5-.4 4 0 7.2 2 8.6 5.5 1.5 3.5.6 7.4-2.2 10-3 2.5-6.6 3-10.2 1.2-1-.4-1.7-1-2.5-1.6z"/></g></svg>