<?xml version="1.0" encoding="utf-8"?>
<!-- Generator: Adobe Illustrator 16.0.3, SVG Export Plug-In . SVG Version: 6.00 Build 0)  -->
<!DOCTYPE svg PUBLIC "-//W3C//DTD SVG 1.1//EN" "http://www.w3.org/Graphics/SVG/1.1/DTD/svg11.dtd">
<svg version="1.1"
	 id="Ebene_1" xmlns:inkscape="http://www.inkscape.org/namespaces/inkscape" xmlns:sodipodi="http://sodipodi.sourceforge.net/DTD/sodipodi-0.dtd" xmlns:svg="http://www.w3.org/2000/svg" xmlns:rdf="http://www.w3.org/1999/02/22-rdf-syntax-ns#" xmlns:cc="http://creativecommons.org/ns#" xmlns:dc="http://purl.org/dc/elements/1.1/" sodipodi:docname="typescript-angular.svg" inkscape:version="0.91 r13725"
	 xmlns="http://www.w3.org/2000/svg" xmlns:xlink="http://www.w3.org/1999/xlink" x="0px" y="0px" width="82.375px"
	 height="81.827px" viewBox="4.087 23.779 82.375 81.827" enable-background="new 4.087 23.779 82.375 81.827" xml:space="preserve"
	>
<sodipodi:namedview  id="namedview3574" borderopacity="1" pagecolor="#ffffff" bordercolor="#666666" objecttolerance="10" gridtolerance="10" guidetolerance="10" showgrid="false" inkscape:zoom="1.668772" inkscape:cx="21.651261" inkscape:cy="137.36754" inkscape:current-layer="Ebene_1" inkscape:window-maximized="1" inkscape:window-y="24" inkscape:window-x="55" inkscape:window-height="1056" inkscape:pageshadow="2" inkscape:pageopacity="0" inkscape:window-width="1865">
	</sodipodi:namedview>
<g id="Angular2_TypeScript" transform="translate(0.84745763,-31.016949)">
	<g id="g3566">
		<rect id="rect3568" x="3.24" y="54.796" fill="#2279BE" width="82.375" height="81.827"/>
		<polygon id="polygon3570" fill="#FFFFFF" points="28.563,74.782 13.494,74.782 13.494,69.229 49.8,69.229 49.8,74.782 
			34.697,74.782 34.697,121.562 28.563,121.562 		"/>
		<path id="path3572" inkscape:connector-curvature="0" fill="#FFFFFF" d="M42.828,125.66v-6.562
			c0.688,0.66,1.508,1.265,2.469,1.791c0.962,0.528,1.971,0.981,3.035,1.339c1.066,0.357,2.131,0.65,3.196,0.85
			c1.075,0.197,2.064,0.301,2.969,0.301c3.129,0,5.476-0.631,7.023-1.904c1.544-1.271,2.318-3.102,2.318-5.484
			c0-1.283-0.253-2.396-0.773-3.346c-0.518-0.953-1.225-1.82-2.139-2.604c-0.914-0.781-1.989-1.537-3.233-2.252
			c-1.245-0.719-2.583-1.47-4.016-2.272c-1.517-0.836-2.931-1.687-4.241-2.554c-1.31-0.857-2.46-1.809-3.421-2.846
			c-0.971-1.037-1.735-2.216-2.291-3.526c-0.557-1.31-0.829-2.854-0.829-4.618c0-2.168,0.433-4.043,1.301-5.645
			c0.866-1.603,2.008-2.923,3.431-3.959c1.413-1.037,3.025-1.809,4.834-2.32c1.81-0.508,3.658-0.763,5.533-0.763
			c4.289,0,7.409,0.564,9.37,1.686v6.259c-2.564-1.941-5.863-2.912-9.888-2.912c-1.112,0-2.225,0.131-3.337,0.377
			c-1.112,0.254-2.102,0.668-2.969,1.244c-0.867,0.574-1.574,1.31-2.121,2.225c-0.546,0.904-0.819,2.007-0.819,3.317
			c0,1.215,0.208,2.262,0.623,3.148c0.414,0.887,1.027,1.686,1.838,2.422c0.811,0.726,1.79,1.433,2.959,2.12
			c1.16,0.689,2.498,1.434,4.016,2.254c1.555,0.838,3.035,1.725,4.43,2.647c1.395,0.925,2.621,1.952,3.666,3.083
			c1.047,1.131,1.885,2.375,2.498,3.74c0.613,1.367,0.924,2.939,0.924,4.705c0,2.336-0.424,4.326-1.253,5.946
			c-0.84,1.62-1.97,2.94-3.393,3.96c-1.423,1.018-3.063,1.752-4.931,2.205c-1.857,0.453-3.817,0.68-5.881,0.68
			c-0.689,0-1.537-0.059-2.546-0.179c-1.008-0.124-2.044-0.304-3.091-0.528c-1.054-0.236-2.045-0.52-2.988-0.859
			C44.148,126.462,43.403,126.074,42.828,125.66L42.828,125.66z"/>
	</g>
</g>
</svg>
