<?xml version="1.0" encoding="utf-8"?>
<!-- Generator: Adobe Illustrator 16.0.3, SVG Export Plug-In . SVG Version: 6.00 Build 0)  -->
<!DOCTYPE svg PUBLIC "-//W3C//DTD SVG 1.1//EN" "http://www.w3.org/Graphics/SVG/1.1/DTD/svg11.dtd">
<svg version="1.1" id="Ebene_1" xmlns="http://www.w3.org/2000/svg" xmlns:xlink="http://www.w3.org/1999/xlink" x="0px" y="0px"
	 width="256px" height="258.636px" viewBox="0 0 256 258.636" enable-background="new 0 0 256 258.636" xml:space="preserve">
<g>
	<g>
		<path fill="#3185B8" d="M255.279,19.166c-1.842-1.511-16.318-9.274-16.318-9.274l-15.447,8.976l-0.009-0.006l15.448-8.974
			L223.51,0.685l-0.005,18.177l-16.11-9.018c0,0-13.18,7.704-19.578,11.396c-8.055,4.647-27.809,16.409-27.809,16.409v17.37
			l-16.274,42.4v23.022l-11.422,6.667l-4.545,11.889L95.739,55.913l0.005-18.221L31.915,0.664L0.031,19.121L0,19.114V37.89
			l19.884,47.892l12.083,7.116l0.011,21.841l47.901,116.343l47.872,27.396v0.158l47.809-27.666l79.894-193.462L255.279,19.166"/>
		<path fill="#3185B8" d="M127.786,258.498l-47.907-27.417L31.978,114.739l-0.011-21.841l-12.083-7.116L0,37.89V19.114l15.733,9.174
			v18.483l16.261,9.438l0.002-18.592l31.772,18.383L65.3,74.198l46.189,119.891l32.099,18.699v36.668l-15.847-9.322L127.786,258.498
			"/>
		<path fill="#61A5CE" d="M95.739,55.913l32.028,83.085l-0.066,45.767l-16.233,9.233L65.3,74.064l-1.532-18.064l31.976-18.307
			L95.739,55.913"/>
		<path fill="#61A5CE" d="M15.733,28.287v18.483l16.263-9.154L15.733,28.287"/>
		<path fill="#EAE9E6" d="M31.995,56.208l0.002-18.592l-16.263,9.154L31.995,56.208"/>
		<path fill="#3185B8" d="M127.7,184.765l16.011,9.161l17.826-44.757l13.729,8.168v-42.895l4.379-10.356l11.689,6.845V92.798
			l-15.912-9.245l16-9.288l-15.733-9.067l-0.042-18.43l-15.639-9.118v17.37l-16.274,42.4v23.022l-11.422,6.667l-4.545,11.889
			L127.7,184.765"/>
		<path fill="#61A5CE" d="M127.48,203.501l16.107,9.286l-0.08,36.676l32.052-18.493l79.894-193.462l-0.174-18.342l-47.885,27.602
			v36.824l-16.061,9.206v18.133l-11.689-6.845l-4.379,10.356v42.806l-22.244,13.08l-9.311,23.598L127.48,203.501"/>
		<path fill="#EAE9E6" d="M63.667,74.398l16.066-9.333v18.466L63.667,74.398"/>
		<path fill="#3185B8" d="M79.733,83.531l15.933,9.001V74.398l-15.933-9.333V83.531"/>
		<path fill="#61A5CE" d="M47.845,120.197v18.6l16.086-9.257L47.845,120.197"/>
		<path fill="#EAE9E6" d="M79.988,138.882l-16.143,9.399l-16-9.485l16.086-9.257L79.988,138.882"/>
		<path fill="#61A5CE" d="M79.771,194.133v18.758l16.17-9.35L79.771,194.133"/>
		<path fill="#EAE9E6" d="M111.522,230.883l16.287,9.467l0.059-19.052L111.522,230.883"/>
		<path fill="#61A5CE" d="M127.75,258.636l0.059-18.286l15.699,9.113L127.75,258.636"/>
		<path fill="#EAE9E6" d="M127.7,184.765l-16.233,9.233l16.014,9.503l16.23-9.575L127.7,184.765"/>
		<path fill="#3185B8" d="M207.395,83.592V46.768l-15.854-9.025v18.347l-15.852,9.108L207.395,83.592"/>
		<path fill="#EAE9E6" d="M175.422,83.553l16-9.288l15.973,9.327l-16.061,9.206L175.422,83.553"/>
		<path fill="#61A5CE" d="M175.688,65.198l15.852-9.108V37.742l-15.894,9.025L175.688,65.198"/>
		<path fill="#3185B8" d="M223.505,18.863l0.005-18.178l15.443,9.203L223.505,18.863"/>
		<path fill="#EAE9E6" d="M255.279,19.166l-47.885,27.602l-15.854-9.025l-15.894,9.025l-15.639-9.118
			c0,0,19.754-11.762,27.809-16.409c6.398-3.692,19.578-11.396,19.578-11.396l16.119,9.023l15.447-8.976
			C238.961,9.892,253.438,17.656,255.279,19.166C250.924,21.711,255.279,19.166,255.279,19.166"/>
		<path fill="#EAE9E6" d="M95.744,37.693L63.769,55.999L0.031,19.121L31.915,0.664L95.744,37.693"/>
		<path fill="#3185B8" d="M239.204,46.348V28.432l-15.579,8.99L239.204,46.348"/>
		<path fill="#3185B8" d="M191.979,129.638l15.503-8.894v17.838L191.979,129.638"/>
		<path fill="#EAE9E6" d="M159.583,203.378v18.484l16.148-9.342L159.583,203.378"/>
		<path fill="#3185B8" d="M175.832,212.521l-0.2-18.335l-16.049,9.192L175.832,212.521"/>
	</g>
</g>
</svg>
