<?xml version="1.0" encoding="iso-8859-1"?>
<!-- Generator: Adobe Illustrator 19.1.0, SVG Export Plug-In . SVG Version: 6.00 Build 0)  -->
<!DOCTYPE svg PUBLIC "-//W3C//DTD SVG 1.1//EN" "http://www.w3.org/Graphics/SVG/1.1/DTD/svg11.dtd">
<svg version="1.1" id="cf_x5F_builder_x5F_2016_x5F_appicon.svg"
     xmlns="http://www.w3.org/2000/svg" x="0px" y="0px" viewBox="0 0 240 234"
     style="enable-background:new 0 0 240 234;" xml:space="preserve">
<g>
	<g>
		<rect x="10" y="10" style="fill-rule:evenodd;clip-rule:evenodd;fill:#000F34;" width="220.001" height="214"/>
	</g>
    <g>
		<path style="fill-rule:evenodd;clip-rule:evenodd;fill:#CADBFE;"
              d="M0,0v234h240.001V0H0z M10,10h220.001v214H10V10z"/>
	</g>
    <path style="fill-rule:evenodd;clip-rule:evenodd;fill:#CADBFE;" d="M126.938,160.425c0,0.989-0.33,1.483-1.154,1.813
		c-4.285,1.813-11.125,2.472-18.213,2.472c-25.712,0-48.457-16.812-48.457-56.368c0-33.953,20.108-56.698,50.764-56.698
		c8.076,0,13.937,0.824,17.069,2.307c0.824,0.33,0.989,0.824,0.989,1.813v14.174c0,1.319-0.659,1.319-1.154,1.154
		c-3.956-1.978-9.817-3.132-16.739-3.132c-19.284,0-32.14,14.669-32.14,39.886c0,31.151,17.636,40.381,32.14,40.381
		c6.593,0,10.961-0.494,15.74-2.143c0.659-0.33,1.154-0.33,1.154,0.824V160.425z M133.336,100.64c-0.659,0-0.654-0.33-0.654-1.154
		v-13.59c0-0.824,0.165-0.989,0.824-0.989h9.165v-5.109c0-6.098,0.989-11.343,3.296-15.793c4.12-8.406,11.378-12.197,21.267-12.197
		c2.967,0,5.015,0.165,6.663,0.824c0.824,0.33,0.989,0.659,0.989,1.483v13.186c0,0.824-0.33,1.154-1.154,0.989
		c-1.319-0.33-3.191-0.494-4.51-0.494c-5.769,0-8.571,4.12-8.571,12.032v5.079h13.091c0.824,0,1.144,0.165,1.144,0.824v13.755
		c0,0.824-0.165,0.989-0.989,1.154h-13.246v61.573c0,0.659-0.165,1.109-1.154,1.109h-15.673c-0.824,0-1.154-0.494-1.154-1.154
		V100.64H133.336z"/>
</g>
</svg>
